<svg width="200" height="127" viewBox="0 0 200 127" fill="none" xmlns="http://www.w3.org/2000/svg">
<path fill-rule="evenodd" clip-rule="evenodd" d="M98.901 1.67685C97.585 2.63217 95.612 3.89833 94.516 4.4892C90.762 6.51405 78.525 12.5558 74.023 14.6065C61.432 20.3424 53.6451 23.7407 44.023 27.7C39.898 29.3971 35.173 31.413 33.523 32.1797C31.873 32.9473 27.373 34.9275 23.523 36.5819C11.825 41.6088 9.09005 43.0835 9.05605 44.3784C9.03805 45.0616 9.58605 45.6247 10.273 45.6307C10.961 45.6366 13.323 47.3417 15.523 49.4192C19.547 53.2206 34.946 61.5335 40.517 62.9129C45.845 64.2317 46.0201 64.7332 46.063 78.7601C46.098 90.2488 46.649 94.9232 49.705 109.668C50.47 113.356 58.224 120.656 63.023 122.206C64.9481 122.828 66.973 123.684 67.523 124.107C68.0731 124.531 71.373 125.432 74.856 126.109C82.7821 127.651 109.919 126.785 118.523 124.717C121.823 123.923 127.903 122.805 132.035 122.233C140.057 121.121 148.838 117.732 155.823 113.05C158.188 111.466 160.606 110.169 161.196 110.169C161.929 110.169 162.115 106.305 161.783 98.0036C161.148 82.1266 162.665 60.5683 164.563 58.4858C165.343 57.6298 173.415 53.2256 182.502 48.6992C191.588 44.1719 199.023 39.9166 199.023 39.2433C199.023 38.5065 194.737 36.997 188.273 35.4578C182.361 34.0506 174.373 31.704 170.523 30.2432C166.673 28.7824 161.741 26.9224 159.563 26.1091C157.386 25.2968 154.461 24.0644 153.063 23.3702C150.297 21.9968 145.59 19.8052 134.023 14.5062C116.46 6.46141 113.329 5.10092 109.703 3.94103C107.602 3.26873 105.641 2.09294 105.346 1.32829C104.613 -0.56945 101.782 -0.416519 98.901 1.67685ZM126.523 14.7187C138.623 20.6642 150.773 26.5133 153.523 27.7189C156.273 28.9234 159.423 30.3048 160.523 30.7874C165.488 32.9652 178.927 37.4359 182.521 38.1063C191.572 39.7925 191.233 40.2513 174.839 48.5026C166.415 52.742 157.273 57.463 154.523 58.9933C151.773 60.5236 147.741 62.6646 145.563 63.752C141.276 65.8921 128.828 73.4473 120.04 79.2438C112.999 83.8873 113.457 83.5586 107.023 88.5845C99.397 94.5428 99.322 94.5736 97.29 92.5776C94.605 89.94 82.334 80.3768 81.634 80.3768C81.3 80.3768 78.889 78.8614 76.275 77.0094C66.784 70.2844 52.365 63.3747 40.523 59.8781C37.773 59.0658 34.623 57.9863 33.523 57.4799C32.423 56.9724 29.595 55.8979 27.239 55.0935C24.883 54.2882 20.521 51.74 17.544 49.4311C11.454 44.7081 11.568 44.3377 20.023 41.3605C31.448 37.3376 33.785 36.4429 37.5891 34.6385C42.2881 32.4091 45.5101 32.0843 44.409 33.9513C44.007 34.6345 44.9421 33.9642 46.487 32.4617C48.032 30.9602 49.689 29.7308 50.17 29.7308C50.651 29.7308 52.952 28.8807 55.284 27.842C68.58 21.9174 71.381 20.8181 71.888 21.3216C72.196 21.6274 70.799 24.8737 68.784 28.5351C66.7691 32.1966 63.41 38.5442 61.321 42.6406C59.232 46.7369 57.192 50.3338 56.788 50.6347C56.384 50.9346 55.762 52.7221 55.406 54.6069C54.274 60.6001 56.767 56.7212 66.404 37.4955L75.523 19.3037L84.023 15.0981C88.6981 12.7852 93.4021 10.2152 94.4761 9.38796C95.551 8.56074 96.9011 7.87354 97.4761 7.86163C98.052 7.84971 99.648 6.96589 101.023 5.89736C102.398 4.82882 103.748 3.945 104.023 3.93308C104.298 3.92117 114.423 8.77425 126.523 14.7187ZM105.023 9.63325C105.023 10.2311 104.389 11.3512 103.613 12.1209C100.945 14.7703 91.272 36.709 88.444 46.5244C86.843 52.0816 83.7681 60.7192 81.618 65.6974C79.6141 70.335 79.606 71.6707 81.583 71.2635C82.638 71.047 85.528 64.0211 90.499 49.592C98.529 26.2829 102.114 16.5946 102.994 15.828C104.091 14.8726 106.093 9.60842 105.56 9.07912C105.265 8.78617 105.023 9.03542 105.023 9.63325ZM88.7391 17.0693C84.6961 22.0634 83.057 25.2451 78.385 37.1787C76.46 42.0944 73.745 49.021 72.3521 52.5712C70.9591 56.1214 69.4151 59.4501 68.9211 59.9695C67.5611 61.3975 67.846 63.4948 69.4 63.4948C70.9501 63.4948 73.3771 58.2356 77.8801 45.1232C82.828 30.7149 87.1451 21.2947 91.648 15.0832C94.468 11.1914 92.3 12.672 88.7391 17.0693ZM116.308 17.9342C112.366 25.986 106.023 40.3357 106.023 41.2036C106.023 41.5174 104.898 44.2175 103.523 47.2027C102.148 50.1878 101.023 52.8304 101.023 53.0766C101.023 54.0101 92.413 71.057 90.758 73.3986C88.9051 76.0203 88.437 79.3838 89.924 79.3838C91.29 79.3838 101.023 62.327 101.023 59.9347C101.023 59.6 101.667 57.9178 102.453 56.1968C103.24 54.4759 105.067 49.9396 106.513 46.1163C109.142 39.1688 110.199 36.5998 116.039 22.9671C119.473 14.9491 119.682 11.0444 116.308 17.9342ZM119.828 45.5502C113.395 58.4243 107.835 69.7382 107.471 70.6945C106.263 73.8673 109.491 72.5833 111.215 69.2049C113.357 65.0092 121.17 48.5016 124.024 42.144C125.25 39.4131 127.588 34.4061 129.22 31.0178C130.852 27.6295 132.038 24.2471 131.855 23.5003C131.672 22.7545 126.26 32.6772 119.828 45.5502ZM56.142 30.3951C52.792 34.0198 46.702 45.7866 45.436 51.0816C44.726 54.0498 44.731 54.0538 46.836 52.2027C47.997 51.1809 49.473 48.7231 50.116 46.7409C50.758 44.7588 51.616 42.6902 52.023 42.144C52.43 41.5979 53.274 39.572 53.899 37.6415C54.524 35.711 56.351 32.702 57.959 30.9532C59.5671 29.2055 60.549 27.5709 60.142 27.3216C59.735 27.0714 57.935 28.4547 56.142 30.3951ZM142.48 30.8976C142.08 32.1678 141.476 33.4299 141.137 33.703C140.373 34.3187 136.023 43.1043 136.023 44.0318C136.023 44.4042 134.673 47.5771 133.023 51.0816C131.373 54.5861 130.023 57.6715 130.023 57.9387C130.023 58.2048 128.448 61.0916 126.523 64.3538C122.469 71.2228 122.084 73.0014 124.984 71.4602C126.976 70.4016 132.715 59.315 135.019 52.0746C135.715 49.8899 136.616 47.6555 137.023 47.1093C137.43 46.5632 138.316 44.3288 138.992 42.144C139.668 39.9593 141.129 36.2492 142.237 33.8997C143.345 31.5501 144.017 29.3931 143.729 29.1071C143.441 28.8221 142.879 29.6275 142.48 30.8976ZM157.023 35.5601C157.023 36.0993 156.445 37.1311 155.739 37.853C151.809 41.87 147.346 52.3368 149.958 51.4123C151.429 50.8919 158.804 35.6723 157.865 35.0953C157.402 34.8113 157.023 35.0198 157.023 35.5601ZM40.8881 38.6117C40.1441 40.2811 39.267 41.6475 38.939 41.6475C37.99 41.6475 35.6301 49.5324 36.361 50.2593C36.725 50.6208 37.023 50.1282 37.023 49.166C37.023 48.2037 38.39 44.9435 40.06 41.9206C41.731 38.8987 42.905 36.2343 42.669 36C42.434 35.7666 41.632 36.9414 40.8881 38.6117ZM169.102 39.0715C169.059 40.1122 167.917 42.4032 166.566 44.1619C163.922 47.6049 164.166 49.1243 167.111 47.5592C168.986 46.5622 170.635 40.7826 169.703 38.4737C169.388 37.6931 169.15 37.9305 169.102 39.0715ZM2.22305 49.7906C0.148049 51.8512 0.805048 56.9873 3.46005 59.464C5.22305 61.1085 5.65405 62.186 5.01805 63.3608C0.581049 71.5654 -1.72195 92.5984 1.52305 95.2727C3.29605 96.7345 3.29005 96.7623 3.04805 87.7165C2.84605 80.1901 3.83405 71.4403 4.88705 71.4383C5.23705 71.4373 5.37405 73.8117 5.19105 76.7154C4.80705 82.8337 7.51805 93.2866 9.48905 93.2866C10.843 93.2866 10.682 92.0671 8.17505 83.356C7.62505 81.4444 7.02805 76.0818 6.84905 71.4393L6.52305 62.9983L10.773 62.6934C14.647 62.4144 15.022 62.1502 15.016 59.7142C15 52.8651 6.08805 45.9524 2.22305 49.7906ZM9.02305 56.1055C9.02305 57.5682 7.83205 58.0082 6.75905 56.9426C5.85705 56.0479 7.09805 53.4937 8.12805 54.1253C8.62005 54.4272 9.02305 55.318 9.02305 56.1055ZM157.675 65.9417C157.391 66.6776 155.778 67.5813 154.091 67.9487C152.403 68.3171 151.023 69.0818 151.023 69.6478C151.023 70.6548 152.671 70.4333 156.353 68.9328C157.911 68.2973 158.134 68.6111 157.853 71.054C157.585 73.3817 156.488 74.4721 152.033 76.8435C147.535 79.2368 145.005 79.8455 138.033 80.213C128.125 80.7353 129.677 82.1832 140.262 82.2934C144.619 82.3381 148.773 81.6946 152.012 80.4722C155.783 79.0491 157.023 78.8982 157.023 79.8614C157.023 82.7115 151.35 84.6808 136.59 86.9549L121.523 89.2756L134.523 88.8228C146.404 88.4077 150.282 87.8496 155.273 85.8357C156.712 85.2547 157.023 85.6669 157.023 88.1565C157.023 89.8208 156.584 91.4524 156.048 91.7811C154.032 93.0195 139.14 95.4872 129.023 96.2598C119.523 96.9858 120.19 97.0404 136.023 96.8408C145.648 96.7196 154.31 96.2688 155.273 95.8398C156.469 95.3065 157.013 95.4862 156.992 96.4078C156.899 100.368 142.727 105.156 130.668 105.302L122.523 105.4L127.023 106.807C131.739 108.283 135.759 108.04 146.48 105.629C149.756 104.893 152.587 104.44 152.771 104.621C153.366 105.213 143.689 109.826 137.269 112.012C133.829 113.183 129.412 114.141 127.453 114.141C123.482 114.141 119.677 115.761 120.508 117.097C121.484 118.665 109.854 119.605 90.913 119.488C68.851 119.352 64.497 118.796 60.551 115.616C57.688 113.306 57.669 113.24 60.051 113.823C61.411 114.156 63.156 114.921 63.93 115.525C64.87 116.26 72.99 116.604 88.43 116.562C107.188 116.512 112.837 116.168 118.523 114.725C125.327 112.999 128.023 111.706 128.023 110.171C128.023 109.758 125.211 110.045 121.773 110.809C108.005 113.864 102.396 114.279 84.023 113.604C64.479 112.885 60.973 112.077 56.618 107.295C54.413 104.874 54.42 104.871 59.03 106.245C61.25 106.907 66.5311 107.018 73.523 106.548C81.494 106.013 83.5591 105.631 81.023 105.165C79.098 104.81 89.314 104.339 103.725 104.117C123.489 103.813 130.245 103.396 131.225 102.419C132.292 101.355 127.003 101.216 101.523 101.637C78.597 102.017 71.89 101.882 75.773 101.118C78.661 100.551 81.023 99.6263 81.023 99.0632C81.023 98.5002 80.33 98.3036 79.482 98.6263C76.763 99.663 63.0331 97.2082 58.709 94.9132C51.98 91.3412 49.023 89.1743 49.023 87.8158C49.023 86.8824 51.021 87.1763 56.561 88.9231C64.15 91.3164 80.023 92.3512 80.023 90.4534C80.023 89.9867 76.624 89.3203 72.47 88.9718C61.778 88.074 50.4201 84.4812 49.076 81.5715C47.7401 78.6787 47.706 73.4254 49.023 73.4254C49.573 73.4254 50.023 73.774 50.023 74.199C50.023 75.8693 63.722 81.3689 67.6021 81.2557L71.523 81.1415L68.023 80.4374C61.067 79.0362 48.023 70.7491 48.023 67.7302C48.023 64.7918 57.869 69.6011 75.926 81.36C80.548 84.3689 85 87.2786 85.82 87.8248C86.639 88.371 89.158 90.4782 91.417 92.5071C99.077 99.388 98.559 99.4327 110.181 90.8784C115.869 86.6917 121.316 82.6162 122.284 81.8217C123.253 81.0273 124.23 80.3768 124.455 80.3768C124.821 80.3768 139.249 71.8425 143.023 69.3936C143.848 68.8583 146.098 67.7084 148.023 66.8394C149.948 65.9695 151.748 64.9606 152.023 64.5971C152.298 64.2337 153.648 63.4511 155.023 62.8573C157.669 61.7143 158.8 63.0311 157.675 65.9417ZM10.47 66.9705C12.134 73.341 13.023 80.6479 13.023 87.9598C13.023 94.6809 13.309 96.2658 14.523 96.2658C17.824 96.2658 15.941 76.4314 11.908 68.7233C10.832 66.6666 10.185 65.8782 10.47 66.9705ZM13.023 66.2754C13.023 66.7123 13.52 67.5634 14.127 68.1662C15.606 69.6349 17.944 80.7373 17.988 86.502C18.028 91.7633 18.766 94.2797 20.269 94.2797C20.938 94.2797 21.123 91.1813 20.794 85.4514C20.387 78.3679 19.725 75.5228 17.446 71.052C14.91 66.0798 13.023 64.041 13.023 66.2754ZM65.523 99.9193C69.167 100.546 69.301 100.671 67.023 101.316C65.428 101.769 65.1571 102.062 66.273 102.125C69.1711 102.289 68.2391 104.212 65.273 104.188C60.0891 104.148 50.023 98.1059 50.023 95.0354C50.023 93.9798 51.467 94.3303 55.773 96.4287C58.9361 97.9699 63.323 99.5399 65.523 99.9193ZM91.273 122.803C89.486 123.024 86.5601 123.024 84.773 122.803C82.986 122.584 84.4481 122.403 88.023 122.403C91.598 122.403 93.0601 122.584 91.273 122.803Z" fill="black"/>
</svg>
