<svg width="371" height="243" viewBox="0 0 371 243" fill="none" xmlns="http://www.w3.org/2000/svg">
<g clip-path="url(#clip0_42_900)">
<path d="M319.679 124.82L317.581 272.138C317.581 272.138 317.102 280.465 316.949 281.35C316.797 282.243 310.132 299.696 309.719 300.502C309.312 301.308 265.252 387.366 265.252 387.366L260.722 390.423L12.5606 376.179C12.5606 376.179 1.88651 377.043 1.88651 360.287C1.88651 343.524 1.57867 361.732 1.57867 361.732L1.88651 201.405L5.22165 193.354L85.1172 114.228L87.987 112.834C131.634 115.397 180.203 115.136 223.849 117.706C257.433 119.68 286.095 124.479 319.679 126.454" fill="#E3F7F7"/>
<path d="M256.816 393C256.511 393 256.206 392.985 255.901 392.971L12.3628 376.237C5.43038 375.765 0 369.95 0 363.002V201.405C0 197.862 1.38009 194.53 3.88764 192.025L80.9482 114.962C83.455 112.457 86.7881 111.07 90.3338 111.07L90.4449 111.078L127.133 113.248L126.915 117.016L90.28 114.846C87.7631 114.86 85.3978 115.847 83.6162 117.633L6.55494 194.69C4.76102 196.483 3.77293 198.871 3.77293 201.405V363.002C3.77293 367.975 7.65991 372.135 12.622 372.476L256.162 389.203C259.589 389.443 262.878 387.802 264.758 384.927L310.807 294.193C313.878 288.131 315.562 281.336 315.657 274.534L317.791 126.425L321.559 126.483L319.432 274.592C319.323 281.96 317.501 289.329 314.168 295.907L268.039 386.807L267.981 386.887C265.535 390.713 261.317 393 256.816 393Z" fill="#020403"/>
<path d="M152.811 210.98C161.842 210.959 170.866 211.104 179.883 211.336L186.649 211.503L193.415 211.721L200.174 211.946C202.432 212.019 204.683 212.12 206.933 212.215L220.451 212.774C224.959 212.984 229.46 213.202 233.962 213.442C242.971 213.906 251.973 214.414 260.976 215.002L259.349 215.881C261.977 211.438 264.576 206.987 267.226 202.552C269.891 198.13 272.519 193.695 275.212 189.288L279.249 182.681C280.599 180.482 281.971 178.297 283.336 176.104C284.694 173.904 286.073 171.726 287.46 169.541C288.832 167.363 290.233 165.185 291.641 163.022C290.487 165.338 289.325 167.646 288.142 169.94C286.959 172.235 285.783 174.529 284.57 176.815C283.372 179.095 282.182 181.389 280.962 183.662L277.31 190.493C274.878 195.045 272.381 199.561 269.92 204.098C267.437 208.621 264.91 213.122 262.413 217.638L261.897 218.567L260.787 218.516C251.777 218.146 242.768 217.689 233.766 217.188C229.257 216.948 224.756 216.679 220.255 216.404L206.759 215.525C204.508 215.373 202.258 215.242 200.007 215.075L193.263 214.574L186.511 214.066L179.767 213.514C170.779 212.781 161.791 211.968 152.811 210.98Z" fill="#020403"/>
<path d="M262.609 217.935L260.722 338.536L258.834 217.935H262.609Z" fill="#020403"/>
<path d="M0.690735 197.201C0.766237 197.005 0.884593 196.802 1.03778 196.628C1.16845 196.461 1.41818 196.279 1.50095 196.236C1.60549 196.17 1.71733 196.12 1.83204 196.076C1.8814 196.054 1.9634 196.025 1.98808 196.018L2.05636 196.003L2.19425 195.974C2.30533 195.953 2.32061 195.953 2.38305 195.945L2.52534 195.931C2.68288 195.916 2.80048 195.916 2.91301 195.916C3.13661 195.916 3.32243 195.931 3.51336 195.938C3.88652 195.96 4.23935 195.989 4.59001 196.018C5.28986 196.083 5.9745 196.163 6.65765 196.243C8.0225 196.403 9.37573 196.577 10.7268 196.759C13.4289 197.122 16.1216 197.506 18.8121 197.898C24.1931 198.682 29.5647 199.496 34.9341 200.33C45.6722 201.993 56.4001 203.699 67.1222 205.441C56.3173 204.323 45.5095 203.242 34.6996 202.203C29.2953 201.681 23.8897 201.18 18.4854 200.708C15.7833 200.468 13.0812 200.243 10.3841 200.04C9.03526 199.938 7.68784 199.844 6.3484 199.764C5.67976 199.728 5.0111 199.692 4.35626 199.67C4.03029 199.655 3.70578 199.648 3.40014 199.648C3.25204 199.648 3.09886 199.655 2.9827 199.662C2.92534 199.662 2.87379 199.67 2.86217 199.67C2.84983 199.67 2.87016 199.67 2.87741 199.67L2.94129 199.662L3.0168 199.648L3.05459 199.633C3.06838 199.633 3.141 199.612 3.18093 199.59C3.2753 199.561 3.36823 199.51 3.45317 199.459C3.5265 199.423 3.76967 199.249 3.89309 199.089C4.03901 198.922 4.15012 198.726 4.21836 198.537L0.690735 197.201Z" fill="#020403"/>
<path d="M114.087 158.927L217.627 171.059L220.596 166.514L116.469 154.985L114.087 158.927ZM219.507 175.081L107.825 161.991L114.489 150.971L227.108 163.443L219.507 175.081Z" fill="#020403"/>
<path d="M6.37125 216.367C6.76183 226.938 6.96586 237.508 7.10525 248.086C7.19164 253.371 7.21123 258.656 7.26278 263.941L7.31432 279.797L7.26498 295.66C7.21198 300.945 7.19527 306.23 7.10815 311.515C6.96949 322.085 6.76401 332.663 6.37125 343.233C5.97922 332.663 5.77377 322.085 5.63583 311.515C5.54799 306.23 5.5313 300.945 5.4783 295.66L5.42896 279.797L5.48121 263.941C5.53203 258.656 5.55162 253.371 5.63874 248.086C5.7774 237.508 5.98139 226.938 6.37125 216.367Z" fill="#020403"/>
<path d="M113.188 157.533C88.3788 154.862 50.5702 151.101 48.1033 151.689C48.1055 151.689 48.258 151.653 48.4097 151.5L47.076 150.165C47.5915 149.649 48.1251 149.119 81.0478 152.335C97.1067 153.911 113.229 155.646 113.391 155.66L113.188 157.533Z" fill="#020403"/>
<path d="M285.826 174.013L222.157 169.389L222.295 167.508L285.957 172.133L285.826 174.013Z" fill="#020403"/>
<path d="M312.354 127.543L298.473 151.9L310.684 126.664L312.354 127.543Z" fill="#020403"/>
<path d="M217.293 105.662C217.293 131.434 196.399 152.335 170.627 152.335C144.847 152.335 123.953 131.434 123.953 105.662C123.953 79.8821 144.847 58.9882 170.627 58.9882C196.399 58.9882 217.293 79.8821 217.293 105.662Z" fill="#E8F79F"/>
<path d="M371.55 121.924L332.093 124.436C332.093 124.436 304.288 138.426 263.749 123.18L217.293 118.432C217.293 118.432 175.505 128.501 162.59 107.818C162.59 107.818 152.723 92.5941 173.886 83.7661C173.886 83.7661 196.421 77.0435 208.094 75.7149C208.094 75.7149 180.652 44.6064 139.692 71.163L155.41 29.6511C155.41 29.6511 163.127 21.658 164.383 20.7578C165.639 19.8648 206.911 -3.45389 206.911 -3.45389L217.293 -5.96585L227.26 -4.52834L279.176 8.20542L287.154 11.0731L296.933 23.6326L319.359 50.3199L325.399 54.6468L375.55 47.6119C375.55 47.6119 392.894 89.4578 371.55 121.924Z" fill="#E3F7F7"/>
<path d="M181.364 61.2749L192.007 44.9184L233.512 33.368C233.512 33.368 243.124 36.9035 252.09 50.8932L251.197 73.1956C251.197 73.1956 207.558 77.5442 207.071 76.7238C206.585 75.9107 188.66 60.7086 181.364 61.2749Z" fill="#299092"/>
<path d="M171.759 151.922C146.691 151.922 126.298 131.529 126.298 106.453C126.298 81.3846 146.691 60.9917 171.759 60.9917C183.593 60.9917 195.767 66.4076 204.755 75.5695C202.025 75.8672 198.853 76.2737 195.506 76.8327C193.183 74.8362 190.577 73.1375 187.796 71.7944C186.881 71.3588 185.952 70.9595 185.008 70.5965C184.065 70.2408 183.106 69.9213 182.133 69.6382C180.181 69.0792 178.184 68.6726 176.166 68.4475C174.148 68.2225 172.107 68.1426 170.075 68.2443C169.058 68.2951 168.042 68.3968 167.033 68.5274C166.024 68.6581 165.015 68.8323 164.02 69.0429C162.024 69.4639 160.063 70.0738 158.176 70.8361C157.232 71.2136 156.303 71.6491 155.395 72.1138C154.488 72.5784 153.602 73.0721 152.738 73.6093C149.282 75.7728 146.226 78.517 143.671 81.6315C142.393 83.1924 141.231 84.8476 140.208 86.5754C139.17 88.296 138.291 90.1037 137.522 91.9477C134.451 99.3528 133.645 107.673 135.315 115.586C135.736 117.561 136.324 119.506 137.057 121.401C137.79 123.296 138.69 125.125 139.736 126.875C140.781 128.617 141.972 130.28 143.286 131.841C144.614 133.387 146.052 134.846 147.605 136.175C150.698 138.846 154.248 140.995 158.038 142.549C161.842 144.095 165.9 144.996 169.995 145.213C174.082 145.453 178.22 144.967 182.141 143.856C186.075 142.76 189.814 141.017 193.183 138.752C196.551 136.48 199.543 133.656 201.909 130.374C204.044 127.434 205.663 124.131 206.614 120.661C209.184 120.392 211.848 120.043 214.607 119.615C208.523 143.391 188.631 151.922 171.759 151.922ZM188.094 78.2702C180.471 79.998 174.307 82.2268 169.77 84.8839C163.911 88.3251 160.702 92.5213 160.238 97.3709C160.078 98.2275 158.873 106.017 165.218 112.58C168.979 116.464 174.619 119.092 181.995 120.399C188.653 121.575 196.777 121.677 206.229 120.704C204.973 123.971 203.202 127.006 200.995 129.67C198.519 132.676 195.521 135.231 192.217 137.249C185.618 141.3 177.792 143.297 170.14 142.745C162.488 142.237 155.011 139.34 149.057 134.44C146.081 132 143.482 129.089 141.391 125.837C139.286 122.599 137.667 119.027 136.65 115.266C136.135 113.386 135.786 111.462 135.583 109.509C135.394 107.564 135.336 105.596 135.474 103.643C135.54 102.663 135.648 101.683 135.786 100.718C135.932 99.7448 136.128 98.7793 136.353 97.821C136.796 95.9117 137.427 94.0386 138.197 92.2309C138.973 90.4305 139.917 88.7026 140.984 87.0546C142.052 85.4139 143.271 83.8748 144.6 82.4373C147.257 79.5842 150.35 77.1594 153.725 75.2646C155.395 74.2918 157.152 73.4859 158.945 72.7745C159.846 72.4333 160.76 72.1138 161.675 71.8307C162.597 71.5475 163.534 71.3007 164.47 71.0829C165.407 70.8579 166.358 70.6836 167.316 70.5457C168.267 70.4077 169.225 70.2988 170.191 70.2407C172.115 70.1101 174.06 70.11 175.984 70.2625C176.95 70.3424 177.915 70.4658 178.874 70.6183C179.832 70.7635 180.783 70.9449 181.727 71.17C182.671 71.3951 183.607 71.6637 184.529 71.9613C185.458 72.2517 186.38 72.5784 187.281 72.9487C189.088 73.6892 190.852 74.5531 192.537 75.555C193.285 75.9978 194.018 76.4697 194.737 76.9561C192.566 77.3336 190.33 77.762 188.094 78.2702ZM331.12 123.267L330.939 123.281L330.772 123.347C314.234 129.793 297.42 129.162 286.233 127.507C274.065 125.699 265.716 122.316 265.636 122.279L265.484 122.214L216.61 116.922L216.451 116.943C207.724 118.403 200.421 119.013 194.315 119.013C178.67 119.013 170.844 115.005 166.938 110.99C161.189 105.081 162.488 98.0533 162.546 97.7629L162.561 97.6395C163.425 88.2162 177.189 83.1488 188.58 80.5643C191.571 79.8819 194.555 79.3373 197.372 78.9017C197.379 78.909 197.386 78.909 197.394 78.9163L197.423 78.8945C206.534 77.4788 213.91 77.1812 214.011 77.1739H214.055C214.186 77.1667 226.832 76.143 239.406 75.0831C261.063 73.2463 264.003 72.9124 264.831 72.7164C265.034 72.6656 265.164 72.4696 265.135 72.2663C265.099 72.0557 264.91 71.9395 264.7 71.9323C263.458 71.8887 260.932 71.9541 257.549 72.092L256.903 58.6467L256.249 72.1501C255.037 72.2009 253.737 72.259 252.365 72.3316V50.8279C252.365 50.3633 252.198 49.9132 251.901 49.5574L246.267 42.9291C246.115 42.7476 245.839 42.7259 245.657 42.8856C245.498 43.0163 245.461 43.2486 245.57 43.4301L249.723 50.4576C249.919 50.7916 250.028 51.1764 250.028 51.5611L249.999 72.4478C244.546 72.7382 238.18 73.1156 231.755 73.544L245.389 65.9429C245.541 65.8558 245.599 65.6671 245.512 65.5146C245.432 65.3694 245.258 65.3113 245.105 65.3766L226.281 73.9143C221.976 74.2119 217.758 74.524 213.895 74.8362C213.619 74.8507 211.267 74.9524 207.695 75.2791C206.149 73.5803 204.494 71.9976 202.759 70.5311L217.997 56.6213C218.469 56.1857 218.992 55.8009 219.551 55.4742L227.079 51.0166C227.253 50.915 227.312 50.6827 227.21 50.5084C227.115 50.3487 226.919 50.2834 226.753 50.3487L218.498 54.632C217.721 54.4941 216.923 54.2981 216.146 54.073C215.296 53.8262 214.462 53.5358 213.641 53.2018C212.821 52.8533 212.03 52.4541 211.267 51.9967C210.512 51.5176 209.801 50.9658 209.169 50.3197C209.714 51.0457 210.36 51.6918 211.057 52.2799C211.775 52.8534 212.538 53.3616 213.322 53.8262C214.12 54.2836 214.948 54.6974 215.79 55.0676C216.189 55.2419 216.603 55.4088 217.01 55.5613C216.901 55.6484 216.785 55.7355 216.676 55.8299L214.861 57.3545C214.723 57.3327 214.578 57.3109 214.433 57.2819C214.084 57.2238 213.736 57.1367 213.387 57.0569C212.69 56.8681 212 56.6575 211.325 56.3962C209.975 55.888 208.661 55.2419 207.449 54.4288C206.236 53.6229 205.067 52.7155 204.051 51.6483C203.514 51.1473 203.064 50.5665 202.577 50.0003C202.33 49.7244 202.134 49.4122 201.917 49.1145L201.27 48.2071L201.844 49.1581C202.04 49.4776 202.207 49.8115 202.439 50.1092C202.875 50.7045 203.289 51.3361 203.797 51.8878C204.741 53.0494 205.851 54.0731 207.042 55.0023C208.233 55.9389 209.539 56.7156 210.919 57.369C211.601 57.6957 212.313 57.9789 213.039 58.233C213.227 58.291 213.416 58.3564 213.605 58.4145L200.936 69.0646C195.68 65.0136 189.756 62.0298 183.622 60.3165C183.869 59.9608 184.166 59.5252 184.5 59.0243C185.408 57.6739 186.656 55.7864 188.21 53.4124C190.192 50.3923 192.174 47.3359 193.052 45.9783C193.205 45.7532 193.43 45.5863 193.691 45.5137L234.557 34.0721C234.804 34.0067 234.949 33.7454 234.884 33.4986C234.818 33.2518 234.564 33.1065 234.317 33.1646L192.232 43.5027C192.101 43.5317 191.985 43.5898 191.876 43.6624C191.738 43.5898 191.6 43.5172 191.462 43.4518C190.874 43.1397 190.293 42.813 189.727 42.4645C188.595 41.7676 187.491 40.998 186.46 40.1486C185.422 39.2992 184.42 38.3917 183.505 37.4044C182.569 36.4316 181.734 35.3644 180.928 34.2754C181.64 35.4297 182.38 36.5767 183.244 37.6294C184.079 38.7111 185.008 39.713 185.996 40.6713C186.976 41.6296 188.028 42.5153 189.139 43.3357C189.691 43.7495 190.264 44.1415 190.845 44.5191C190.932 44.5699 191.019 44.6207 191.107 44.6788C187.636 50.0366 182.518 57.8627 181.197 59.7067C178.068 59.017 174.903 58.6467 171.759 58.6467C163.272 58.6467 155.301 60.8756 148.382 64.7668L148.644 63.9827L149.987 59.968L152.745 51.9532C154.604 46.6172 156.477 41.2812 158.365 35.9452C156.114 41.136 153.878 46.3267 151.656 51.5321L148.346 59.3437L146.72 63.2713L145.921 65.2532C145.79 65.5799 145.66 65.9139 145.529 66.2551C145.493 66.364 145.449 66.4729 145.413 66.5818C144.556 67.1553 143.714 67.7506 142.894 68.3749C147.141 53.5067 152.252 41.4191 155.911 33.6946C159.033 27.1172 164.027 21.7376 170.358 18.144L204.741 -1.39236C210.215 -4.49959 216.603 -5.42885 222.738 -4.00591L275.575 8.2851C281.347 9.62817 286.45 12.7064 290.32 17.1784L319.054 51.0094C321.465 53.8408 325.087 55.2201 328.768 54.6974L375.602 48.0183L375.275 45.6952L328.434 52.3742C325.559 52.7881 322.721 51.7136 320.84 49.4993L292.099 15.6611C287.895 10.797 282.363 7.45744 276.105 6.00546L223.268 -6.28546C216.56 -7.84634 209.576 -6.82997 203.586 -3.43236L169.204 16.1039C162.452 19.9444 157.123 25.6797 153.798 32.6927C149.834 41.0488 144.186 54.4723 139.736 70.9885C130.051 79.7439 123.953 92.3978 123.953 106.453C123.953 132.814 145.398 154.266 171.759 154.266C182.409 154.266 192.232 151.225 200.152 145.475C208.617 139.34 214.454 130.309 217.09 119.325L264.903 124.508C266.145 125.002 274.167 128.073 285.826 129.808C290.196 130.461 295.402 130.962 301.115 130.962C310.372 130.962 320.949 129.655 331.447 125.597L372.639 123.093L372.502 120.755L331.12 123.267Z" fill="#020403"/>
<path d="M187.252 84.3175C187.39 84.2957 187.484 84.1723 187.477 84.0343C187.477 83.8746 187.332 83.7439 187.165 83.7657C185.176 84.0126 174.09 85.7259 168.877 92.5139C166.278 95.8824 165.589 99.948 166.823 104.573C166.859 104.732 167.861 108.529 172.297 111.84C175.433 114.185 180.849 116.617 189.793 116.617C192.312 116.617 195.107 116.421 198.214 115.978L198.723 115.905L198.81 115.397C198.919 114.707 201.496 98.496 197.321 87.3304C197.263 87.1779 197.089 87.098 196.929 87.1561C196.777 87.2214 196.704 87.3884 196.762 87.5408C200.385 97.2836 197.902 111.803 197.496 114.664C184.239 116.442 176.987 113.546 173.226 110.78C169.139 107.774 168.195 104.268 168.18 104.224C167.106 100.188 167.628 96.652 169.734 93.7117C174.475 87.0907 185.51 84.6587 187.252 84.3175Z" fill="#020403"/>
<path d="M215.994 113.343L215.965 113.35L208.683 114.207L201.401 115.078L201.416 115.223L208.726 114.657L215.994 114.083L225.773 115.288C229.04 115.688 232.306 116.109 235.573 116.53C238.84 116.944 242.122 117.234 245.41 117.488C248.699 117.742 251.988 117.945 255.291 118.011L255.306 117.873C252.068 117.234 248.808 116.733 245.541 116.276C242.274 115.833 239.007 115.412 235.726 115.129C232.444 114.845 229.163 114.555 225.881 114.25L216.037 113.35L215.994 113.343Z" fill="#020403"/>
<path d="M229.069 102.475C228.895 104.261 228.64 106.039 228.299 107.803L228.415 107.832C228.938 106.105 229.316 104.333 229.642 102.555C229.962 100.776 230.18 98.9754 230.288 97.1605C230.347 96.253 230.39 95.3455 230.397 94.4308C230.397 93.516 230.339 92.6013 230.194 91.6938C229.896 89.8861 229.366 88.0784 228.408 86.5103L228.299 86.5538C228.466 87.4468 228.619 88.3253 228.749 89.1964C228.771 89.4215 228.8 89.6393 228.836 89.8571C228.865 90.0749 228.88 90.2999 228.902 90.5177C228.96 90.9533 228.996 91.3962 229.032 91.8318C229.156 93.5886 229.359 95.3455 229.352 97.1315C229.352 98.0244 229.323 98.9101 229.272 99.8031C229.228 100.696 229.156 101.589 229.069 102.475Z" fill="#020403"/>
<path d="M232.568 102.453C232.408 104.231 232.219 106.017 232.023 107.818C232.691 106.126 233.134 104.362 233.475 102.583C233.809 100.798 234.013 98.9826 234.071 97.1676C234.129 95.3454 234.034 93.5086 233.737 91.7082C233.577 90.8079 233.367 89.915 233.098 89.0438C232.808 88.1726 232.466 87.3232 232.023 86.5319C232.227 87.4176 232.408 88.2887 232.532 89.1744C232.677 90.0529 232.749 90.9386 232.822 91.8171C232.945 93.5812 232.96 95.3526 232.902 97.124C232.844 98.9027 232.728 100.674 232.568 102.453Z" fill="#020403"/>
<path d="M225.352 99.3745C225.431 98.6848 225.475 97.9951 225.475 97.3054C225.475 96.6157 225.431 95.926 225.344 95.2364C225.257 94.5467 225.134 93.857 224.887 93.1673C224.647 93.857 224.517 94.5467 224.43 95.2364C224.342 95.926 224.306 96.6157 224.306 97.3054C224.299 97.9951 224.342 98.6848 224.43 99.3745C224.517 100.064 224.647 100.754 224.887 101.436C225.134 100.754 225.257 100.064 225.352 99.3745Z" fill="#020403"/>
</g>
<defs>
<clipPath id="clip0_42_900">
<rect width="382.197" height="400" fill="white" transform="translate(0 -7)"/>
</clipPath>
</defs>
</svg>
