<svg width="435" height="401" viewBox="0 0 435 401" fill="none" xmlns="http://www.w3.org/2000/svg">
<g clip-path="url(#clip0_53_3381)">
<path d="M246.291 367.03L77.2119 248.64C-60.9011 151.939 57.4891 -17.1399 195.602 79.5615C292.841 -59.3095 461.919 59.0807 364.681 197.952L246.291 367.03Z" fill="#299092"/>
<path d="M136.041 127.659C135.853 128.001 170.434 145.827 186.941 109.843C186.941 109.843 195.446 95.8389 196.956 86.106C196.956 86.106 221.94 105.202 243.109 108.78C243.109 108.78 268.023 117.132 275.624 86.5027C275.624 86.5027 256.807 90.0693 246.646 72.5431C246.646 72.5431 238.742 55.629 223.051 51.8309C223.051 51.8309 213.418 25.8831 191.03 34.2475C191.03 34.2475 175.852 38.0619 176.752 56.5879C176.752 56.5879 151.302 52.37 146.622 83.1102C146.622 83.1102 144.486 112.543 136.041 127.659Z" fill="#E8F79F"/>
<path d="M154.695 315.776C154.674 315.652 140.592 318.972 131.202 311.116L133.434 238.199L138.114 226.566L176.705 191.821L190.69 180.687L194.327 178.229C194.327 178.229 190.519 195.317 211.541 197.798C211.541 197.798 225.079 192.253 223.396 182.706L221.853 173.956L274.135 194.969L286.77 200.497L293.178 208.155L296.056 213.452L322.69 276.1C322.69 276.1 312.331 289.722 300.924 288.719L293.659 243.925L283.95 232.462L279.961 231.386L155.943 253.435L152.892 254.727L146.209 267.648L154.695 315.776Z" fill="#E3F7F7"/>
<path d="M160.615 131.98C160.615 131.98 166.083 164.526 193.335 172.979L195.76 189.977C195.76 189.977 203.483 199.409 212.476 196.685C212.476 196.685 221.991 194.818 223.676 185.055L220.976 169.74C220.976 169.74 248.593 155.427 243.104 108.782C243.104 108.782 221.852 104.947 196.951 86.1084C196.951 86.1084 187.712 128.348 160.615 131.98Z" fill="#E3F7F7"/>
<path d="M147.021 269.405L160.203 351.346L162.113 354.997L304.415 329.905L307.94 328.522C307.94 328.522 294.713 244.878 293.656 243.926C292.606 242.973 283.947 232.463 283.947 232.463L279.959 231.388L156.706 253.121L152.89 254.728L146.206 267.65L147.021 269.405Z" fill="#299092"/>
<path d="M176.029 124.929C176.029 124.929 180.609 158.295 199.78 175.031L203.452 195.857C203.452 195.857 197.658 195.612 195.869 188.933L193.335 172.979C193.335 172.979 168.278 166.89 160.615 131.98C160.615 131.98 171.748 129.286 176.029 124.929Z" fill="#299092"/>
<path d="M201.578 195.447C201.578 195.447 183.698 211.255 161.711 204.407L194.164 179.261L195.759 189.976L201.578 195.447Z" fill="#299092"/>
<path d="M132.717 312.272L147.423 330.655L150.547 348.374L158.78 361.552L172.111 356.752L171.289 353.377L162.681 354.096C162.681 354.096 161.3 352.764 161.221 352.484C161.141 352.204 154.688 315.777 154.688 315.777C154.688 315.777 139.672 316.405 132.717 312.272Z" fill="#E3F7F7"/>
<path d="M321.094 278.762L313.57 301.064L316.694 318.784L313.458 333.984L299.289 334.033L298.906 330.58L307.249 328.31C307.249 328.31 308.083 326.588 308.062 326.298C308.041 326.007 301.654 289.569 301.654 289.569C301.654 289.569 315.973 285.031 321.094 278.762Z" fill="#E3F7F7"/>
<path d="M168.084 331.964L162.041 293.459L169.524 331.71L168.084 331.964Z" fill="#020403"/>
<path d="M294.388 311.148L288.343 272.636L295.828 310.894L294.388 311.148Z" fill="#020403"/>
<path d="M180.605 329.29C185.246 328.381 189.897 327.531 194.542 326.644L208.494 324.086C213.143 323.221 217.8 322.407 222.454 321.572L236.417 319.072L250.393 316.645C255.052 315.839 259.707 315.011 264.371 314.233L278.357 311.865C283.025 311.11 287.686 310.318 292.358 309.585C287.716 310.486 283.065 311.337 278.42 312.223L264.468 314.782C259.819 315.646 255.161 316.46 250.507 317.296L236.545 319.796L222.569 322.222C217.91 323.029 213.255 323.857 208.591 324.634L194.605 327.002C189.937 327.758 185.275 328.549 180.605 329.29Z" fill="#020403"/>
<path d="M164.507 349.199L180.975 326.962L165.704 350.043L164.507 349.199Z" fill="#020403"/>
<path d="M182.564 329.442C183.324 333.754 180.446 337.865 176.134 338.625C171.821 339.386 167.711 336.508 166.95 332.195C166.19 327.882 169.068 323.772 173.38 323.011C177.693 322.251 181.804 325.129 182.564 329.442Z" fill="#E8F79F"/>
<path d="M173.477 323.205C169.303 323.941 166.503 327.939 167.239 332.113C167.975 336.287 171.974 339.087 176.148 338.351C180.322 337.615 183.121 333.616 182.385 329.442C181.649 325.269 177.651 322.469 173.477 323.205ZM176.22 338.76C171.819 339.536 167.606 336.586 166.83 332.185C166.054 327.785 169.004 323.571 173.405 322.795C177.805 322.019 182.019 324.97 182.795 329.37C183.571 333.771 180.621 337.984 176.22 338.76Z" fill="#020403"/>
<path d="M181.194 329.653C181.121 329.244 181.005 328.842 180.855 328.461C180.697 328.075 180.504 327.709 180.27 327.366C179.81 326.679 179.203 326.1 178.521 325.655C177.16 324.772 175.476 324.413 173.892 324.707C173.499 324.784 173.111 324.89 172.736 325.032C172.356 325.182 172.002 325.357 171.656 325.576C170.977 325.998 170.376 326.563 169.911 327.218C168.974 328.529 168.555 330.216 168.811 331.836C168.938 332.643 169.22 333.43 169.652 334.13C170.092 334.829 170.674 335.435 171.352 335.903C171.687 336.138 172.053 336.33 172.435 336.489C172.81 336.649 173.207 336.767 173.606 336.847C174.41 337.007 175.238 336.997 176.032 336.842C176.425 336.765 176.82 336.65 177.193 336.501C177.567 336.36 177.934 336.175 178.273 335.957C178.361 335.903 178.443 335.851 178.53 335.791C178.611 335.739 178.69 335.672 178.77 335.613C178.85 335.553 178.928 335.487 179.008 335.427C179.087 335.361 179.165 335.287 179.236 335.221C179.535 334.95 179.814 334.652 180.057 334.323C180.545 333.672 180.911 332.921 181.115 332.116C181.211 331.715 181.267 331.306 181.283 330.888C181.301 330.478 181.266 330.062 181.194 329.653ZM181.237 329.645C181.31 330.055 181.345 330.47 181.344 330.893C181.342 331.308 181.296 331.73 181.217 332.136C181.054 332.964 180.743 333.765 180.272 334.473C180.04 334.823 179.769 335.165 179.466 335.46C179.389 335.534 179.313 335.615 179.234 335.682C179.157 335.755 179.071 335.823 178.992 335.89C178.906 335.958 178.827 336.025 178.733 336.087C178.646 336.147 178.558 336.208 178.471 336.268C177.754 336.734 176.934 337.044 176.093 337.185C175.248 337.311 174.383 337.276 173.556 337.075C173.146 336.974 172.743 336.826 172.364 336.644C171.979 336.471 171.617 336.256 171.273 336.015C169.904 335.043 168.908 333.545 168.584 331.876C168.422 331.046 168.413 330.181 168.588 329.336C168.757 328.499 169.106 327.699 169.593 326.995C170.078 326.284 170.702 325.677 171.426 325.21C172.149 324.736 172.968 324.425 173.816 324.276C174.666 324.134 175.543 324.152 176.377 324.352C177.21 324.544 178.001 324.925 178.685 325.43C179.364 325.943 179.937 326.588 180.365 327.304C180.579 327.666 180.766 328.04 180.911 328.437C181.055 328.826 181.165 329.236 181.237 329.645Z" fill="#020403"/>
<path d="M137.43 126.946C140.609 128.775 152.048 134.446 164.539 129.922C178.176 124.977 188.752 109.855 195.965 84.9764L196.002 84.8418C196.234 84.0623 197.176 83.7679 197.802 84.2831L197.909 84.3773C197.998 84.4521 207.159 91.9944 219.085 98.5064C229.968 104.441 245.441 110.72 257.38 106.919C265.003 104.497 270.432 98.1808 273.536 88.1291C271.563 88.3941 268.309 88.5381 264.418 87.6264C258.629 86.2579 250.245 82.1813 243.239 70.4904L243.177 70.3958L243.143 70.2887C243.103 70.1902 239.003 59.5472 228.064 54.7002C220.01 51.1306 209.769 50.2004 198.638 54.4845C198.384 54.582 198.106 54.4577 198.001 54.2049C197.903 53.9508 198.025 53.658 198.287 53.5591C206.546 50.3466 214.125 49.2137 220.91 50.1654C219.322 46.3753 218.084 44.8676 216.051 42.3997C215.85 42.1562 215.639 41.8995 215.426 41.6355C209.565 34.4686 200.178 31.9708 191.51 35.2628C184.658 37.8654 177.491 44.6238 177.942 55.7746C177.963 56.3211 177.996 56.6319 177.997 56.6392L178.147 58.0449L176.734 57.985C168.517 57.6325 161.814 59.8847 156.811 64.6787C146.979 74.1077 146.868 90.3172 146.865 90.4759L146.867 90.5735L146.852 90.6591C143.736 111.325 138.932 123.493 137.43 126.946ZM160.196 133.59C153.909 134.698 148.247 133.707 144.268 132.509C138.814 130.863 135.336 128.536 135.19 128.434L134.318 127.849L134.777 126.902C134.838 126.778 140.841 114.142 144.43 90.3853C144.446 88.8524 144.846 72.7805 155.128 62.9177C160.345 57.9203 167.194 55.4312 175.493 55.5205C175.358 50.3512 176.786 45.4944 179.63 41.4503C182.333 37.6273 186.142 34.6945 190.649 32.9877C200.313 29.3165 210.777 32.1069 217.31 40.09C217.523 40.3613 217.733 40.6107 217.934 40.8541C220.276 43.7048 221.724 45.4619 223.74 50.699C225.587 51.1271 227.366 51.7254 229.083 52.4854C240.476 57.554 244.883 68.0599 245.378 69.3293C250.619 78.0226 257.163 83.3733 264.845 85.222C270.591 86.6057 274.872 85.4062 274.916 85.3984L276.989 84.7993L276.436 86.8791C273.207 98.8747 267.042 106.399 258.115 109.246C252.434 111.055 245.631 110.943 237.88 108.918C231.757 107.322 225.031 104.528 217.884 100.625C208.533 95.5132 200.852 89.7826 197.793 87.3901C190.352 112.045 179.436 127.122 165.336 132.223C163.592 132.847 161.877 133.293 160.196 133.59Z" fill="#020403"/>
<path d="M209.521 177.382C207.686 177.705 205.787 177.663 203.933 177.237C194.594 175.1 186.437 171.413 179.708 166.291C174.309 162.178 169.812 157.144 166.335 151.321C160.419 141.405 159.538 132.734 159.504 132.371L161.929 132.147C161.936 132.228 162.807 140.712 168.484 150.173C176.067 162.825 188.181 171.128 204.479 174.864C207.252 175.498 210.144 175.101 212.619 173.753C223.448 167.841 247.972 149.709 241.903 108.963L244.312 108.606C247.037 126.923 244.073 142.852 235.491 155.95C228.305 166.917 218.807 173.152 213.788 175.891C212.446 176.617 211.005 177.12 209.521 177.382Z" fill="#020403"/>
<path d="M211.958 198.079C211.607 198.141 211.246 198.19 210.883 198.224C202.937 198.939 196.591 192.234 195.897 191.46C194.999 190.472 194.397 189.237 194.163 187.906L191.456 172.556L193.854 172.133L196.56 187.484C196.715 188.361 197.107 189.174 197.696 189.823C199.923 192.28 205.161 196.293 210.659 195.798C214.693 195.426 218.303 192.732 221.392 187.763C222.249 186.383 222.573 185.06 222.354 183.817L219.894 169.863L222.291 169.44L224.752 183.395C225.073 185.215 224.628 187.178 223.458 189.049C220.211 194.272 216.344 197.306 211.958 198.079Z" fill="#020403"/>
<path d="M161.009 361.847C159.532 362.107 158.023 361.454 157.212 360.149L150.698 349.706C150.028 348.641 149.565 347.471 149.317 346.234L146.495 332.026C146.416 331.663 146.256 331.314 146.017 331.025L129.579 311.063L131.759 242.558C132.038 233.796 135.971 225.452 142.556 219.663C150.803 212.405 162.796 201.939 173.033 193.313C191.735 177.557 193.032 177.644 193.894 177.703L193.727 180.13C193.849 180.138 193.921 180.118 193.921 180.118C193.006 180.362 186.716 184.057 144.159 221.491C138.085 226.835 134.454 234.545 134.192 242.634L132.038 310.223L147.9 329.479C148.389 330.072 148.728 330.796 148.884 331.552L151.704 345.752C151.895 346.706 152.249 347.601 152.763 348.422L159.276 358.858C159.592 359.368 160.21 359.583 160.773 359.401L169.275 356.575C169.823 356.396 170.183 355.872 170.158 355.304L170.076 353.427L172.516 353.328L172.59 355.199C172.663 356.852 171.61 358.364 170.044 358.889L161.542 361.707C161.364 361.769 161.184 361.816 161.009 361.847Z" fill="#020403"/>
<path d="M312.153 334.562C312.051 334.58 311.94 334.592 311.836 334.602L300.502 335.553C298.995 335.683 297.584 334.779 297.062 333.356L296.394 331.537L298.681 330.696L299.35 332.523C299.494 332.912 299.884 333.16 300.3 333.124L311.634 332.173C312.042 332.139 312.375 331.847 312.463 331.447L314.902 320.058C315.009 319.557 315.024 319.041 314.957 318.533L312.985 304.183C312.864 303.33 312.95 302.448 313.229 301.638L321.588 277.319L294.928 213.921C291.944 206.828 286.134 201.106 278.988 198.236L221.399 175.084L222.305 172.829L279.901 195.98C287.64 199.092 293.933 205.286 297.173 212.975L324.197 277.236L315.532 302.43C315.379 302.887 315.33 303.378 315.392 303.857L317.37 318.198C317.48 318.993 317.447 319.79 317.284 320.572L314.844 331.954C314.555 333.309 313.491 334.326 312.153 334.562Z" fill="#020403"/>
<path d="M148.947 267.646C148.136 267.79 147.601 268.562 147.743 269.366L162.351 352.209C162.492 353.013 163.259 353.557 164.07 353.413L304.954 328.572C305.758 328.43 306.3 327.656 306.158 326.852L291.551 244.009C291.409 243.205 290.635 242.663 289.831 242.805L148.947 267.646ZM305.377 330.97L164.493 355.811C162.366 356.186 160.328 354.759 159.953 352.632L145.346 269.789C144.97 267.662 146.397 265.624 148.525 265.249L289.408 240.407C291.535 240.032 293.573 241.459 293.948 243.586L308.556 326.429C308.931 328.557 307.504 330.594 305.377 330.97Z" fill="#020403"/>
<path d="M147.51 269.258L145.296 268.247L151.108 255.555C151.946 253.726 153.63 252.419 155.611 252.07C155.618 252.068 155.626 252.067 155.633 252.066L280.19 230.51C282.421 230.124 284.67 230.994 286.062 232.776L292.917 241.562L290.996 243.061L284.148 234.274C283.303 233.202 281.951 232.672 280.606 232.909L156.05 254.472C156.043 254.473 156.043 254.473 156.035 254.475C154.844 254.685 153.828 255.467 153.321 256.566L147.51 269.258Z" fill="#020403"/>
<path d="M149.317 128.063C149.012 127.996 149.076 127.547 149.381 127.569C149.481 127.581 149.58 127.587 149.679 127.592C150.812 127.648 151.943 127.652 153.064 127.553C154.184 127.453 155.306 127.316 156.392 127.064C157.492 126.847 158.566 126.53 159.629 126.184C161.743 125.48 163.767 124.52 165.683 123.375C167.601 122.238 169.409 120.91 171.123 119.477C174.519 116.549 177.576 113.199 180.298 109.568C182.42 106.774 184.367 103.838 186.258 100.837C186.422 100.574 186.822 100.79 186.698 101.068C185.236 104.318 183.521 107.462 181.547 110.456C180.903 111.421 180.216 112.356 179.54 113.305L178.461 114.671C178.097 115.127 177.74 115.582 177.341 116.014L176.177 117.319C175.99 117.541 175.777 117.744 175.573 117.954L174.959 118.574C174.15 119.418 173.252 120.179 172.381 120.966C170.579 122.459 168.658 123.831 166.599 124.978C164.54 126.125 162.343 127.047 160.067 127.644C157.793 128.256 155.433 128.552 153.087 128.498L152.213 128.456C151.924 128.44 151.632 128.408 151.341 128.384C151.051 128.36 150.763 128.313 150.477 128.273C150.185 128.241 149.896 128.179 149.614 128.123C149.513 128.103 149.411 128.084 149.317 128.063Z" fill="#020403"/>
<path d="M181.005 57.3379C180.825 56.6989 180.719 56.0544 180.649 55.4033C180.564 54.7476 180.554 54.0936 180.543 53.4323C180.544 53.1004 180.562 52.7731 180.578 52.4386C180.596 52.1114 180.636 51.7803 180.668 51.4505C180.731 50.7836 180.866 50.1343 181.006 49.4765C181.584 46.8571 182.811 44.3269 184.599 42.2404C184.826 41.9893 185.05 41.7236 185.286 41.4786L186.026 40.7601C186.28 40.5344 186.552 40.3208 186.815 40.1011C187.076 39.8741 187.359 39.6811 187.641 39.488C188.189 39.0899 188.786 38.7585 189.376 38.4284C189.68 38.2693 189.986 38.1249 190.293 37.9878L190.754 37.7784C190.908 37.7135 191.065 37.6633 191.228 37.6044C193.734 36.6424 196.392 36.2416 198.986 36.4174L199.004 36.5649C198.383 36.6745 197.752 36.7707 197.133 36.8949L196.206 37.111C195.894 37.181 195.581 37.2438 195.283 37.3491C194.675 37.5317 194.061 37.6852 193.471 37.925C193.174 38.0376 192.876 38.1429 192.58 38.2629L191.715 38.6566C191.568 38.7202 191.429 38.7825 191.283 38.8535L190.87 39.077C190.588 39.2322 190.304 39.3728 190.039 39.54C189.503 39.8757 188.958 40.2054 188.463 40.6018C187.45 41.3533 186.516 42.2114 185.709 43.1904C184.064 45.1083 182.853 47.387 182.121 49.815C181.754 51.0254 181.491 52.2701 181.328 53.5274C181.158 54.7859 181.088 56.057 181.153 57.3194L181.005 57.3379Z" fill="#020403"/>
<path d="M186.081 188.02C186.556 189.346 187.156 190.612 187.824 191.836C188.492 193.06 189.235 194.24 190.057 195.354C190.885 196.459 191.779 197.515 192.743 198.49C193.732 199.439 194.733 200.371 195.85 201.153C196.955 201.946 198.12 202.653 199.328 203.261C200.549 203.86 201.817 204.345 203.112 204.719C205.704 205.483 208.424 205.78 211.113 205.638C211.454 205.608 211.792 205.601 212.125 205.565L213.129 205.448L214.125 205.28C214.462 205.228 214.786 205.141 215.121 205.074C216.434 204.782 217.725 204.366 218.977 203.859C221.48 202.837 223.798 201.366 225.84 199.566C226.855 198.656 227.778 197.649 228.638 196.585C229.506 195.52 230.253 194.371 230.875 193.154C232.149 190.72 232.833 187.977 233.046 185.166C233.27 187.975 232.833 190.879 231.743 193.551C230.64 196.225 228.921 198.616 226.886 200.67C225.854 201.697 224.728 202.619 223.523 203.442C222.318 204.257 221.044 204.979 219.699 205.563C217.024 206.721 214.142 207.432 211.221 207.578C205.387 207.921 199.426 206.04 194.925 202.357C194.65 202.126 194.369 201.897 194.093 201.659L193.306 200.916C193.171 200.789 193.037 200.67 192.909 200.541L192.538 200.147C192.296 199.888 192.046 199.623 191.81 199.356C190.877 198.254 190.024 197.093 189.269 195.885C188.531 194.65 187.878 193.386 187.338 192.072C186.797 190.758 186.347 189.405 186.081 188.02Z" fill="#020403"/>
<path d="M137.267 229.465C137.432 229.888 137.617 230.338 137.801 230.78C137.984 231.223 138.175 231.664 138.38 232.103C138.769 232.984 139.194 233.851 139.625 234.717C140.496 236.448 141.449 238.134 142.478 239.784C143.493 241.437 144.631 243.015 145.835 244.544L146.764 245.669C147.08 246.05 147.419 246.39 147.747 246.754L148.242 247.292C148.409 247.474 148.589 247.638 148.763 247.811L149.824 248.83L148.663 247.927C148.477 247.771 148.27 247.627 148.091 247.462L147.537 246.972C147.17 246.645 146.79 246.327 146.435 245.983L145.379 244.948C144.006 243.532 142.69 242.053 141.478 240.481C140.268 238.915 139.115 237.294 138.044 235.622C137.505 234.79 136.986 233.939 136.48 233.079C136.23 232.648 135.981 232.217 135.745 231.776C135.5 231.329 135.274 230.902 135.032 230.424L137.267 229.465Z" fill="#020403"/>
<path d="M133.554 242.716C133.802 243.095 134.077 243.498 134.349 243.888C134.622 244.284 134.909 244.671 135.196 245.057C135.762 245.832 136.356 246.594 136.965 247.353C138.187 248.856 139.475 250.302 140.821 251.7C142.168 253.098 143.611 254.397 145.111 255.64L146.258 256.545C146.643 256.847 147.052 257.114 147.449 257.398L148.043 257.821C148.25 257.965 148.46 258.087 148.663 258.217L149.915 258.991L148.589 258.35C148.373 258.238 148.145 258.142 147.928 258.022L147.291 257.66C146.863 257.411 146.417 257.188 146.001 256.922L144.753 256.132C143.113 255.035 141.506 253.871 139.999 252.592C138.479 251.322 137.012 249.975 135.612 248.572C134.907 247.867 134.216 247.152 133.55 246.41C133.214 246.047 132.877 245.67 132.547 245.298C132.223 244.911 131.901 244.538 131.572 244.128L133.554 242.716Z" fill="#020403"/>
<path d="M287.973 200.564C287.916 201.094 287.85 201.573 287.773 202.077C287.694 202.573 287.615 203.062 287.521 203.553C287.347 204.533 287.142 205.512 286.928 206.476C286.486 208.416 285.965 210.332 285.355 212.218C284.762 214.109 284.024 215.95 283.218 217.751L282.579 219.084C282.371 219.528 282.115 219.957 281.89 220.389L281.537 221.039C281.417 221.256 281.28 221.461 281.151 221.673L280.376 222.917L281.017 221.598C281.121 221.376 281.241 221.159 281.33 220.933L281.617 220.256C281.794 219.803 282.002 219.359 282.162 218.901L282.658 217.525C283.26 215.678 283.789 213.806 284.185 211.905C284.58 210.003 284.898 208.086 285.133 206.167C285.242 205.206 285.337 204.247 285.408 203.285C285.444 202.804 285.48 202.323 285.501 201.844C285.522 201.365 285.542 200.88 285.545 200.427L287.973 200.564Z" fill="#020403"/>
<path d="M295.928 212.253C295.752 212.751 295.584 213.21 295.403 213.679C295.229 214.147 295.041 214.617 294.85 215.073C294.47 215.999 294.065 216.907 293.652 217.809C292.815 219.607 291.898 221.375 290.904 223.087C289.918 224.806 288.813 226.448 287.647 228.041L286.738 229.211C286.438 229.603 286.102 229.964 285.784 230.344L285.303 230.904C285.147 231.09 284.966 231.257 284.794 231.438L283.767 232.494L284.678 231.338C284.824 231.139 284.988 230.959 285.126 230.754L285.547 230.152C285.823 229.749 286.116 229.359 286.367 228.945L287.142 227.7C288.12 226.02 289.039 224.306 289.819 222.533C290.614 220.757 291.328 218.95 291.956 217.128C292.268 216.207 292.566 215.287 292.841 214.365C292.978 213.903 293.108 213.443 293.236 212.976C293.359 212.517 293.478 212.036 293.582 211.603L295.928 212.253Z" fill="#020403"/>
<path d="M153.235 316.743C140.026 319.072 130.483 311.929 130.065 311.61L131.54 309.677C131.636 309.75 141.422 317.032 154.317 314.034L154.864 316.41C154.314 316.537 153.768 316.649 153.235 316.743Z" fill="#020403"/>
<path d="M302.714 289.677C302.173 289.773 301.622 289.855 301.061 289.923L300.771 287.51C313.905 285.91 320.611 275.721 320.676 275.619L322.724 276.931C322.447 277.372 315.915 287.349 302.714 289.677Z" fill="#020403"/>
<path d="M159.206 340.261L153.123 340.557L151.246 335.936C151.156 335.726 151.258 335.49 151.468 335.4C151.637 335.332 151.826 335.382 151.943 335.527L154.412 338.544L157.161 338.406C156.928 336.314 156.54 330.609 152.765 327.242C152.621 327.109 152.593 326.903 152.708 326.747C152.823 326.583 153.064 326.541 153.221 326.664C158.971 331.062 159.183 338.976 159.183 339.315L159.206 340.261Z" fill="#020403"/>
<path d="M305.499 317.359L311.309 315.558L311.501 310.58C311.506 310.353 311.329 310.158 311.102 310.153C310.927 310.146 310.759 310.258 310.698 310.427L309.417 314.105L306.78 314.924C306.29 312.87 304.703 307.377 307.098 302.922C307.182 302.756 307.138 302.546 306.984 302.445C306.812 302.324 306.58 302.373 306.466 302.543C302.573 308.634 305.081 316.144 305.191 316.471L305.499 317.359Z" fill="#020403"/>
<path d="M169.166 338.986L170.08 342.201C170.08 342.201 171.933 344.203 180.277 341.767C180.277 341.767 187.646 339.707 188.185 336.906L187.217 333.511C187.217 333.511 185.057 331.518 177.151 334.043C177.151 334.043 168.834 336.632 169.166 338.986Z" fill="#E8F79F"/>
<path d="M171.161 338.084C171.246 337.963 171.36 337.845 171.485 337.74C171.727 337.532 171.998 337.356 172.277 337.186C172.835 336.846 173.434 336.567 174.035 336.303C174.638 336.046 175.252 335.81 175.87 335.595C176.496 335.379 177.123 335.178 177.755 334.999C178.385 334.812 179.028 334.654 179.664 334.497C180.309 334.353 180.947 334.21 181.598 334.095C182.25 333.988 182.905 333.902 183.558 333.885C183.888 333.872 184.221 333.882 184.547 333.937C184.71 333.961 184.868 334.001 185.015 334.066C185.162 334.13 185.3 334.234 185.351 334.391C185.394 334.549 185.325 334.712 185.242 334.84C185.145 334.977 185.03 335.095 184.907 335.208C184.659 335.425 184.39 335.608 184.102 335.772C183.534 336.098 182.935 336.377 182.323 336.628C181.099 337.123 179.853 337.538 178.595 337.926C177.958 338.114 177.326 338.293 176.683 338.452C176.365 338.53 176.046 338.602 175.719 338.667C175.398 338.731 175.069 338.789 174.746 338.838C174.093 338.938 173.434 339.002 172.777 338.997C172.445 338.995 172.118 338.978 171.797 338.914C171.641 338.881 171.483 338.841 171.343 338.775C171.204 338.709 171.079 338.603 171.043 338.481C171.021 338.357 171.071 338.213 171.161 338.084ZM171.167 338.844C171.202 338.868 171.242 338.883 171.284 338.906C171.447 338.975 171.61 339.007 171.774 339.038C172.108 339.093 172.441 339.102 172.779 339.095C173.442 339.091 174.1 339.02 174.756 338.935C175.419 338.848 176.071 338.74 176.719 338.611C177.374 338.481 178.018 338.329 178.658 338.156C179.939 337.81 181.195 337.37 182.398 336.796C182.996 336.509 183.59 336.201 184.144 335.84C184.421 335.655 184.696 335.463 184.935 335.24C185.057 335.121 185.172 335.003 185.269 334.865C185.356 334.721 185.432 334.55 185.38 334.386C185.327 334.214 185.18 334.104 185.031 334.033C184.876 333.962 184.718 333.922 184.554 333.891C184.226 333.828 183.892 333.811 183.559 333.802C182.892 333.784 182.23 333.833 181.572 333.904C180.248 334.047 178.951 334.343 177.672 334.697C176.394 335.058 175.139 335.506 173.923 336.052C173.316 336.324 172.721 336.625 172.15 336.982C171.874 337.167 171.591 337.36 171.346 337.591C171.224 337.711 171.103 337.838 171.008 337.983C170.985 338.024 170.962 338.066 170.947 338.106C170.924 338.148 170.908 338.189 170.894 338.236C170.865 338.324 170.868 338.429 170.892 338.523C170.925 338.623 170.984 338.703 171.055 338.766C171.091 338.797 171.125 338.821 171.167 338.844Z" fill="#020403"/>
<path d="M187.626 337.812C187.614 337.784 187.6 337.749 187.587 337.721C187.549 337.629 187.517 337.537 187.487 337.452C187.417 337.268 187.354 337.083 187.299 336.897C187.173 336.527 187.063 336.155 186.944 335.784C187.011 336.164 187.08 336.551 187.155 336.938C187.189 337.128 187.23 337.316 187.272 337.512C187.296 337.606 187.313 337.701 187.345 337.801C187.353 337.845 187.369 337.895 187.386 337.945C187.391 337.974 187.403 338.002 187.416 338.03L187.417 338.037C186.295 339.154 183.587 340.597 179.806 341.678C179.798 341.679 179.799 341.679 179.791 341.68C179.779 341.653 179.766 341.625 179.754 341.597C179.715 341.505 179.684 341.413 179.654 341.328C179.584 341.144 179.521 340.959 179.465 340.773C179.34 340.403 179.229 340.031 179.111 339.66C179.178 340.04 179.246 340.427 179.322 340.814C179.355 341.004 179.396 341.192 179.438 341.388C179.462 341.482 179.479 341.577 179.504 341.678C179.516 341.699 179.521 341.728 179.532 341.749C176.896 342.485 174.627 342.787 172.996 342.766C172.993 342.751 172.982 342.73 172.971 342.71C172.941 342.625 172.902 342.533 172.871 342.441C172.809 342.263 172.746 342.079 172.684 341.894C172.565 341.523 172.447 341.151 172.335 340.772C172.396 341.16 172.464 341.548 172.539 341.927C172.581 342.123 172.614 342.313 172.655 342.502C172.678 342.588 172.701 342.675 172.723 342.761C171.487 342.715 170.675 342.474 170.412 342.091C170.393 342.026 170.344 341.877 170.313 341.784C170.17 341.319 169.922 340.466 169.732 339.814C171.248 340.549 174.733 340.221 178.116 339.361L178.819 341.339L178.375 339.292C178.607 339.236 178.844 339.172 179.073 339.101C181.922 338.29 184.455 337.18 186.035 336.057C186.665 335.607 187.108 335.175 187.361 334.768L188 337.068C187.986 337.289 187.857 337.537 187.626 337.812ZM177.646 334.13C182.849 332.647 186.809 332.793 187.111 333.863C187.232 334.294 186.736 334.946 185.746 335.656C184.213 336.748 181.736 337.833 178.938 338.635C173.742 340.117 169.781 339.963 169.473 338.902C169.172 337.84 172.451 335.618 177.646 334.13ZM187.584 333.726C187.076 331.954 182.016 332.372 177.517 333.655C173.011 334.947 168.491 337.266 168.999 339.038C169.003 339.06 169.582 341.061 169.838 341.913C169.848 341.972 169.857 342.023 169.868 342.081C169.896 342.159 169.925 342.237 169.969 342.312L169.976 342.311C169.977 342.318 169.98 342.333 169.988 342.339C170.92 343.818 175.701 343.359 179.942 342.151C184.182 340.936 188.477 338.792 188.494 337.048C188.492 336.951 188.482 336.854 188.452 336.769C188.432 336.697 188.404 336.627 188.371 336.565L187.584 333.726Z" fill="#020403"/>
<path d="M175.271 332.341L176.192 335.555C176.192 335.555 178.045 337.558 186.389 335.122C186.389 335.122 193.759 333.061 194.298 330.26L193.322 326.867C193.322 326.867 191.162 324.874 183.263 327.397C183.263 327.397 174.939 329.988 175.271 332.341Z" fill="#E8F79F"/>
<path d="M177.262 331.439C177.354 331.318 177.469 331.199 177.586 331.096C177.828 330.887 178.106 330.71 178.378 330.542C178.944 330.208 179.535 329.923 180.136 329.659C180.739 329.402 181.353 329.165 181.979 328.949C182.596 328.735 183.226 328.541 183.856 328.355C184.494 328.167 185.129 328.009 185.772 327.851C186.41 327.708 187.056 327.564 187.706 327.45C188.351 327.343 189.006 327.258 189.666 327.24C189.996 327.227 190.322 327.237 190.648 327.293C190.811 327.317 190.968 327.357 191.123 327.42C191.27 327.484 191.41 327.595 191.459 327.745C191.502 327.903 191.433 328.066 191.344 328.203C191.253 328.332 191.139 328.45 191.015 328.562C190.767 328.779 190.491 328.963 190.203 329.127C189.635 329.454 189.036 329.733 188.424 329.984C187.207 330.477 185.954 330.894 184.696 331.282C184.066 331.468 183.427 331.649 182.791 331.806C182.466 331.886 182.147 331.957 181.827 332.021C181.499 332.086 181.177 332.143 180.847 332.194C180.201 332.293 179.542 332.356 178.878 332.353C178.553 332.35 178.219 332.333 177.906 332.268C177.742 332.236 177.591 332.195 177.444 332.131C177.305 332.065 177.189 331.965 177.151 331.836C177.122 331.713 177.172 331.568 177.262 331.439ZM177.268 332.199C177.31 332.222 177.35 332.238 177.385 332.262C177.548 332.331 177.713 332.37 177.882 332.393C178.216 332.447 178.549 332.456 178.88 332.45C179.543 332.447 180.208 332.374 180.864 332.289C181.52 332.203 182.172 332.096 182.827 331.965C183.475 331.836 184.119 331.685 184.759 331.512C186.04 331.165 187.304 330.724 188.499 330.151C189.104 329.864 189.691 329.557 190.245 329.195C190.521 329.011 190.797 328.819 191.043 328.595C191.158 328.476 191.28 328.357 191.369 328.221C191.457 328.077 191.532 327.905 191.488 327.74C191.435 327.568 191.288 327.459 191.132 327.388C190.984 327.316 190.819 327.278 190.655 327.246C190.327 327.183 190 327.166 189.667 327.157C189 327.138 188.338 327.187 187.673 327.259C186.356 327.401 185.052 327.699 183.773 328.053C182.495 328.414 181.239 328.861 180.024 329.407C179.417 329.68 178.821 329.981 178.259 330.336C177.975 330.522 177.7 330.714 177.454 330.946C177.325 331.066 177.211 331.192 177.11 331.345C177.093 331.379 177.07 331.42 177.048 331.462C177.032 331.502 177.009 331.544 177.002 331.591C176.973 331.679 176.969 331.785 176.993 331.879C177.033 331.977 177.085 332.058 177.156 332.121C177.192 332.153 177.234 332.175 177.268 332.199Z" fill="#020403"/>
<path d="M193.731 331.166C193.719 331.139 193.698 331.105 193.685 331.077C193.654 330.984 193.615 330.893 193.585 330.808C193.522 330.623 193.46 330.438 193.397 330.253C193.279 329.882 193.16 329.511 193.05 329.139C193.109 329.52 193.178 329.907 193.253 330.294C193.294 330.482 193.327 330.672 193.377 330.867C193.394 330.962 193.418 331.056 193.443 331.157C193.458 331.2 193.467 331.251 193.484 331.301C193.496 331.329 193.501 331.358 193.514 331.386L193.522 331.392C192.393 332.51 189.685 333.953 185.911 335.033C185.904 335.034 185.896 335.035 185.889 335.037C185.877 335.009 185.864 334.981 185.852 334.953C185.82 334.86 185.782 334.769 185.752 334.684C185.689 334.499 185.626 334.314 185.563 334.129C185.445 333.758 185.327 333.387 185.216 333.015C185.276 333.396 185.344 333.783 185.42 334.17C185.46 334.358 185.494 334.548 185.536 334.744C185.56 334.838 185.584 334.932 185.61 335.033C185.613 335.055 185.626 335.083 185.63 335.105C182.993 335.841 180.725 336.143 179.101 336.12C179.091 336.107 179.08 336.086 179.076 336.065C179.038 335.981 179.007 335.888 178.968 335.797C178.907 335.619 178.844 335.435 178.781 335.25C178.663 334.879 178.545 334.507 178.433 334.128C178.501 334.515 178.569 334.903 178.644 335.281C178.679 335.479 178.719 335.668 178.762 335.864C178.776 335.944 178.798 336.031 178.821 336.117C177.592 336.07 176.773 335.83 176.517 335.445C176.491 335.382 176.442 335.233 176.418 335.139C176.276 334.674 176.027 333.821 175.837 333.169C177.346 333.905 180.838 333.576 184.221 332.715L184.924 334.694L184.474 332.655C184.712 332.591 184.942 332.528 185.17 332.457C188.02 331.646 190.56 330.535 192.133 329.413C192.762 328.963 193.206 328.531 193.466 328.123L194.098 330.424C194.091 330.643 193.962 330.892 193.731 331.166ZM183.751 327.484C188.947 326.003 192.907 326.149 193.216 327.217C193.337 327.648 192.841 328.301 191.851 329.011C190.318 330.103 187.834 331.189 185.036 331.991C179.84 333.473 175.878 333.319 175.578 332.257C175.27 331.196 178.557 328.973 183.751 327.484ZM193.689 327.081C193.181 325.309 188.122 325.726 183.615 327.011C179.109 328.303 174.596 330.621 175.105 332.393C175.108 332.415 175.68 334.417 175.943 335.268C175.946 335.328 175.955 335.379 175.973 335.436C175.994 335.515 176.03 335.592 176.074 335.667C176.075 335.674 176.085 335.687 176.086 335.695C177.025 337.172 181.806 336.714 186.04 335.507C190.28 334.292 194.575 332.148 194.592 330.404C194.59 330.307 194.58 330.21 194.557 330.124C194.537 330.052 194.502 329.983 194.469 329.921L193.689 327.081Z" fill="#020403"/>
<path d="M267.956 322.171L268.877 325.385C268.877 325.385 270.73 327.387 279.066 324.952C279.066 324.952 286.443 322.89 286.975 320.091L286.007 316.696C286.007 316.696 283.846 314.703 275.948 317.227C275.948 317.227 267.623 319.81 267.956 322.171Z" fill="#E8F79F"/>
<path d="M269.95 321.268C270.041 321.139 270.15 321.029 270.274 320.924C270.516 320.716 270.787 320.54 271.066 320.37C271.631 320.029 272.223 319.752 272.825 319.487C273.426 319.223 274.042 318.994 274.667 318.778C275.285 318.564 275.913 318.363 276.544 318.183C277.175 317.997 277.816 317.831 278.453 317.681C279.097 317.53 279.744 317.393 280.387 317.28C281.038 317.165 281.695 317.087 282.353 317.061C282.684 317.055 283.01 317.066 283.335 317.114C283.499 317.145 283.657 317.185 283.804 317.25C283.958 317.313 284.097 317.417 284.147 317.574C284.19 317.732 284.121 317.895 284.031 318.024C283.934 318.162 283.827 318.279 283.703 318.391C283.454 318.601 283.179 318.792 282.891 318.956C282.323 319.282 281.724 319.561 281.113 319.812C279.896 320.306 278.643 320.723 277.383 321.103C276.754 321.297 276.115 321.477 275.48 321.635C275.154 321.715 274.834 321.779 274.508 321.851C274.187 321.915 273.866 321.972 273.535 322.023C272.882 322.123 272.223 322.186 271.566 322.181C271.241 322.178 270.907 322.162 270.594 322.097C270.43 322.065 270.272 322.025 270.133 321.959C269.993 321.894 269.876 321.786 269.839 321.664C269.809 321.534 269.86 321.397 269.95 321.268ZM269.956 322.028C269.997 322.044 270.038 322.066 270.073 322.091C270.236 322.16 270.4 322.191 270.571 322.221C270.904 322.276 271.238 322.285 271.568 322.279C272.23 322.268 272.896 322.203 273.552 322.118C274.207 322.025 274.859 321.917 275.515 321.794C276.163 321.665 276.807 321.514 277.448 321.34C278.728 320.994 279.992 320.553 281.187 319.98C281.785 319.694 282.379 319.386 282.933 319.024C283.21 318.84 283.485 318.648 283.731 318.416C283.847 318.305 283.969 318.186 284.058 318.049C284.145 317.906 284.221 317.734 284.175 317.561C284.124 317.397 283.976 317.287 283.821 317.217C283.672 317.145 283.507 317.106 283.343 317.075C283.016 317.012 282.681 316.996 282.355 316.985C281.689 316.967 281.026 317.016 280.361 317.088C279.037 317.231 277.739 317.52 276.461 317.881C275.183 318.242 273.928 318.69 272.712 319.236C272.105 319.509 271.51 319.81 270.947 320.165C270.663 320.351 270.388 320.543 270.135 320.776C270.013 320.895 269.892 321.022 269.797 321.167C269.774 321.209 269.759 321.249 269.735 321.283C269.72 321.331 269.698 321.373 269.683 321.421C269.661 321.507 269.657 321.614 269.681 321.707C269.713 321.8 269.773 321.887 269.843 321.943C269.88 321.981 269.921 321.997 269.956 322.028Z" fill="#020403"/>
<path d="M286.415 320.996C286.401 320.961 286.389 320.933 286.375 320.898C286.345 320.813 286.306 320.722 286.275 320.629C286.213 320.451 286.151 320.267 286.088 320.082C285.97 319.711 285.851 319.34 285.741 318.967C285.8 319.349 285.869 319.736 285.943 320.115C285.985 320.311 286.019 320.501 286.061 320.697C286.085 320.791 286.109 320.884 286.133 320.978C286.142 321.029 286.158 321.079 286.175 321.129C286.187 321.157 286.191 321.179 286.203 321.207C286.205 321.214 286.205 321.214 286.213 321.22C285.084 322.339 282.375 323.774 278.593 324.855C278.593 324.855 278.587 324.864 278.58 324.865C278.568 324.837 278.555 324.809 278.541 324.774C278.511 324.689 278.473 324.598 278.441 324.505C278.38 324.328 278.317 324.143 278.254 323.958C278.129 323.588 278.018 323.216 277.907 322.843C277.967 323.225 278.035 323.612 278.109 323.991C278.144 324.188 278.185 324.377 278.227 324.573C278.251 324.667 278.275 324.761 278.301 324.862C278.304 324.884 278.317 324.911 278.321 324.933C275.683 325.662 273.416 325.972 271.792 325.949C271.781 325.928 271.771 325.915 271.767 325.893C271.729 325.809 271.698 325.717 271.659 325.626C271.597 325.441 271.534 325.256 271.471 325.071C271.354 324.707 271.235 324.329 271.124 323.956C271.192 324.344 271.259 324.724 271.335 325.11C271.368 325.3 271.411 325.496 271.451 325.685C271.467 325.773 271.49 325.859 271.512 325.945C270.276 325.9 269.464 325.658 269.201 325.275C269.182 325.211 269.132 325.054 269.109 324.967C268.967 324.503 268.718 323.649 268.528 322.997C270.037 323.733 273.529 323.404 276.905 322.545L277.608 324.524L277.164 322.477C277.395 322.421 277.633 322.356 277.862 322.286C280.711 321.474 283.251 320.363 284.823 319.234C285.453 318.792 285.897 318.359 286.15 317.953L286.789 320.252C286.774 320.466 286.653 320.721 286.415 320.996ZM276.442 317.313C281.636 315.824 285.598 315.977 285.898 317.04C286.028 317.477 285.525 318.131 284.542 318.839C283.009 319.931 280.525 321.017 277.725 321.813C272.531 323.301 268.569 323.148 268.262 322.087C267.96 321.017 271.24 318.803 276.442 317.313ZM286.373 316.911C285.872 315.138 280.813 315.555 276.306 316.84C271.8 318.131 267.287 320.45 267.788 322.223C267.8 322.244 268.371 324.246 268.627 325.098C268.636 325.149 268.646 325.207 268.664 325.264C268.685 325.344 268.721 325.42 268.765 325.495C268.766 325.503 268.775 325.509 268.777 325.523C269.715 326.994 274.497 326.542 278.73 325.329C282.971 324.121 287.266 321.977 287.283 320.233C287.281 320.135 287.271 320.039 287.248 319.952C287.227 319.873 287.193 319.811 287.158 319.742L286.373 316.911Z" fill="#020403"/>
<path d="M191.004 335.498L191.925 338.712C191.925 338.712 193.778 340.714 202.114 338.279C202.114 338.279 209.491 336.217 210.023 333.418L209.055 330.023C209.055 330.023 206.894 328.03 198.996 330.553C198.996 330.553 190.67 333.137 191.004 335.498Z" fill="#E8F79F"/>
<path d="M192.986 334.599C193.076 334.47 193.185 334.36 193.31 334.256C193.552 334.047 193.821 333.864 194.1 333.694C194.667 333.36 195.258 333.083 195.86 332.818C196.462 332.554 197.077 332.325 197.702 332.109C198.32 331.895 198.948 331.694 199.58 331.514C200.217 331.327 200.851 331.162 201.488 331.012C202.132 330.861 202.779 330.724 203.422 330.611C204.073 330.496 204.73 330.418 205.389 330.392C205.719 330.387 206.045 330.397 206.37 330.445C206.534 330.477 206.692 330.517 206.839 330.581C206.994 330.644 207.132 330.748 207.183 330.905C207.226 331.063 207.156 331.226 207.066 331.355C206.97 331.493 206.862 331.61 206.739 331.722C206.489 331.932 206.214 332.123 205.926 332.287C205.358 332.613 204.759 332.892 204.148 333.143C202.931 333.637 201.678 334.054 200.418 334.434C199.789 334.628 199.15 334.808 198.514 334.958C198.19 335.046 197.869 335.11 197.543 335.182C197.223 335.246 196.901 335.303 196.571 335.354C195.916 335.447 195.258 335.517 194.602 335.513C194.277 335.509 193.942 335.493 193.629 335.428C193.466 335.396 193.308 335.356 193.168 335.29C193.028 335.225 192.911 335.117 192.875 334.995C192.844 334.865 192.895 334.728 192.986 334.599ZM192.992 335.359C193.032 335.375 193.074 335.398 193.108 335.422C193.271 335.491 193.435 335.522 193.606 335.552C193.94 335.607 194.273 335.616 194.604 335.61C195.265 335.599 195.932 335.534 196.588 335.449C197.242 335.356 197.894 335.249 198.551 335.125C199.199 334.996 199.843 334.845 200.483 334.671C201.764 334.325 203.027 333.884 204.223 333.311C204.82 333.025 205.414 332.717 205.969 332.355C206.245 332.171 206.52 331.979 206.766 331.747C206.882 331.636 207.004 331.517 207.092 331.373C207.181 331.237 207.256 331.065 207.211 330.892C207.159 330.728 207.011 330.618 206.856 330.548C206.707 330.476 206.542 330.437 206.379 330.406C206.051 330.343 205.716 330.327 205.39 330.316C204.724 330.298 204.062 330.347 203.396 330.419C202.072 330.562 200.774 330.852 199.496 331.213C198.218 331.574 196.963 332.021 195.748 332.567C195.14 332.84 194.545 333.141 193.982 333.496C193.698 333.682 193.423 333.874 193.17 334.107C193.048 334.226 192.935 334.352 192.832 334.498C192.809 334.54 192.794 334.58 192.77 334.614C192.756 334.662 192.733 334.704 192.719 334.752C192.696 334.839 192.692 334.945 192.717 335.038C192.748 335.131 192.808 335.218 192.879 335.274C192.916 335.312 192.956 335.328 192.992 335.359Z" fill="#020403"/>
<path d="M209.452 334.326C209.439 334.291 209.426 334.263 209.412 334.228C209.382 334.143 209.344 334.052 209.312 333.959C209.251 333.782 209.188 333.597 209.125 333.412C209.007 333.041 208.889 332.67 208.778 332.297C208.838 332.679 208.906 333.066 208.98 333.445C209.023 333.641 209.056 333.831 209.098 334.027C209.122 334.121 209.146 334.215 209.17 334.308C209.179 334.359 209.196 334.409 209.212 334.459C209.224 334.487 209.228 334.509 209.241 334.537C209.242 334.544 209.242 334.544 209.251 334.55C208.121 335.669 205.412 337.104 201.631 338.185C201.631 338.185 201.624 338.187 201.618 338.195C201.605 338.167 201.593 338.139 201.579 338.104C201.549 338.019 201.51 337.928 201.479 337.835C201.417 337.658 201.355 337.473 201.292 337.288C201.174 336.917 201.055 336.546 200.945 336.173C201.004 336.555 201.073 336.942 201.147 337.321C201.189 337.517 201.223 337.707 201.265 337.903C201.289 337.997 201.313 338.091 201.338 338.192C201.342 338.214 201.354 338.242 201.358 338.263C198.721 338.992 196.454 339.302 194.829 339.279C194.818 339.258 194.808 339.245 194.804 339.223C194.767 339.139 194.736 339.047 194.697 338.956C194.634 338.771 194.571 338.586 194.509 338.401C194.392 338.037 194.272 337.659 194.161 337.286C194.23 337.674 194.297 338.054 194.372 338.44C194.406 338.63 194.448 338.826 194.489 339.015C194.504 339.103 194.527 339.189 194.55 339.276C193.313 339.23 192.502 338.988 192.238 338.605C192.219 338.541 192.169 338.384 192.146 338.297C192.004 337.833 191.756 336.979 191.565 336.327C193.074 337.064 196.566 336.734 199.942 335.875L200.653 337.853L200.202 335.807C200.44 335.75 200.67 335.686 200.899 335.616C203.748 334.805 206.288 333.693 207.86 332.565C208.491 332.122 208.935 331.689 209.194 331.282L209.826 333.582C209.811 333.796 209.69 334.051 209.452 334.326ZM199.479 330.643C204.674 329.154 208.635 329.308 208.943 330.369C209.065 330.807 208.57 331.46 207.58 332.169C206.046 333.261 203.562 334.347 200.763 335.143C195.568 336.631 191.607 336.478 191.299 335.417C190.998 334.347 194.276 332.126 199.479 330.643ZM209.41 330.241C208.909 328.468 203.85 328.885 199.343 330.17C194.836 331.454 190.325 333.78 190.826 335.553C190.837 335.574 191.409 337.576 191.672 338.426C191.673 338.479 191.684 338.537 191.701 338.594C191.723 338.674 191.759 338.75 191.802 338.825C191.804 338.833 191.812 338.839 191.815 338.853C192.752 340.324 197.534 339.872 201.767 338.659C206.009 337.451 210.304 335.307 210.32 333.563C210.318 333.465 210.309 333.369 210.286 333.282C210.264 333.203 210.231 333.141 210.196 333.072L209.41 330.241Z" fill="#020403"/>
<path d="M250.996 326.427L251.91 329.643C251.91 329.643 253.763 331.645 262.106 329.209C262.106 329.209 269.476 327.148 270.015 324.347L269.047 320.953C269.047 320.953 266.879 318.961 258.981 321.484C258.981 321.484 250.655 324.068 250.996 326.427Z" fill="#E8F79F"/>
<path d="M252.974 325.528C253.064 325.399 253.181 325.288 253.298 325.184C253.54 324.976 253.818 324.799 254.097 324.629C254.655 324.289 255.247 324.011 255.848 323.747C256.458 323.489 257.072 323.252 257.69 323.038C258.316 322.822 258.943 322.621 259.575 322.442C260.206 322.255 260.84 322.091 261.484 321.939C262.122 321.797 262.767 321.653 263.418 321.538C264.063 321.432 264.718 321.346 265.378 321.328C265.708 321.315 266.041 321.324 266.367 321.38C266.522 321.405 266.688 321.444 266.835 321.508C266.982 321.573 267.121 321.677 267.171 321.833C267.214 321.992 267.145 322.155 267.054 322.284C266.965 322.42 266.85 322.538 266.727 322.65C266.479 322.867 266.202 323.052 265.922 323.214C265.347 323.542 264.748 323.821 264.144 324.071C262.919 324.565 261.673 324.981 260.407 325.363C259.778 325.557 259.146 325.736 258.503 325.894C258.185 325.973 257.858 326.038 257.539 326.11C257.211 326.175 256.889 326.232 256.566 326.281C255.913 326.381 255.254 326.445 254.597 326.44C254.265 326.438 253.938 326.42 253.618 326.356C253.461 326.324 253.303 326.284 253.164 326.218C253.024 326.152 252.9 326.046 252.863 325.924C252.833 325.794 252.891 325.655 252.974 325.528ZM252.98 326.288C253.022 326.311 253.062 326.326 253.104 326.349C253.259 326.419 253.43 326.45 253.594 326.481C253.928 326.535 254.261 326.544 254.592 326.539C255.262 326.534 255.92 326.463 256.576 326.377C257.232 326.292 257.89 326.176 258.539 326.054C259.187 325.925 259.838 325.772 260.478 325.599C261.759 325.252 263.016 324.812 264.218 324.238C264.816 323.952 265.403 323.645 265.964 323.282C266.241 323.098 266.508 322.908 266.754 322.676C266.877 322.564 266.992 322.445 267.089 322.308C267.176 322.164 267.244 321.994 267.2 321.828C267.147 321.657 267 321.547 266.851 321.475C266.696 321.405 266.531 321.366 266.374 321.333C266.047 321.27 265.712 321.254 265.379 321.245C264.712 321.227 264.05 321.276 263.392 321.347C262.068 321.49 260.762 321.78 259.484 322.141C258.206 322.502 256.951 322.95 255.736 323.495C255.136 323.767 254.533 324.069 253.97 324.425C253.687 324.611 253.411 324.802 253.166 325.034C253.044 325.154 252.923 325.28 252.828 325.425C252.805 325.467 252.782 325.509 252.758 325.543C252.744 325.591 252.721 325.633 252.714 325.679C252.685 325.767 252.688 325.872 252.712 325.966C252.745 326.066 252.797 326.147 252.876 326.208C252.904 326.241 252.944 326.256 252.98 326.288Z" fill="#020403"/>
<path d="M269.451 325.253C269.437 325.218 269.424 325.19 269.412 325.162C269.373 325.071 269.342 324.978 269.311 324.886C269.242 324.709 269.179 324.525 269.116 324.34C268.998 323.969 268.88 323.597 268.769 323.225C268.836 323.605 268.904 323.993 268.98 324.379C269.013 324.569 269.054 324.758 269.096 324.954C269.113 325.049 269.137 325.142 269.163 325.243C269.178 325.286 269.194 325.336 269.21 325.386C269.215 325.415 269.227 325.436 269.239 325.464C269.24 325.471 269.24 325.471 269.242 325.478C268.12 326.596 265.412 328.038 261.629 329.112C261.623 329.12 261.616 329.122 261.616 329.122C261.603 329.094 261.591 329.066 261.578 329.038C261.54 328.947 261.508 328.854 261.47 328.763C261.408 328.585 261.345 328.401 261.283 328.216C261.165 327.845 261.046 327.474 260.935 327.101C261.002 327.481 261.071 327.869 261.145 328.248C261.18 328.445 261.221 328.634 261.263 328.83C261.28 328.925 261.304 329.018 261.329 329.12C261.333 329.141 261.345 329.169 261.349 329.191C258.713 329.928 256.445 330.23 254.82 330.207C254.81 330.194 254.806 330.172 254.795 330.151C254.758 330.067 254.727 329.975 254.695 329.882C254.626 329.706 254.564 329.521 254.508 329.335C254.383 328.965 254.272 328.593 254.16 328.213C254.221 328.602 254.288 328.982 254.363 329.368C254.397 329.558 254.439 329.754 254.48 329.943C254.503 330.029 254.518 330.117 254.541 330.203C253.311 330.156 252.493 329.916 252.237 329.532C252.21 329.469 252.169 329.318 252.137 329.225C251.995 328.76 251.747 327.907 251.556 327.255C253.073 327.99 256.557 327.662 259.94 326.802L260.644 328.781L260.192 326.735C260.431 326.678 260.661 326.614 260.897 326.543C263.739 325.732 266.279 324.621 267.86 323.498C268.482 323.05 268.926 322.617 269.185 322.21L269.817 324.51C269.811 324.73 269.681 324.979 269.451 325.253ZM259.47 321.571C264.665 320.082 268.626 320.235 268.935 321.304C269.056 321.735 268.561 322.387 267.571 323.097C266.037 324.189 263.553 325.275 260.761 326.069C255.559 327.559 251.598 327.406 251.297 326.343C250.99 325.282 254.276 323.06 259.47 321.571ZM269.409 321.168C268.9 319.396 263.841 319.813 259.334 321.097C254.836 322.388 250.316 324.708 250.824 326.48C250.828 326.502 251.4 328.504 251.663 329.354C251.666 329.414 251.675 329.465 251.692 329.522C251.714 329.601 251.75 329.678 251.793 329.753C251.802 329.759 251.804 329.774 251.813 329.78C252.745 331.259 257.525 330.8 261.765 329.585C266 328.379 270.302 326.233 270.311 324.491C270.316 324.392 270.3 324.297 270.277 324.21C270.257 324.139 270.229 324.068 270.188 324.007L269.409 321.168Z" fill="#020403"/>
<path d="M242.685 323.454L243.599 326.669C243.599 326.669 245.452 328.672 253.796 326.236C253.796 326.236 261.166 324.175 261.703 321.367L260.737 317.98C260.737 317.98 258.576 315.986 250.669 318.504C250.669 318.504 242.352 321.093 242.685 323.454Z" fill="#E8F79F"/>
<path d="M244.675 322.552C244.758 322.425 244.874 322.314 244.999 322.209C245.241 322 245.51 321.817 245.789 321.647C246.349 321.315 246.946 321.029 247.549 320.772C248.151 320.507 248.766 320.278 249.384 320.064C250.009 319.848 250.637 319.647 251.269 319.468C251.899 319.281 252.541 319.115 253.178 318.965C253.822 318.814 254.461 318.679 255.112 318.564C255.762 318.449 256.419 318.371 257.071 318.347C257.401 318.341 257.735 318.35 258.06 318.398C258.216 318.431 258.38 318.463 258.528 318.534C258.675 318.599 258.814 318.703 258.865 318.859C258.906 319.01 258.837 319.173 258.755 319.308C258.659 319.446 258.544 319.564 258.421 319.676C258.171 319.886 257.903 320.077 257.616 320.24C257.048 320.567 256.449 320.846 255.836 321.089C254.612 321.584 253.367 322.007 252.108 322.387C251.471 322.583 250.84 322.762 250.196 322.913C249.878 322.992 249.559 323.063 249.232 323.136C248.912 323.2 248.583 323.258 248.26 323.307C247.606 323.4 246.947 323.471 246.291 323.466C245.959 323.464 245.632 323.446 245.311 323.382C245.155 323.35 244.997 323.31 244.856 323.236C244.716 323.171 244.593 323.072 244.564 322.949C244.534 322.818 244.583 322.674 244.675 322.552ZM244.681 323.313C244.714 323.329 244.756 323.352 244.796 323.368C244.959 323.437 245.124 323.476 245.288 323.507C245.622 323.561 245.955 323.57 246.293 323.563C246.954 323.552 247.614 323.489 248.27 323.403C248.931 323.309 249.583 323.202 250.231 323.073C250.888 322.949 251.532 322.798 252.172 322.625C253.452 322.271 254.709 321.838 255.912 321.264C256.51 320.978 257.102 320.663 257.657 320.301C257.933 320.117 258.21 319.932 258.448 319.702C258.571 319.59 258.686 319.471 258.781 319.326C258.87 319.19 258.945 319.019 258.893 318.847C258.841 318.683 258.692 318.566 258.545 318.501C258.389 318.431 258.232 318.391 258.068 318.359C257.739 318.289 257.406 318.28 257.071 318.264C256.406 318.253 255.744 318.302 255.086 318.373C253.762 318.516 252.463 318.805 251.186 319.166C249.908 319.527 248.651 319.967 247.436 320.513C246.828 320.786 246.234 321.094 245.664 321.451C245.386 321.628 245.105 321.828 244.86 322.06C244.737 322.18 244.615 322.299 244.521 322.451C244.499 322.493 244.475 322.527 244.459 322.568C244.438 322.617 244.421 322.65 244.407 322.698C244.378 322.793 244.38 322.891 244.406 322.992C244.437 323.084 244.498 323.171 244.568 323.227C244.604 323.258 244.638 323.282 244.681 323.313Z" fill="#020403"/>
<path d="M261.139 322.279C261.126 322.244 261.113 322.216 261.099 322.181C261.062 322.097 261.031 322.004 260.999 321.912C260.929 321.728 260.868 321.551 260.812 321.365C260.687 320.995 260.575 320.615 260.456 320.244C260.525 320.631 260.593 321.019 260.667 321.398C260.702 321.595 260.743 321.784 260.784 321.973C260.809 322.074 260.826 322.169 260.857 322.261C260.866 322.312 260.883 322.362 260.899 322.412C260.904 322.441 260.915 322.462 260.928 322.49C260.929 322.497 260.929 322.497 260.93 322.504C259.808 323.622 257.099 325.057 253.318 326.138C253.311 326.139 253.311 326.139 253.303 326.141C253.291 326.113 253.278 326.085 253.266 326.057C253.229 325.973 253.197 325.88 253.166 325.788C253.097 325.612 253.034 325.427 252.979 325.241C252.853 324.871 252.742 324.498 252.623 324.12C252.691 324.507 252.758 324.888 252.834 325.274C252.867 325.464 252.909 325.66 252.95 325.849C252.976 325.95 252.992 326.045 253.017 326.138C253.029 326.166 253.033 326.188 253.045 326.216C250.408 326.945 248.139 327.247 246.509 327.233C246.505 327.211 246.495 327.198 246.484 327.177C246.453 327.085 246.415 327.001 246.384 326.908C246.321 326.724 246.258 326.539 246.196 326.354C246.077 325.983 245.959 325.612 245.848 325.239C245.909 325.628 245.976 326.008 246.052 326.394C246.093 326.583 246.128 326.78 246.168 326.969C246.191 327.056 246.214 327.142 246.237 327.228C245 327.183 244.189 326.941 243.924 326.551C243.906 326.494 243.856 326.337 243.826 326.252C243.682 325.779 243.435 324.934 243.245 324.281C244.761 325.016 248.246 324.688 251.629 323.828L252.332 325.807L251.889 323.76C252.119 323.696 252.349 323.633 252.586 323.569C255.435 322.757 257.967 321.64 259.547 320.517C260.178 320.075 260.622 319.642 260.874 319.236L261.513 321.535C261.498 321.749 261.37 322.005 261.139 322.279ZM251.159 318.597C256.361 317.107 260.322 317.26 260.623 318.323C260.745 318.761 260.25 319.414 259.258 320.116C257.726 321.215 255.248 322.293 252.45 323.095C247.255 324.584 243.294 324.431 242.986 323.37C242.684 322.3 245.964 320.079 251.159 318.597ZM261.097 318.194L261.096 318.187C260.589 316.422 255.528 316.832 251.03 318.122C246.523 319.407 242.004 321.734 242.513 323.506C242.515 323.521 243.094 325.521 243.35 326.373C243.36 326.432 243.371 326.49 243.381 326.549C243.41 326.626 243.439 326.704 243.481 326.772C243.491 326.786 243.492 326.793 243.502 326.806C244.432 328.278 249.214 327.826 253.454 326.611C257.694 325.397 261.991 323.26 262.007 321.516C262.005 321.418 261.996 321.322 261.964 321.229C261.944 321.157 261.918 321.094 261.876 321.026L261.097 318.194Z" fill="#020403"/>
<path d="M217.575 326.412L218.495 329.626C218.495 329.626 220.348 331.628 228.692 329.192C228.692 329.192 236.062 327.131 236.601 324.331L235.625 320.937C235.625 320.937 233.465 318.944 225.566 321.467C225.566 321.467 217.242 324.058 217.575 326.412Z" fill="#E8F79F"/>
<path d="M219.558 325.511C219.649 325.39 219.764 325.271 219.881 325.168C220.124 324.959 220.401 324.782 220.673 324.614C221.239 324.273 221.83 323.995 222.432 323.731C223.035 323.474 223.649 323.237 224.274 323.021C224.892 322.807 225.521 322.613 226.159 322.425C226.789 322.239 227.423 322.074 228.067 321.923C228.706 321.78 229.351 321.636 230.002 321.522C230.646 321.415 231.302 321.33 231.962 321.312C232.291 321.299 232.617 321.309 232.944 321.365C233.106 321.389 233.271 321.427 233.418 321.492C233.565 321.556 233.706 321.667 233.755 321.817C233.797 321.975 233.728 322.138 233.639 322.275C233.549 322.404 233.434 322.522 233.311 322.634C233.062 322.851 232.786 323.035 232.506 323.198C231.932 323.533 231.331 323.805 230.72 324.056C229.503 324.549 228.25 324.966 226.99 325.346C226.361 325.54 225.73 325.719 225.087 325.878C224.762 325.958 224.443 326.029 224.122 326.093C223.795 326.159 223.473 326.215 223.143 326.266C222.49 326.366 221.837 326.428 221.173 326.425C220.849 326.422 220.522 326.404 220.201 326.34C220.045 326.307 219.887 326.267 219.747 326.201C219.6 326.137 219.483 326.029 219.447 325.908C219.417 325.785 219.475 325.639 219.558 325.511ZM219.563 326.271C219.605 326.294 219.646 326.31 219.687 326.333C219.843 326.403 220.015 326.44 220.178 326.465C220.512 326.519 220.845 326.528 221.177 326.53C221.838 326.519 222.505 326.454 223.159 326.361C223.815 326.275 224.467 326.168 225.122 326.037C225.77 325.908 226.415 325.757 227.062 325.582C228.335 325.237 229.599 324.796 230.795 324.223C231.4 323.936 231.986 323.629 232.54 323.267C232.817 323.083 233.092 322.891 233.339 322.667C233.454 322.548 233.576 322.429 233.665 322.293C233.753 322.149 233.828 321.977 233.784 321.812C233.731 321.64 233.583 321.531 233.428 321.46C233.279 321.388 233.114 321.35 232.951 321.318C232.623 321.255 232.296 321.238 231.962 321.229C231.296 321.21 230.634 321.259 229.968 321.332C228.652 321.473 227.347 321.771 226.068 322.125C224.79 322.486 223.535 322.933 222.32 323.479C221.712 323.752 221.117 324.053 220.554 324.408C220.27 324.594 219.995 324.786 219.749 325.018C219.62 325.138 219.506 325.264 219.405 325.417C219.389 325.451 219.366 325.492 219.343 325.534C219.328 325.574 219.305 325.616 219.298 325.663C219.268 325.751 219.264 325.857 219.288 325.951C219.328 326.049 219.38 326.13 219.452 326.193C219.487 326.225 219.529 326.247 219.563 326.271Z" fill="#020403"/>
<path d="M236.033 325.236C236.013 325.209 235.999 325.174 235.987 325.146C235.956 325.054 235.917 324.963 235.887 324.877C235.824 324.693 235.761 324.508 235.699 324.323C235.58 323.952 235.462 323.581 235.351 323.208C235.418 323.588 235.487 323.976 235.555 324.363C235.596 324.552 235.629 324.742 235.679 324.937C235.695 325.032 235.72 325.126 235.745 325.227C235.761 325.276 235.769 325.32 235.785 325.37C235.798 325.398 235.803 325.427 235.815 325.455L235.824 325.461C234.695 326.58 231.987 328.022 228.213 329.102C228.206 329.104 228.198 329.105 228.191 329.106C228.178 329.078 228.166 329.05 228.153 329.022C228.122 328.93 228.083 328.839 228.053 328.754C227.991 328.569 227.928 328.384 227.865 328.199C227.747 327.828 227.629 327.457 227.518 327.084C227.578 327.466 227.646 327.853 227.722 328.239C227.762 328.428 227.796 328.618 227.838 328.814C227.862 328.908 227.886 329.002 227.911 329.103C227.915 329.125 227.928 329.153 227.932 329.174C225.295 329.911 223.027 330.213 221.403 330.19C221.393 330.177 221.381 330.156 221.378 330.134C221.34 330.05 221.309 329.958 221.277 329.865C221.209 329.689 221.146 329.504 221.091 329.318C220.965 328.948 220.847 328.577 220.736 328.205C220.803 328.585 220.871 328.972 220.946 329.351C220.98 329.548 221.021 329.737 221.062 329.926C221.078 330.014 221.1 330.1 221.123 330.187C219.894 330.14 219.075 329.9 218.819 329.515C218.793 329.452 218.744 329.302 218.72 329.208C218.577 328.744 218.329 327.891 218.139 327.238C219.648 327.975 223.14 327.645 226.523 326.785L227.226 328.764L226.776 326.725C227.014 326.661 227.244 326.598 227.472 326.527C230.321 325.716 232.862 324.604 234.435 323.483C235.064 323.033 235.508 322.6 235.768 322.193L236.399 324.493C236.393 324.713 236.263 324.962 236.033 325.236ZM226.053 321.554C231.249 320.073 235.209 320.219 235.518 321.287C235.639 321.718 235.143 322.371 234.153 323.08C232.619 324.172 230.135 325.259 227.337 326.061C222.142 327.542 218.18 327.389 217.88 326.327C217.572 325.265 220.858 323.043 226.053 321.554ZM235.991 321.151C235.483 319.379 230.423 319.796 225.916 321.081C221.411 322.373 216.898 324.691 217.406 326.463C217.41 326.485 217.982 328.487 218.245 329.337C218.248 329.397 218.257 329.448 218.275 329.506C218.296 329.585 218.332 329.661 218.376 329.736C218.377 329.744 218.387 329.757 218.388 329.764C219.327 331.242 224.108 330.783 228.34 329.57C232.582 328.362 236.884 326.217 236.894 324.474C236.899 324.375 236.882 324.28 236.859 324.194C236.839 324.122 236.804 324.052 236.771 323.991L235.991 321.151Z" fill="#020403"/>
<path d="M213.888 322.478L214.809 325.692C214.809 325.692 216.655 327.695 224.999 325.259C224.999 325.259 232.369 323.199 232.906 320.39L231.939 317.003C231.939 317.003 229.779 315.01 221.879 317.526C221.879 317.526 213.555 320.117 213.888 322.478Z" fill="#E8F79F"/>
<path d="M215.872 321.579C215.955 321.451 216.071 321.34 216.196 321.235C216.438 321.027 216.707 320.844 216.986 320.674C217.546 320.341 218.144 320.055 218.746 319.798C219.348 319.534 219.963 319.305 220.581 319.09C221.207 318.874 221.834 318.673 222.466 318.494C223.096 318.308 223.738 318.142 224.375 317.992C225.019 317.84 225.658 317.705 226.309 317.59C226.959 317.476 227.616 317.397 228.275 317.372C228.599 317.368 228.932 317.377 229.257 317.425C229.421 317.456 229.577 317.489 229.726 317.561C229.873 317.625 230.011 317.729 230.069 317.885C230.105 318.044 230.041 318.198 229.952 318.335C229.856 318.472 229.741 318.591 229.617 318.695C229.376 318.911 229.101 319.103 228.813 319.267C228.245 319.593 227.646 319.872 227.033 320.116C225.809 320.61 224.564 321.033 223.305 321.414C222.676 321.608 222.037 321.788 221.393 321.939C221.075 322.018 220.756 322.089 220.43 322.162C220.109 322.226 219.78 322.284 219.457 322.333C218.803 322.426 218.145 322.497 217.488 322.492C217.163 322.489 216.829 322.473 216.508 322.409C216.352 322.376 216.194 322.336 216.053 322.263C215.913 322.197 215.798 322.097 215.761 321.975C215.731 321.845 215.781 321.7 215.872 321.579ZM215.878 322.339C215.919 322.354 215.953 322.378 215.993 322.394C216.156 322.463 216.321 322.502 216.485 322.533C216.819 322.588 217.16 322.595 217.49 322.59C218.151 322.579 218.811 322.515 219.474 322.428C220.129 322.336 220.78 322.228 221.428 322.099C222.085 321.976 222.729 321.824 223.369 321.651C224.649 321.297 225.906 320.865 227.109 320.291C227.707 320.004 228.299 319.689 228.854 319.327C229.13 319.143 229.407 318.959 229.645 318.728C229.768 318.616 229.883 318.498 229.978 318.353C230.067 318.216 230.143 318.045 230.097 317.872C230.038 317.709 229.889 317.592 229.742 317.528C229.587 317.457 229.429 317.417 229.265 317.386C228.936 317.316 228.603 317.306 228.268 317.29C227.61 317.278 226.941 317.328 226.283 317.399C224.959 317.542 223.661 317.831 222.381 318.185C221.105 318.553 219.848 318.993 218.633 319.539C218.025 319.812 217.432 320.12 216.861 320.477C216.584 320.654 216.31 320.853 216.057 321.086C215.935 321.206 215.813 321.325 215.719 321.478C215.696 321.519 215.672 321.554 215.656 321.594C215.635 321.643 215.618 321.676 215.604 321.724C215.576 321.819 215.578 321.917 215.603 322.018C215.634 322.111 215.695 322.198 215.765 322.253C215.801 322.285 215.842 322.308 215.878 322.339Z" fill="#020403"/>
<path d="M232.339 321.304C232.325 321.269 232.313 321.241 232.299 321.206C232.261 321.122 232.23 321.03 232.199 320.937C232.129 320.754 232.074 320.575 232.012 320.39C231.886 320.02 231.775 319.648 231.663 319.268C231.724 319.657 231.791 320.037 231.867 320.423C231.902 320.62 231.943 320.809 231.983 320.998C232.009 321.099 232.033 321.193 232.057 321.286C232.066 321.337 232.082 321.387 232.099 321.437C232.11 321.458 232.115 321.487 232.127 321.515C232.129 321.522 232.129 321.522 232.13 321.53C231.008 322.647 228.299 324.082 224.517 325.163C224.51 325.165 224.51 325.165 224.503 325.166C224.49 325.138 224.478 325.11 224.465 325.082C224.428 324.998 224.397 324.906 224.365 324.813C224.295 324.63 224.234 324.452 224.178 324.266C224.053 323.896 223.942 323.524 223.822 323.145C223.891 323.533 223.959 323.92 224.033 324.299C224.068 324.496 224.109 324.685 224.15 324.874C224.175 324.975 224.192 325.07 224.223 325.162C224.228 325.192 224.232 325.214 224.245 325.242C221.607 325.97 219.339 326.272 217.708 326.258C217.705 326.236 217.695 326.223 217.684 326.202C217.652 326.11 217.615 326.026 217.583 325.934C217.521 325.749 217.458 325.564 217.395 325.379C217.277 325.008 217.159 324.637 217.048 324.264C217.109 324.653 217.176 325.033 217.251 325.419C217.292 325.608 217.327 325.806 217.375 325.993C217.391 326.081 217.413 326.167 217.436 326.254C216.2 326.208 215.388 325.967 215.123 325.576C215.106 325.519 215.056 325.362 215.026 325.277C214.882 324.805 214.635 323.959 214.452 323.305C215.961 324.042 219.453 323.712 222.829 322.853L223.532 324.832L223.088 322.785C223.318 322.722 223.555 322.657 223.786 322.594C226.635 321.783 229.166 320.665 230.747 319.543C231.377 319.1 231.821 318.667 232.074 318.261L232.713 320.56C232.698 320.774 232.577 321.029 232.339 321.304ZM222.366 317.621C227.56 316.132 231.522 316.286 231.822 317.348C231.952 317.785 231.449 318.439 230.458 319.141C228.925 320.241 226.448 321.326 223.649 322.121C218.455 323.609 214.493 323.456 214.186 322.395C213.884 321.325 217.163 319.104 222.366 317.621ZM232.297 317.219C232.297 317.219 232.297 317.219 232.296 317.212C231.788 315.447 226.728 315.857 222.23 317.148C217.723 318.432 213.211 320.758 213.712 322.531C213.722 322.544 214.294 324.547 214.549 325.398C214.56 325.457 214.57 325.515 214.58 325.574C214.609 325.652 214.645 325.728 214.687 325.796C214.69 325.811 214.691 325.818 214.701 325.831C215.631 327.303 220.413 326.852 224.654 325.637C228.894 324.422 233.19 322.285 233.207 320.541C233.205 320.443 233.195 320.347 233.164 320.255C233.143 320.183 233.117 320.119 233.082 320.05L232.297 317.219Z" fill="#020403"/>
<path d="M281.335 320.483L282.255 323.69C282.255 323.69 284.108 325.692 292.451 323.256C292.451 323.256 299.821 321.195 300.36 318.395L299.386 315.009C299.386 315.009 297.224 313.008 289.326 315.531C289.326 315.531 281.002 318.122 281.335 320.483Z" fill="#E8F79F"/>
<path d="M283.329 319.573C283.421 319.452 283.536 319.334 283.653 319.23C283.895 319.021 284.173 318.844 284.445 318.676C285.012 318.342 285.602 318.057 286.204 317.793C286.806 317.536 287.42 317.299 288.046 317.084C288.664 316.869 289.293 316.675 289.923 316.489C290.562 316.308 291.196 316.144 291.839 315.985C292.477 315.842 293.123 315.699 293.773 315.584C294.418 315.478 295.074 315.392 295.734 315.374C296.063 315.361 296.389 315.371 296.715 315.427C296.878 315.451 297.036 315.491 297.19 315.554C297.337 315.619 297.477 315.73 297.526 315.879C297.569 316.038 297.5 316.201 297.411 316.337C297.321 316.466 297.207 316.591 297.082 316.696C296.834 316.913 296.558 317.098 296.27 317.262C295.703 317.595 295.103 317.867 294.492 318.118C293.275 318.611 292.022 319.028 290.763 319.416C290.133 319.602 289.494 319.783 288.859 319.94C288.533 320.02 288.214 320.091 287.894 320.155C287.566 320.221 287.245 320.277 286.914 320.328C286.261 320.428 285.609 320.491 284.945 320.487C284.62 320.484 284.286 320.468 283.973 320.402C283.809 320.371 283.659 320.329 283.512 320.265C283.372 320.199 283.256 320.099 283.218 319.97C283.189 319.847 283.239 319.702 283.329 319.573ZM283.335 320.334C283.377 320.356 283.417 320.372 283.452 320.396C283.615 320.465 283.78 320.504 283.95 320.527C284.283 320.581 284.617 320.59 284.949 320.592C285.61 320.581 286.277 320.516 286.931 320.423C287.587 320.338 288.239 320.23 288.894 320.1C289.542 319.97 290.186 319.819 290.828 319.653C292.107 319.3 293.371 318.858 294.566 318.285C295.171 317.998 295.758 317.691 296.312 317.329C296.589 317.145 296.864 316.953 297.111 316.729C297.226 316.611 297.348 316.491 297.437 316.355C297.526 316.219 297.6 316.04 297.555 315.874C297.503 315.703 297.355 315.593 297.2 315.522C297.051 315.451 296.886 315.412 296.722 315.38C296.395 315.318 296.067 315.3 295.734 315.291C295.068 315.273 294.405 315.322 293.74 315.394C292.423 315.535 291.119 315.833 289.84 316.187C288.562 316.548 287.307 316.995 286.091 317.541C285.484 317.814 284.889 318.115 284.326 318.471C284.042 318.656 283.767 318.848 283.521 319.08C283.392 319.201 283.278 319.326 283.177 319.48C283.16 319.513 283.138 319.555 283.115 319.596C283.099 319.637 283.077 319.678 283.07 319.725C283.04 319.813 283.036 319.919 283.06 320.013C283.1 320.111 283.152 320.193 283.224 320.255C283.259 320.287 283.301 320.31 283.335 320.334Z" fill="#020403"/>
<path d="M299.804 319.299C299.792 319.271 299.771 319.237 299.758 319.209C299.727 319.116 299.689 319.033 299.658 318.94C299.595 318.755 299.532 318.57 299.47 318.385C299.351 318.014 299.233 317.643 299.122 317.271C299.182 317.652 299.25 318.04 299.326 318.426C299.367 318.615 299.4 318.805 299.45 318.999C299.467 319.095 299.491 319.188 299.516 319.289C299.532 319.339 299.54 319.383 299.556 319.433C299.569 319.461 299.574 319.49 299.586 319.518L299.595 319.524C298.466 320.643 295.758 322.085 291.984 323.165C291.976 323.166 291.969 323.168 291.962 323.169C291.949 323.141 291.937 323.113 291.924 323.085C291.893 322.993 291.854 322.901 291.824 322.816C291.762 322.631 291.699 322.446 291.636 322.262C291.518 321.89 291.4 321.519 291.289 321.147C291.349 321.528 291.417 321.916 291.492 322.302C291.533 322.491 291.567 322.681 291.609 322.877C291.633 322.971 291.657 323.064 291.682 323.165C291.686 323.187 291.699 323.215 291.703 323.237C289.066 323.973 286.798 324.275 285.174 324.253C285.164 324.239 285.153 324.219 285.149 324.197C285.111 324.113 285.08 324.021 285.041 323.929C284.98 323.752 284.917 323.567 284.854 323.382C284.736 323.011 284.618 322.64 284.507 322.267C284.574 322.648 284.642 323.035 284.717 323.414C284.751 323.611 284.792 323.8 284.834 323.996C284.849 324.076 284.871 324.163 284.894 324.249C283.665 324.202 282.846 323.962 282.59 323.578C282.565 323.522 282.515 323.365 282.491 323.271C282.348 322.806 282.1 321.953 281.91 321.301C283.419 322.037 286.911 321.708 290.294 320.848L290.997 322.826L290.547 320.788C290.784 320.723 291.015 320.66 291.245 320.597C294.093 319.778 296.633 318.667 298.206 317.546C298.835 317.095 299.279 316.663 299.539 316.255L300.172 318.563C300.164 318.776 300.035 319.025 299.804 319.299ZM289.824 315.617C295.019 314.135 298.98 314.281 299.289 315.35C299.41 315.781 298.914 316.433 297.924 317.143C296.391 318.235 293.906 319.321 291.108 320.124C285.913 321.605 281.953 321.459 281.651 320.389C281.343 319.328 284.629 317.105 289.824 315.617ZM299.762 315.214C299.254 313.441 294.194 313.859 289.688 315.143C285.182 316.435 280.669 318.753 281.177 320.526C281.181 320.547 281.753 322.55 282.016 323.4C282.019 323.46 282.029 323.518 282.046 323.568C282.067 323.647 282.103 323.724 282.147 323.799C282.148 323.806 282.158 323.82 282.159 323.827C283.098 325.305 287.879 324.846 292.113 323.64C296.353 322.425 300.649 320.288 300.665 318.537C300.662 318.439 300.653 318.343 300.63 318.256C300.61 318.184 300.575 318.115 300.542 318.053L299.762 315.214Z" fill="#020403"/>
<path d="M279.038 316.245L279.951 319.454C279.951 319.454 281.805 321.463 290.147 319.02C290.147 319.02 297.517 316.959 298.056 314.158L297.089 310.771C297.089 310.771 294.921 308.779 287.021 311.295C287.021 311.295 278.697 313.886 279.038 316.245Z" fill="#E8F79F"/>
<path d="M281.03 315.342C281.113 315.214 281.229 315.104 281.354 314.999C281.594 314.783 281.865 314.607 282.144 314.437C282.703 314.105 283.301 313.819 283.903 313.554C284.506 313.297 285.12 313.061 285.738 312.846C286.364 312.638 286.992 312.437 287.622 312.25C288.254 312.071 288.896 311.905 289.532 311.755C290.176 311.604 290.816 311.469 291.466 311.354C292.117 311.239 292.773 311.154 293.425 311.137C293.755 311.124 294.088 311.133 294.414 311.188C294.57 311.214 294.735 311.252 294.883 311.324C295.03 311.389 295.169 311.492 295.218 311.642C295.261 311.8 295.192 311.963 295.103 312.099C295.014 312.236 294.899 312.354 294.774 312.459C294.526 312.676 294.257 312.859 293.969 313.023C293.402 313.357 292.802 313.628 292.191 313.879C290.966 314.374 289.722 314.797 288.455 315.179C287.825 315.365 287.193 315.544 286.55 315.703C286.232 315.781 285.906 315.854 285.586 315.918C285.265 315.982 284.936 316.04 284.615 316.097C283.96 316.19 283.301 316.253 282.645 316.256C282.312 316.247 281.985 316.229 281.665 316.165C281.508 316.132 281.35 316.092 281.211 316.026C281.071 315.96 280.948 315.862 280.91 315.733C280.888 315.608 280.938 315.464 281.03 315.342ZM281.034 316.095C281.069 316.119 281.111 316.142 281.151 316.157C281.314 316.227 281.479 316.265 281.641 316.29C281.975 316.344 282.308 316.353 282.64 316.355C283.309 316.342 283.969 316.279 284.623 316.186C285.286 316.099 285.938 315.992 286.586 315.862C287.234 315.733 287.885 315.58 288.527 315.415C289.806 315.061 291.063 314.621 292.265 314.047C292.864 313.768 293.457 313.452 294.011 313.091C294.288 312.906 294.563 312.715 294.802 312.492C294.926 312.379 295.039 312.254 295.136 312.116C295.225 311.98 295.3 311.808 295.247 311.637C295.194 311.465 295.047 311.356 294.9 311.291C294.744 311.221 294.579 311.182 294.421 311.142C294.094 311.079 293.759 311.063 293.426 311.054C292.761 311.043 292.097 311.084 291.44 311.162C290.116 311.305 288.818 311.595 287.539 311.948C286.255 312.318 285.006 312.757 283.79 313.303C283.183 313.576 282.588 313.877 282.019 314.241C281.741 314.418 281.459 314.611 281.214 314.85C281.091 314.962 280.97 315.089 280.876 315.241C280.852 315.275 280.829 315.317 280.807 315.359C280.791 315.399 280.776 315.44 280.761 315.487C280.732 315.576 280.735 315.681 280.76 315.782C280.792 315.874 280.851 315.954 280.923 316.017C280.958 316.048 280.993 316.072 281.034 316.095Z" fill="#020403"/>
<path d="M297.493 315.064C297.481 315.036 297.467 315.001 297.455 314.973C297.416 314.882 297.386 314.796 297.354 314.704C297.284 314.52 297.222 314.336 297.166 314.149C297.041 313.78 296.93 313.407 296.812 313.036C296.88 313.423 296.947 313.804 297.022 314.19C297.056 314.38 297.098 314.576 297.139 314.765C297.163 314.858 297.181 314.961 297.205 315.054C297.221 315.104 297.238 315.154 297.254 315.204C297.258 315.226 297.27 315.254 297.283 315.282L297.284 315.289C296.162 316.407 293.454 317.849 289.673 318.93C289.666 318.931 289.666 318.931 289.658 318.933C289.646 318.905 289.633 318.877 289.621 318.849C289.584 318.765 289.552 318.673 289.521 318.58C289.451 318.396 289.388 318.212 289.333 318.025C289.207 317.656 289.089 317.284 288.978 316.912C289.046 317.3 289.113 317.68 289.189 318.066C289.222 318.256 289.265 318.452 289.305 318.641C289.33 318.734 289.348 318.837 289.372 318.931C289.384 318.958 289.388 318.98 289.4 319.008C286.763 319.737 284.487 320.04 282.864 320.025C282.86 320.003 282.849 319.983 282.839 319.969C282.808 319.877 282.769 319.786 282.739 319.701C282.676 319.516 282.613 319.331 282.551 319.146C282.433 318.775 282.314 318.404 282.203 318.031C282.263 318.413 282.331 318.8 282.407 319.186C282.448 319.375 282.481 319.565 282.523 319.761C282.546 319.848 282.568 319.927 282.583 320.014C281.355 319.975 280.535 319.727 280.279 319.343C280.262 319.286 280.211 319.129 280.181 319.044C280.038 318.571 279.79 317.726 279.599 317.066C281.116 317.808 284.601 317.48 287.984 316.62L288.687 318.599L288.244 316.552C288.474 316.489 288.704 316.425 288.941 316.361C291.789 315.542 294.322 314.432 295.903 313.309C296.524 312.861 296.975 312.427 297.228 312.02L297.861 314.328C297.853 314.541 297.724 314.79 297.493 315.064ZM287.513 311.382C292.716 309.899 296.677 310.052 296.978 311.115C297.1 311.553 296.605 312.206 295.613 312.908C294.08 314 291.603 315.085 288.805 315.887C283.602 317.37 279.642 317.224 279.34 316.154C279.04 315.092 282.319 312.871 287.513 311.382ZM297.451 310.979C296.944 309.214 291.884 309.624 287.385 310.914C282.879 312.199 278.36 314.526 278.867 316.291C278.871 316.313 279.449 318.313 279.705 319.165C279.715 319.224 279.726 319.282 279.735 319.333C279.756 319.412 279.792 319.489 279.836 319.564C279.846 319.578 279.847 319.585 279.855 319.591C280.787 321.07 285.568 320.611 289.809 319.404C294.049 318.189 298.346 316.052 298.361 314.3C298.36 314.21 298.343 314.115 298.319 314.021C298.299 313.95 298.272 313.879 298.231 313.818L297.451 310.979Z" fill="#020403"/>
<path d="M259.395 317.748L260.316 320.962C260.316 320.962 262.169 322.964 270.513 320.528C270.513 320.528 277.882 318.468 278.421 315.667L277.446 312.274C277.446 312.274 275.285 310.28 267.387 312.804C267.387 312.804 259.063 315.394 259.395 317.748Z" fill="#E8F79F"/>
<path d="M261.378 316.848C261.47 316.726 261.584 316.608 261.702 316.504C261.944 316.296 262.222 316.119 262.501 315.949C263.06 315.616 263.651 315.331 264.252 315.067C264.855 314.81 265.469 314.574 266.095 314.358C266.712 314.143 267.342 313.95 267.979 313.762C268.61 313.575 269.245 313.418 269.888 313.259C270.526 313.117 271.172 312.973 271.822 312.858C272.467 312.752 273.122 312.666 273.782 312.648C274.112 312.635 274.438 312.646 274.764 312.701C274.927 312.725 275.084 312.765 275.239 312.828C275.386 312.893 275.526 313.004 275.575 313.153C275.618 313.312 275.549 313.475 275.46 313.611C275.369 313.74 275.254 313.858 275.131 313.97C274.883 314.188 274.606 314.372 274.326 314.534C273.752 314.869 273.152 315.141 272.54 315.392C271.323 315.885 270.07 316.302 268.812 316.69C268.182 316.877 267.55 317.056 266.907 317.214C266.589 317.293 266.263 317.366 265.943 317.43C265.615 317.495 265.293 317.552 264.963 317.602C264.317 317.701 263.658 317.765 262.994 317.761C262.669 317.758 262.342 317.74 262.022 317.676C261.865 317.644 261.707 317.604 261.568 317.538C261.421 317.473 261.305 317.373 261.267 317.244C261.238 317.121 261.295 316.975 261.378 316.848ZM261.384 317.608C261.426 317.631 261.466 317.646 261.508 317.669C261.664 317.739 261.836 317.777 261.998 317.801C262.332 317.855 262.665 317.864 262.997 317.866C263.666 317.854 264.326 317.79 264.98 317.697C265.636 317.612 266.288 317.504 266.943 317.374C267.591 317.245 268.235 317.093 268.877 316.927C270.163 316.572 271.42 316.132 272.615 315.56C273.22 315.272 273.807 314.965 274.361 314.604C274.637 314.419 274.913 314.227 275.159 314.003C275.282 313.884 275.396 313.765 275.493 313.628C275.581 313.484 275.648 313.314 275.604 313.148C275.551 312.977 275.404 312.867 275.248 312.797C275.1 312.725 274.935 312.686 274.771 312.655C274.443 312.592 274.116 312.574 273.783 312.565C273.116 312.547 272.454 312.596 271.789 312.668C270.472 312.81 269.168 313.107 267.889 313.461C266.611 313.822 265.355 314.27 264.14 314.815C263.533 315.088 262.937 315.389 262.375 315.745C262.091 315.931 261.815 316.122 261.57 316.354C261.448 316.474 261.327 316.6 261.226 316.754C261.209 316.787 261.186 316.829 261.164 316.87C261.148 316.911 261.125 316.953 261.118 316.999C261.089 317.087 261.085 317.193 261.109 317.287C261.149 317.386 261.201 317.467 261.272 317.53C261.308 317.561 261.35 317.584 261.384 317.608Z" fill="#020403"/>
<path d="M277.853 316.573C277.84 316.545 277.819 316.511 277.814 316.482C277.775 316.391 277.737 316.299 277.707 316.214C277.644 316.029 277.581 315.845 277.518 315.66C277.4 315.289 277.282 314.917 277.171 314.545C277.231 314.926 277.307 315.313 277.375 315.7C277.416 315.889 277.449 316.079 277.498 316.274C277.515 316.369 277.539 316.462 277.565 316.563C277.581 316.613 277.589 316.657 277.605 316.707C277.618 316.735 277.623 316.764 277.635 316.792C277.643 316.791 277.644 316.798 277.644 316.798C276.515 317.917 273.807 319.359 270.033 320.439C270.025 320.44 270.018 320.442 270.011 320.443C269.998 320.415 269.986 320.387 269.973 320.359C269.942 320.267 269.903 320.176 269.873 320.09C269.81 319.906 269.748 319.721 269.685 319.536C269.567 319.165 269.449 318.794 269.338 318.421C269.397 318.803 269.466 319.19 269.541 319.576C269.582 319.765 269.616 319.955 269.665 320.15C269.682 320.245 269.706 320.338 269.731 320.44C269.735 320.461 269.748 320.489 269.751 320.511C267.115 321.248 264.847 321.549 263.222 321.527C263.213 321.514 263.201 321.493 263.198 321.471C263.16 321.387 263.129 321.295 263.097 321.202C263.029 321.026 262.966 320.841 262.91 320.655C262.785 320.285 262.667 319.914 262.556 319.542C262.623 319.922 262.691 320.309 262.765 320.688C262.8 320.885 262.841 321.074 262.883 321.27C262.905 321.349 262.92 321.437 262.943 321.523C261.714 321.476 260.895 321.236 260.639 320.852C260.614 320.796 260.563 320.639 260.539 320.545C260.397 320.08 260.149 319.227 259.958 318.575C261.467 319.311 264.959 318.982 268.343 318.122L269.046 320.101L268.596 318.062C268.833 317.998 269.063 317.934 269.292 317.864C272.141 317.052 274.681 315.941 276.255 314.82C276.884 314.37 277.328 313.937 277.588 313.529L278.221 315.837C278.213 316.05 278.083 316.299 277.853 316.573ZM267.873 312.891C273.068 311.409 277.028 311.555 277.337 312.624C277.459 313.055 276.963 313.707 275.973 314.417C274.439 315.509 271.955 316.595 269.157 317.398C263.961 318.879 260 318.726 259.7 317.663C259.392 316.602 262.678 314.38 267.873 312.891ZM277.811 312.488C277.302 310.716 272.243 311.133 267.736 312.417C263.231 313.709 258.718 316.028 259.226 317.8C259.23 317.822 259.802 319.824 260.065 320.674C260.068 320.734 260.077 320.785 260.094 320.842C260.116 320.921 260.152 320.998 260.195 321.073C260.197 321.081 260.207 321.094 260.208 321.101C261.147 322.579 265.927 322.12 270.169 320.913C274.402 319.699 278.697 317.555 278.713 315.811C278.719 315.712 278.702 315.617 278.679 315.53C278.659 315.459 278.624 315.389 278.59 315.327L277.811 312.488Z" fill="#020403"/>
<path d="M258.786 314.08L259.707 317.294C259.707 317.294 261.56 319.296 269.896 316.861C269.896 316.861 277.273 314.799 277.805 312L276.837 308.605C276.837 308.605 274.676 306.612 266.778 309.135C266.778 309.135 258.452 311.719 258.786 314.08Z" fill="#E8F79F"/>
<path d="M260.78 313.177C260.871 313.048 260.987 312.938 261.104 312.834C261.346 312.625 261.617 312.45 261.896 312.28C262.461 311.939 263.053 311.661 263.655 311.397C264.257 311.14 264.871 310.903 265.497 310.688C266.115 310.473 266.742 310.272 267.374 310.093C268.012 309.905 268.646 309.74 269.283 309.59C269.927 309.439 270.574 309.302 271.217 309.189C271.869 309.082 272.525 308.996 273.183 308.97C273.514 308.965 273.84 308.975 274.165 309.023C274.329 309.055 274.487 309.095 274.641 309.158C274.788 309.223 274.927 309.326 274.977 309.483C275.02 309.641 274.951 309.804 274.861 309.933C274.772 310.07 274.657 310.188 274.533 310.3C274.285 310.517 274.009 310.702 273.721 310.865C273.153 311.192 272.554 311.471 271.942 311.722C270.725 312.215 269.472 312.632 268.213 313.012C267.584 313.206 266.945 313.387 266.309 313.544C265.984 313.624 265.664 313.688 265.345 313.759C265.017 313.825 264.696 313.881 264.365 313.932C263.712 314.032 263.053 314.096 262.396 314.091C262.071 314.088 261.737 314.071 261.424 314.006C261.267 313.973 261.102 313.935 260.963 313.869C260.823 313.803 260.706 313.696 260.669 313.574C260.639 313.444 260.69 313.306 260.78 313.177ZM260.786 313.938C260.827 313.953 260.868 313.976 260.903 314C261.066 314.069 261.229 314.101 261.401 314.131C261.734 314.185 262.067 314.194 262.398 314.189C263.061 314.185 263.726 314.113 264.382 314.027C265.037 313.934 265.688 313.827 266.345 313.704C266.993 313.574 267.637 313.423 268.278 313.25C269.558 312.903 270.822 312.462 272.017 311.889C272.622 311.602 273.209 311.295 273.763 310.933C274.04 310.749 274.315 310.557 274.56 310.326C274.676 310.215 274.799 310.095 274.888 309.959C274.975 309.815 275.051 309.644 275.005 309.471C274.954 309.307 274.806 309.197 274.65 309.126C274.502 309.054 274.337 309.016 274.173 308.984C273.845 308.922 273.511 308.905 273.185 308.895C272.519 308.877 271.856 308.926 271.191 308.998C269.867 309.141 268.569 309.43 267.291 309.791C266.013 310.152 264.758 310.599 263.542 311.145C262.935 311.418 262.34 311.719 261.777 312.075C261.493 312.26 261.218 312.452 260.965 312.685C260.843 312.805 260.729 312.93 260.627 313.076C260.604 313.118 260.588 313.158 260.564 313.193C260.55 313.241 260.527 313.282 260.513 313.33C260.491 313.417 260.487 313.523 260.511 313.617C260.544 313.717 260.603 313.797 260.674 313.859C260.71 313.891 260.751 313.906 260.786 313.938Z" fill="#020403"/>
<path d="M277.256 312.904C277.235 312.87 277.222 312.842 277.21 312.814C277.178 312.722 277.14 312.63 277.108 312.538C277.047 312.36 276.984 312.176 276.921 311.991C276.803 311.62 276.685 311.248 276.574 310.876C276.634 311.257 276.702 311.645 276.776 312.024C276.819 312.22 276.852 312.41 276.894 312.606C276.918 312.7 276.942 312.793 276.968 312.894C276.975 312.938 276.992 312.988 277.008 313.038C277.02 313.066 277.024 313.088 277.037 313.116C277.038 313.123 277.038 313.123 277.047 313.129C275.917 314.248 273.208 315.683 269.427 316.764C269.427 316.764 269.421 316.773 269.414 316.774C269.401 316.746 269.389 316.718 269.375 316.683C269.345 316.598 269.306 316.507 269.275 316.414C269.213 316.236 269.151 316.052 269.088 315.867C268.97 315.496 268.851 315.125 268.741 314.752C268.8 315.134 268.869 315.521 268.943 315.9C268.985 316.096 269.018 316.286 269.061 316.482C269.085 316.576 269.109 316.669 269.134 316.771C269.138 316.792 269.15 316.82 269.154 316.842C266.517 317.571 264.25 317.88 262.625 317.858C262.615 317.845 262.604 317.824 262.6 317.802C262.563 317.718 262.532 317.626 262.493 317.535C262.43 317.35 262.367 317.165 262.306 316.987C262.188 316.616 262.07 316.245 261.957 315.865C262.026 316.253 262.093 316.633 262.168 317.019C262.202 317.209 262.244 317.405 262.285 317.594C262.3 317.682 262.323 317.768 262.346 317.854C261.117 317.807 260.298 317.567 260.042 317.183C260.015 317.12 259.965 316.963 259.942 316.876C259.8 316.411 259.552 315.558 259.361 314.906C260.87 315.642 264.362 315.313 267.738 314.454L268.449 316.432L267.998 314.386C268.236 314.329 268.466 314.265 268.695 314.195C271.544 313.383 274.084 312.272 275.656 311.143C276.287 310.701 276.731 310.268 276.99 309.86L277.622 312.161C277.607 312.375 277.486 312.63 277.256 312.904ZM267.276 309.222C272.47 307.733 276.431 307.886 276.739 308.948C276.861 309.386 276.366 310.038 275.376 310.748C273.842 311.84 271.358 312.926 268.559 313.721C263.364 315.21 259.403 315.057 259.095 313.996C258.794 312.926 262.074 310.712 267.276 309.222ZM277.206 308.82C276.705 307.047 271.646 307.464 267.139 308.748C262.634 310.04 258.121 312.359 258.629 314.131C258.633 314.153 259.205 316.155 259.468 317.005C259.469 317.058 259.48 317.116 259.497 317.173C259.519 317.252 259.555 317.329 259.598 317.404C259.6 317.412 259.608 317.418 259.611 317.432C260.548 318.902 265.33 318.451 269.563 317.238C273.805 316.03 278.1 313.886 278.116 312.142C278.114 312.044 278.105 311.948 278.082 311.861C278.062 311.79 278.027 311.72 277.992 311.651L277.206 308.82Z" fill="#020403"/>
<path d="M289.114 320.34C289.875 324.653 286.996 328.763 282.684 329.524C278.371 330.284 274.26 327.406 273.5 323.093C272.74 318.781 275.618 314.67 279.93 313.91C284.243 313.149 288.354 316.027 289.114 320.34Z" fill="#E8F79F"/>
<path d="M280.033 314.103C275.859 314.839 273.058 318.83 273.795 323.011C274.531 327.185 278.53 329.985 282.704 329.249C286.877 328.513 289.677 324.515 288.941 320.341C288.204 316.159 284.207 313.367 280.033 314.103ZM282.776 329.658C278.375 330.434 274.162 327.484 273.386 323.084C272.61 318.683 275.56 314.47 279.961 313.694C284.361 312.918 288.575 315.868 289.351 320.268C290.126 324.669 287.176 328.882 282.776 329.658Z" fill="#020403"/>
<path d="M287.744 320.55C287.672 320.141 287.556 319.74 287.406 319.359C287.248 318.972 287.055 318.607 286.821 318.264C286.361 317.576 285.754 316.997 285.072 316.552C283.711 315.669 282.027 315.31 280.443 315.605C280.05 315.682 279.661 315.788 279.287 315.929C278.906 316.079 278.553 316.255 278.207 316.474C277.528 316.895 276.927 317.461 276.462 318.116C275.525 319.427 275.106 321.113 275.362 322.734C275.489 323.541 275.771 324.328 276.203 325.028C276.643 325.726 277.225 326.332 277.903 326.801C278.238 327.035 278.603 327.227 278.986 327.386C279.361 327.546 279.758 327.664 280.157 327.745C280.96 327.897 281.789 327.894 282.583 327.739C282.976 327.662 283.371 327.547 283.744 327.399C284.118 327.257 284.484 327.065 284.824 326.854C284.912 326.801 284.992 326.741 285.081 326.688C285.161 326.629 285.241 326.569 285.321 326.51C285.401 326.451 285.479 326.384 285.559 326.325C285.638 326.258 285.715 326.184 285.787 326.119C286.086 325.848 286.365 325.55 286.608 325.22C287.096 324.569 287.462 323.819 287.666 323.014C287.761 322.613 287.817 322.203 287.834 321.786C287.852 321.376 287.817 320.96 287.744 320.55ZM287.788 320.543C287.861 320.952 287.896 321.368 287.895 321.79C287.893 322.205 287.846 322.62 287.768 323.034C287.605 323.861 287.294 324.662 286.823 325.371C286.591 325.721 286.32 326.063 286.017 326.357C285.94 326.431 285.864 326.512 285.785 326.579C285.706 326.646 285.622 326.721 285.543 326.788C285.457 326.855 285.371 326.923 285.284 326.984C285.196 327.045 285.109 327.105 285.022 327.166C284.305 327.631 283.485 327.942 282.644 328.083C281.799 328.209 280.933 328.173 280.107 327.972C279.696 327.864 279.294 327.724 278.915 327.542C278.53 327.368 278.168 327.153 277.824 326.912C276.455 325.94 275.459 324.443 275.135 322.774C274.973 321.943 274.963 321.071 275.139 320.233C275.308 319.397 275.657 318.597 276.144 317.893C276.629 317.182 277.253 316.574 277.977 316.107C278.7 315.633 279.519 315.323 280.367 315.173C281.216 315.031 282.093 315.042 282.928 315.249C283.761 315.442 284.552 315.822 285.229 316.329C285.915 316.841 286.488 317.486 286.916 318.202C287.13 318.563 287.317 318.938 287.462 319.334C287.606 319.723 287.716 320.133 287.788 320.543Z" fill="#020403"/>
<path d="M151.984 276.858L152.99 281.708L153.959 286.564L155.912 296.267L159.343 315.771L162.781 335.267L164.5 345.018L164.931 347.459L165.142 348.658C165.194 348.913 165.377 349.137 165.622 349.244C165.737 349.299 165.869 349.321 165.998 349.321C166.035 349.322 166.065 349.317 166.094 349.312C166.124 349.314 166.196 349.294 166.24 349.286L166.54 349.233L167.761 349.018L170.202 348.588L209.193 341.712L228.696 338.274L238.488 336.788L243.376 336.039L248.276 335.318L243.424 336.31L238.576 337.285L228.866 339.238L209.363 342.677L170.372 349.552L167.931 349.983L166.71 350.198L166.41 350.251C166.35 350.254 166.315 350.268 166.241 350.273C166.175 350.285 166.102 350.298 166.034 350.295C165.757 350.306 165.468 350.251 165.213 350.131C164.697 349.897 164.303 349.417 164.191 348.864L163.973 347.628L163.543 345.187L161.823 335.435L158.385 315.94L154.939 296.438L153.448 286.654L152.705 281.758L151.984 276.858Z" fill="#020403"/>
<path d="M155.266 253.555L160.533 287.659L153.826 253.809L155.266 253.555Z" fill="#020403"/>
<path d="M281.785 231.246L287.059 265.349L280.345 231.5L281.785 231.246Z" fill="#020403"/>
<path d="M189.815 253.816L240.465 244.885L239.186 243.618L190.583 252.188L189.815 253.816ZM241.98 245.357L188.545 254.779L190.084 251.538L239.433 242.836L241.98 245.357Z" fill="#020403"/>
<path d="M154.58 274.952L155.422 278.489L156.244 282.038L157.885 289.12L159.489 296.208L161.056 303.303C161.573 305.677 162.139 308.034 162.691 310.394C163.243 312.754 163.707 315.129 164.083 317.52C164.453 319.919 164.779 322.319 165.047 324.736C165.3 327.156 165.517 329.583 165.573 332.037L165.295 332.086C164.437 329.788 163.732 327.455 163.071 325.115C162.418 322.78 161.83 320.427 161.291 318.057C160.754 315.695 160.297 313.318 159.928 310.926C159.565 308.526 159.218 306.13 158.819 303.735L157.637 296.565L156.492 289.388L155.383 282.197L154.833 278.608L154.304 275.008L154.58 274.952Z" fill="#E3F7F7"/>
<path d="M165.735 335.551C166.138 336.55 166.487 337.551 166.837 338.552L167.345 340.061L167.809 341.584C167.951 342.087 168.166 342.584 168.346 343.088C168.524 343.584 168.622 344.102 168.633 344.635C168.643 345.161 168.596 345.704 168.497 346.257C168.384 346.812 168.226 347.367 167.923 347.956L167.638 348.006C167.144 347.558 166.813 347.089 166.516 346.606C166.227 346.122 166.004 345.626 165.834 345.129C165.662 344.624 165.578 344.103 165.575 343.576C165.571 343.042 165.604 342.501 165.565 341.98L165.481 340.39L165.441 338.799C165.428 337.738 165.414 336.678 165.45 335.601L165.735 335.551Z" fill="#E3F7F7"/>
<path d="M151.083 93.9833C150.966 94.004 150.854 94.0087 150.732 94.0001C149.945 93.9428 149.357 93.2551 149.415 92.476C150.418 79.1845 154.356 69.845 161.119 64.7257C168.3 59.284 175.944 60.7474 176.266 60.8188C177.038 60.969 177.532 61.7185 177.382 62.4912C177.223 63.2578 176.475 63.759 175.709 63.6003C175.6 63.5818 168.909 62.3571 162.791 67.0237C156.731 71.6422 153.188 80.2715 152.256 92.6837C152.2 93.3493 151.712 93.8725 151.083 93.9833Z" fill="#E3F7F7"/>
<path d="M148.959 105.853C148.798 105.881 148.625 105.882 148.453 105.852C147.682 105.709 147.175 104.969 147.318 104.198L148.488 97.7958C148.631 97.0245 149.377 96.5159 150.149 96.6588C150.92 96.8016 151.428 97.5413 151.285 98.3127L150.113 104.707C150.002 105.315 149.529 105.752 148.959 105.853Z" fill="#E3F7F7"/>
</g>
<defs>
<clipPath id="clip0_53_3381">
<rect width="380.986" height="339.07" fill="white" transform="translate(0 66.1575) rotate(-10)"/>
</clipPath>
</defs>
</svg>
