<svg width="128" height="128" viewBox="0 0 128 128" fill="none" xmlns="http://www.w3.org/2000/svg">
<g clip-path="url(#clip0_42_720)">
<path d="M63.5043 3.4199C30.2864 3.4199 3.25987 30.4533 3.25987 63.6642C3.25987 96.889 30.2864 123.908 63.5043 123.908C96.7222 123.908 123.747 96.889 123.747 63.6642C123.747 30.4533 96.7222 3.4199 63.5043 3.4199ZM63.5043 127.164C28.4888 127.164 0 98.6838 0 63.6642C0 28.6446 28.4888 0.164185 63.5043 0.164185C98.5198 0.164185 127.007 28.6446 127.007 63.6642C127.007 98.6838 98.5198 127.164 63.5043 127.164Z" fill="#020403"/>
<path d="M114.23 63.6563C114.198 60.4145 113.874 57.1588 113.202 53.9866C112.506 50.8283 111.531 47.7117 110.197 44.776C107.574 38.8629 103.703 33.5759 99.0508 29.2071C89.708 20.5114 77.2195 15.4887 64.6002 15.6C61.453 15.6278 58.3072 15.92 55.2226 16.5183C52.1367 17.1305 49.1161 18.0487 46.1943 19.2174C40.3577 21.5827 34.9844 25.1027 30.4765 29.5271C21.4496 38.3898 15.9677 50.8283 15.7006 63.6563C15.5921 70.0563 16.6704 76.526 19.1052 82.5087C21.5039 88.4914 25.1728 93.9592 29.7655 98.4949C32.0696 100.749 34.606 102.766 37.3107 104.505C40.0266 106.231 42.9066 107.678 45.8924 108.832C51.8626 111.142 58.2571 112.213 64.6002 112.088C67.7752 112.046 70.9307 111.685 74.0347 111.072C77.136 110.446 80.1691 109.514 83.1076 108.346C83.845 108.053 84.5587 107.705 85.2864 107.399C86.0071 107.065 86.7056 106.69 87.4165 106.342C88.1233 105.994 88.8092 105.591 89.5077 105.215C90.195 104.825 90.8628 104.394 91.5432 103.991C94.2076 102.265 96.7579 100.331 99.0855 98.1471C103.728 93.7645 107.599 88.4635 110.222 82.5504C111.556 79.6008 112.527 76.4982 113.22 73.3259C113.888 70.1537 114.204 66.9119 114.23 63.6563ZM114.556 63.6563C114.572 66.9259 114.255 70.1954 113.657 73.4094C113.084 76.6373 112.156 79.7956 110.994 82.8704C108.63 89.0061 105.107 94.7523 100.533 99.5941C98.2494 102.001 95.7366 104.227 92.9832 106.133C92.2848 106.592 91.6002 107.079 90.8907 107.525C90.1699 107.942 89.4632 108.401 88.7299 108.805C87.9856 109.18 87.2523 109.598 86.4954 109.946C85.7316 110.293 84.9803 110.669 84.2067 110.989C78.0362 113.619 71.2911 114.899 64.6002 114.801C57.9065 114.676 51.2657 113.187 45.1967 110.502C42.1608 109.152 39.2669 107.525 36.5664 105.619C33.8519 103.726 31.3266 101.584 29.0184 99.2324C19.7577 89.8688 14.1535 76.9573 13.917 63.6563C13.7806 57.0336 14.909 50.3274 17.3855 44.0943C19.8398 37.8751 23.5964 32.1567 28.3088 27.3706C33.0198 22.5705 38.6839 18.7165 44.8934 16.0869C51.0987 13.4434 57.8634 12.1356 64.6002 12.1217C71.337 12.1912 78.0863 13.513 84.2582 16.1983C90.4468 18.8418 96.0205 22.8349 100.567 27.6906C105.134 32.5463 108.655 38.2924 111.019 44.4282C112.181 47.503 113.105 50.6752 113.675 53.9031C114.269 57.117 114.578 60.3867 114.556 63.6563Z" fill="#020403"/>
<path d="M49.5262 34.1015C48.0198 34.1015 46.4942 34.3065 44.9637 34.7166C38.0119 36.5799 32.0896 42.5017 30.2274 49.4486C28.5323 55.7744 30.3812 62.0399 35.4316 67.0873L60.1631 91.8176C61.055 92.7101 62.2417 93.2046 63.5039 93.2046C64.7654 93.2046 65.9522 92.7101 66.8446 91.8176L91.5755 67.0873C99.749 58.9162 96.4299 48.1521 89.8871 41.6092C83.3442 35.0663 72.5789 31.7436 64.406 39.9207L63.5039 40.8193L62.6017 39.9207C58.7731 36.0915 54.2467 34.1015 49.5262 34.1015ZM63.5039 95.7554C61.5597 95.7554 59.7325 94.9956 58.3582 93.6267L33.6273 68.8903C27.9045 63.1676 25.8217 56.0337 27.7622 48.7913C29.8529 40.9881 36.5001 34.3366 44.3028 32.2501C51.1707 30.4109 57.9463 32.1898 63.5081 37.2553C67.5803 33.6251 72.4908 32.0391 77.7818 32.6783C82.755 33.2753 87.695 35.808 91.6913 39.8001C95.6876 43.7982 98.2179 48.737 98.8161 53.712C99.5006 59.4047 97.6209 64.651 93.3804 68.8903L68.6489 93.6267C67.2746 94.9956 65.4474 95.7554 63.5039 95.7554Z" fill="#020403"/>
<path d="M50.3772 36.5799C49.9654 36.6221 49.5541 36.6884 49.1495 36.7728C48.7436 36.8452 48.3408 36.9356 47.9422 37.0382C47.1462 37.2432 46.3665 37.5025 45.6115 37.804C44.8547 38.1055 44.1099 38.4312 43.4026 38.8171C43.2247 38.9136 43.0486 39.0101 42.8695 39.1065L42.3509 39.4141C42.1796 39.5166 42.0023 39.6131 41.8371 39.7277L41.3396 40.0654C40.0328 40.9941 38.799 42.0192 37.7679 43.2313C36.7198 44.4193 35.8183 45.7399 35.1169 47.157C34.3879 48.556 33.8916 50.0696 33.5798 51.6194C33.4845 52.0054 33.4447 52.3974 33.3808 52.7893C33.3235 53.1813 33.3066 53.5793 33.2668 53.9713C33.2451 54.7673 33.2228 55.5633 33.2916 56.3593C33.4224 57.9392 33.7637 59.5191 34.3806 61.0146C34.6743 61.7684 35.0325 62.4981 35.451 63.2097C35.6699 63.5534 35.8858 63.9032 36.1306 64.2349C36.3544 64.5846 36.6143 64.9102 36.8633 65.2479L36.7904 65.3203C36.2102 64.7173 35.6675 64.0781 35.1766 63.4027C34.6924 62.7213 34.2637 61.9976 33.8964 61.2499C33.1571 59.7483 32.6976 58.1141 32.495 56.4498C32.0753 53.1271 32.7157 49.6958 34.2052 46.6987C34.965 45.2032 35.9298 43.8163 37.0581 42.58C38.1846 41.3438 39.4986 40.2825 40.9097 39.39C42.3256 38.4975 43.8537 37.7859 45.4493 37.2914C47.0467 36.803 48.702 36.4834 50.3803 36.4774L50.3772 36.5799Z" fill="#020403"/>
</g>
<defs>
<clipPath id="clip0_42_720">
<rect width="127.007" height="127" fill="white" transform="translate(0 0.164062)"/>
</clipPath>
</defs>
</svg>
