<svg width="447" height="400" viewBox="0 0 447 400" fill="none" xmlns="http://www.w3.org/2000/svg">
<g clip-path="url(#clip0_53_3463)">
<path d="M170.919 49.7103C170.919 49.7103 123.142 9.1803 54.1266 47.0726C54.1266 47.0726 1.13191 71.6762 2.98014 146.26C2.98014 146.26 0.823573 199.424 13.1481 237.707L15.9214 246.421C15.9214 246.421 57.5156 314.511 99.7264 338.85C99.7264 338.85 183.843 400.164 207.874 398.318C207.874 398.318 304.542 374.905 325.68 355.186C325.68 355.186 408.76 310.509 432.481 259.973L440.758 243.274L444.496 155.838C444.496 155.838 443.396 65.7913 359.061 46.7269L170.919 49.7103Z" fill="#E3F7F7"/>
<path d="M125.71 33.0111C125.71 33.0111 6.57473 176.303 203.763 360.535L183.225 320.059C183.225 320.059 137.92 226.793 141.676 161.687C141.676 161.687 142.186 86.2386 170.919 49.7106C170.919 49.7106 140.085 27.3719 125.71 33.0111Z" fill="#299092"/>
<path d="M4.21571 154.501C4.21571 154.501 17.6663 207.365 37.3855 220.781C37.3855 220.781 38.6089 274.545 44.7757 287.033L17.8718 253.798L13.1476 237.708L3.34888 175.876L4.21571 154.501Z" fill="#299092"/>
<path d="M244.684 122.348C244.684 122.348 229.494 128.779 230.04 152.5C230.04 152.5 231.413 173.656 260.683 179.414C260.683 179.414 289.243 184.134 295.61 152.918C295.61 152.918 300.94 121.384 265.822 117.173C265.822 117.173 251.314 117.209 244.684 122.348Z" fill="#E8F79F"/>
<path d="M263.357 118.382C246.349 118.382 232.514 130.234 232.514 144.796C232.514 159.367 246.349 171.219 263.357 171.219C280.357 171.219 294.192 159.367 294.192 144.796C294.192 130.234 280.357 118.382 263.357 118.382ZM263.357 173.638C245.021 173.638 230.104 160.695 230.104 144.796C230.104 128.906 245.021 115.963 263.357 115.963C281.685 115.963 296.602 128.906 296.602 144.796C296.602 160.695 281.685 173.638 263.357 173.638Z" fill="#020403"/>
<path d="M284.632 144.923C284.623 143.623 284.459 142.331 284.122 141.076C283.777 139.83 283.295 138.629 282.658 137.501C281.403 135.255 279.602 133.354 277.555 131.844C273.444 128.86 268.387 127.342 263.357 127.369C260.838 127.369 258.327 127.769 255.935 128.533C253.543 129.306 251.269 130.47 249.295 132.026C247.321 133.572 245.639 135.5 244.429 137.701C243.228 139.903 242.501 142.386 242.437 144.923C242.383 147.452 242.928 150.026 244.102 152.318C245.257 154.61 246.967 156.62 248.986 158.203C249.996 159.003 251.096 159.685 252.233 160.268C253.388 160.841 254.58 161.314 255.808 161.677C258.263 162.414 260.819 162.723 263.357 162.669C268.423 162.56 273.453 161.032 277.573 158.012C279.611 156.502 281.412 154.601 282.667 152.345C283.313 151.227 283.786 150.017 284.131 148.771C284.459 147.515 284.623 146.224 284.632 144.923ZM284.795 144.923C284.804 147.543 284.177 150.153 283.04 152.536C281.894 154.91 280.238 157.066 278.21 158.803C276.191 160.559 273.808 161.914 271.27 162.778C268.732 163.651 266.031 164.051 263.357 164.006C260.683 163.933 258.027 163.442 255.526 162.523C254.28 162.069 253.07 161.514 251.924 160.85C250.769 160.204 249.677 159.449 248.659 158.612C246.612 156.948 244.866 154.901 243.62 152.564C242.992 151.399 242.492 150.162 242.137 148.88C241.782 147.597 241.591 146.26 241.555 144.923C241.482 142.249 242.073 139.53 243.283 137.11C244.484 134.682 246.257 132.553 248.349 130.843C250.441 129.133 252.852 127.823 255.407 126.95C257.954 126.068 260.665 125.659 263.357 125.65C266.049 125.686 268.751 126.105 271.288 127.005C273.835 127.887 276.209 129.261 278.219 131.025C280.248 132.772 281.903 134.927 283.049 137.301C284.186 139.684 284.814 142.304 284.795 144.923Z" fill="#020403"/>
<path d="M231.313 138.538C228.949 148.125 231.359 158.43 237.198 165.989C238.663 167.872 240.336 169.582 242.183 171.082C244.029 172.565 246.057 173.82 248.204 174.793C250.36 175.767 252.606 176.467 254.962 176.876C257.318 177.313 259.71 177.549 262.102 177.604C266.886 177.74 271.707 177.113 276.2 175.548C278.447 174.766 280.603 173.738 282.585 172.447C284.559 171.155 286.378 169.609 287.97 167.844C291.126 164.288 293.291 159.867 294.537 155.183C295.81 150.499 296.229 145.578 296.256 140.658C296.756 145.551 296.675 150.554 295.683 155.456C295.174 157.903 294.419 160.313 293.391 162.614C292.354 164.916 291.008 167.098 289.389 169.063C286.16 173.02 281.73 175.93 276.973 177.686C272.189 179.45 267.086 180.105 262.047 180.014C259.519 179.941 257.009 179.669 254.525 179.196C252.033 178.741 249.55 177.968 247.24 176.867C242.628 174.657 238.608 171.255 235.688 167.108C234.215 165.052 232.978 162.824 232.032 160.495C231.086 158.158 230.395 155.72 230.013 153.246C229.24 148.298 229.64 143.177 231.313 138.538Z" fill="#020403"/>
<path d="M210.366 188.546C210.366 188.546 195.176 194.986 195.731 218.707C195.731 218.707 197.095 239.863 226.365 245.612C226.365 245.612 254.925 250.341 261.292 219.116C261.292 219.116 266.631 187.591 231.504 183.38C231.504 183.38 216.997 183.407 210.366 188.546Z" fill="#E8F79F"/>
<path d="M229.04 184.58C212.031 184.58 198.206 196.441 198.206 211.003C198.206 225.574 212.031 237.426 229.04 237.426C246.039 237.426 259.874 225.574 259.874 211.003C259.874 196.441 246.039 184.58 229.04 184.58ZM229.04 239.836C210.703 239.836 195.786 226.902 195.786 211.003C195.786 195.104 210.703 182.17 229.04 182.17C247.376 182.17 262.284 195.104 262.284 211.003C262.284 226.902 247.376 239.836 229.04 239.836Z" fill="#020403"/>
<path d="M250.323 211.13C250.305 209.83 250.141 208.538 249.805 207.283C249.468 206.037 248.986 204.827 248.34 203.708C247.085 201.462 245.284 199.561 243.247 198.051C239.127 195.068 234.079 193.54 229.04 193.567C226.52 193.576 224.01 193.976 221.618 194.74C219.225 195.504 216.961 196.678 214.978 198.233C213.004 199.779 211.321 201.707 210.121 203.909C208.911 206.11 208.192 208.584 208.12 211.13C208.065 213.659 208.62 216.233 209.784 218.516C210.939 220.817 212.649 222.818 214.669 224.41C215.687 225.201 216.779 225.893 217.925 226.475C219.071 227.048 220.271 227.521 221.499 227.885C223.946 228.621 226.502 228.931 229.04 228.876C234.106 228.767 239.145 227.23 243.265 224.219C245.302 222.709 247.094 220.799 248.359 218.553C248.995 217.434 249.477 216.215 249.814 214.969C250.15 213.723 250.305 212.422 250.323 211.13ZM250.478 211.13C250.487 213.75 249.859 216.36 248.722 218.743C247.576 221.117 245.921 223.264 243.893 225.01C241.873 226.766 239.5 228.121 236.953 228.976C234.415 229.858 231.714 230.249 229.04 230.213C226.365 230.14 223.71 229.64 221.208 228.73C219.962 228.276 218.752 227.721 217.606 227.057C216.46 226.402 215.36 225.656 214.341 224.819C212.304 223.155 210.557 221.108 209.302 218.771C208.684 217.606 208.183 216.36 207.82 215.078C207.474 213.795 207.274 212.467 207.246 211.13C207.174 208.447 207.765 205.737 208.975 203.308C210.166 200.88 211.94 198.751 214.032 197.05C216.124 195.341 218.534 194.031 221.09 193.148C223.646 192.266 226.347 191.857 229.04 191.857C231.732 191.893 234.433 192.312 236.971 193.212C239.518 194.094 241.892 195.468 243.911 197.223C245.93 198.979 247.586 201.125 248.732 203.508C249.878 205.891 250.496 208.502 250.478 211.13Z" fill="#020403"/>
<path d="M196.996 204.736C194.64 214.332 197.041 224.637 202.89 232.187C204.354 234.079 206.028 235.789 207.865 237.28C209.711 238.772 211.74 240.027 213.895 240.991C216.051 241.965 218.298 242.674 220.644 243.083C223 243.511 225.392 243.747 227.793 243.802C232.578 243.947 237.398 243.32 241.882 241.746C244.129 240.973 246.285 239.945 248.268 238.654C250.25 237.353 252.07 235.816 253.652 234.042C256.808 230.495 258.982 226.074 260.219 221.39C261.502 216.706 261.911 211.785 261.947 206.865C262.439 211.758 262.357 216.761 261.365 221.663C260.856 224.11 260.101 226.511 259.073 228.821C258.036 231.122 256.69 233.296 255.071 235.261C251.842 239.227 247.422 242.128 242.656 243.893C237.871 245.648 232.769 246.312 227.73 246.212C225.21 246.149 222.691 245.876 220.208 245.403C217.725 244.948 215.232 244.166 212.931 243.074C208.311 240.855 204.29 237.453 201.371 233.315C199.897 231.259 198.669 229.031 197.714 226.693C196.777 224.355 196.086 221.927 195.695 219.453C194.922 214.505 195.322 209.384 196.996 204.736Z" fill="#020403"/>
<path d="M325.68 65.6004C325.316 66.4008 416.463 73.0771 437.101 185.471C437.101 185.471 458.057 131.498 421.693 87.4391C421.693 87.4391 402.083 57.0415 360.898 46.0449C360.898 46.0449 327.554 61.471 325.68 65.6004Z" fill="#299092"/>
<path d="M365.892 170.245C365.892 170.245 350.702 176.676 351.257 200.397C351.257 200.397 352.622 221.554 381.891 227.311C381.891 227.311 410.451 232.032 416.818 200.816C416.818 200.816 422.148 169.282 387.03 165.07C387.03 165.07 372.523 165.106 365.892 170.245Z" fill="#E8F79F"/>
<path d="M384.565 166.28C367.556 166.28 353.731 178.131 353.731 192.703C353.731 207.265 367.556 219.116 384.565 219.116C401.565 219.116 415.399 207.265 415.399 192.703C415.399 178.131 401.565 166.28 384.565 166.28ZM384.565 221.536C366.229 221.536 351.312 208.602 351.312 192.703C351.312 176.803 366.229 163.87 384.565 163.87C402.893 163.87 417.81 176.803 417.81 192.703C417.81 208.602 402.893 221.536 384.565 221.536Z" fill="#020403"/>
<path d="M405.849 192.821C405.831 191.52 405.667 190.229 405.33 188.983C404.985 187.727 404.512 186.527 403.866 185.408C402.611 183.152 400.81 181.251 398.772 179.741C394.652 176.758 389.604 175.239 384.565 175.267C382.046 175.267 379.535 175.667 377.143 176.44C374.751 177.204 372.486 178.377 370.503 179.923C368.53 181.47 366.847 183.398 365.646 185.599C364.437 187.8 363.718 190.283 363.645 192.821C363.591 195.359 364.146 197.924 365.31 200.216C366.465 202.508 368.175 204.518 370.194 206.11C371.213 206.901 372.304 207.583 373.45 208.165C374.596 208.738 375.797 209.211 377.016 209.575C379.472 210.312 382.027 210.621 384.565 210.567C389.631 210.457 394.67 208.929 398.782 205.919C400.828 204.4 402.62 202.499 403.884 200.243C404.521 199.124 405.003 197.914 405.34 196.668C405.676 195.413 405.831 194.122 405.849 192.821ZM406.003 192.821C406.013 195.441 405.385 198.06 404.248 200.434C403.102 202.808 401.447 204.964 399.418 206.701C397.399 208.456 395.025 209.812 392.478 210.676C389.941 211.549 387.239 211.949 384.565 211.904C381.891 211.831 379.235 211.34 376.734 210.43C375.488 209.966 374.278 209.411 373.132 208.747C371.986 208.102 370.885 207.347 369.867 206.51C367.82 204.845 366.083 202.799 364.828 200.461C364.2 199.297 363.709 198.06 363.345 196.778C362.999 195.495 362.799 194.158 362.772 192.821C362.699 190.147 363.291 187.427 364.5 185.008C365.692 182.579 367.465 180.451 369.557 178.741C371.649 177.031 374.06 175.721 376.616 174.848C379.171 173.966 381.873 173.557 384.565 173.547C387.257 173.584 389.959 174.002 392.497 174.903C395.043 175.785 397.417 177.158 399.436 178.923C401.456 180.669 403.111 182.825 404.257 185.199C405.394 187.582 406.022 190.202 406.003 192.821Z" fill="#020403"/>
<path d="M352.521 186.436C350.156 196.022 352.567 206.337 358.415 213.886C359.87 215.769 361.553 217.479 363.391 218.98C365.237 220.462 367.265 221.718 369.412 222.691C371.577 223.664 373.814 224.364 376.17 224.774C378.526 225.21 380.918 225.447 383.31 225.501C388.103 225.638 392.924 225.01 397.408 223.446C399.655 222.664 401.81 221.636 403.793 220.344C405.776 219.053 407.595 217.506 409.178 215.742C412.334 212.185 414.508 207.765 415.745 203.081C417.027 198.396 417.437 193.476 417.464 188.555C417.964 193.449 417.882 198.46 416.891 203.354C416.382 205.8 415.627 208.211 414.599 210.512C413.562 212.813 412.216 214.996 410.597 216.961C407.368 220.917 402.938 223.828 398.181 225.583C393.397 227.348 388.294 228.003 383.255 227.912C380.736 227.839 378.216 227.566 375.733 227.093C373.241 226.638 370.758 225.865 368.448 224.765C363.836 222.554 359.816 219.153 356.896 215.014C355.423 212.95 354.195 210.721 353.24 208.393C352.303 206.055 351.612 203.617 351.221 201.143C350.447 196.195 350.848 191.074 352.521 186.436Z" fill="#020403"/>
<path d="M322.196 88.9399C322.196 88.9399 307.007 95.3795 307.552 119.101C307.552 119.101 308.926 140.257 338.195 146.006C338.195 146.006 366.756 150.735 373.114 119.51C373.114 119.51 378.453 87.9757 343.325 83.7735C343.325 83.7735 328.827 83.8008 322.196 88.9399Z" fill="#E8F79F"/>
<path d="M340.861 84.9742C323.861 84.9742 310.027 96.8258 310.027 111.397C310.027 125.968 323.861 137.82 340.861 137.82C357.869 137.82 371.695 125.968 371.695 111.397C371.695 96.8258 357.869 84.9742 340.861 84.9742ZM340.861 140.23C322.533 140.23 307.616 127.296 307.616 111.397C307.616 95.4978 322.533 82.5639 340.861 82.5639C359.197 82.5639 374.114 95.4978 374.114 111.397C374.114 127.296 359.197 140.23 340.861 140.23Z" fill="#020403"/>
<path d="M362.144 111.515C362.126 110.224 361.963 108.923 361.635 107.677C361.29 106.431 360.808 105.221 360.171 104.102C358.907 101.847 357.115 99.9458 355.068 98.445C350.948 95.4526 345.9 93.9336 340.87 93.9608C338.35 93.9699 335.84 94.3702 333.439 95.1342C331.047 95.8982 328.782 97.0715 326.808 98.6177C324.825 100.173 323.152 102.092 321.942 104.293C320.741 106.495 320.014 108.978 319.95 111.515C319.886 114.053 320.441 116.627 321.615 118.91C322.761 121.202 324.471 123.212 326.49 124.804C327.508 125.595 328.6 126.287 329.746 126.869C330.901 127.442 332.093 127.906 333.321 128.269C335.767 129.006 338.332 129.325 340.87 129.261C345.936 129.161 350.966 127.624 355.086 124.613C357.124 123.094 358.916 121.193 360.18 118.937C360.817 117.819 361.299 116.609 361.644 115.363C361.972 114.108 362.135 112.816 362.144 111.515ZM362.308 111.515C362.317 114.144 361.681 116.754 360.544 119.128C359.398 121.511 357.742 123.658 355.714 125.404C353.704 127.151 351.321 128.515 348.774 129.37C346.236 130.252 343.544 130.643 340.87 130.607C338.187 130.534 335.531 130.034 333.039 129.124C331.792 128.67 330.583 128.106 329.437 127.451C328.282 126.796 327.19 126.05 326.171 125.213C324.125 123.54 322.379 121.493 321.123 119.165C320.505 117.991 320.005 116.754 319.65 115.472C319.295 114.189 319.095 112.862 319.068 111.515C318.995 108.841 319.586 106.122 320.796 103.702C321.997 101.274 323.77 99.1453 325.862 97.4353C327.954 95.7253 330.365 94.4157 332.911 93.5425C335.467 92.6602 338.169 92.2508 340.87 92.2417C343.562 92.2781 346.255 92.6965 348.801 93.6061C351.339 94.4883 353.713 95.8617 355.732 97.6172C357.76 99.3636 359.416 101.519 360.562 103.902C361.699 106.276 362.326 108.896 362.308 111.515Z" fill="#020403"/>
<path d="M308.817 105.13C306.461 114.726 308.862 125.031 314.711 132.58C316.175 134.463 317.849 136.182 319.686 137.674C321.533 139.166 323.561 140.421 325.717 141.385C327.872 142.358 330.119 143.068 332.475 143.468C334.821 143.905 337.223 144.141 339.615 144.196C344.399 144.332 349.22 143.704 353.713 142.14C355.95 141.367 358.106 140.339 360.089 139.038C362.072 137.747 363.891 136.201 365.474 134.436C368.639 130.88 370.804 126.459 372.05 121.784C373.323 117.1 373.741 112.17 373.769 107.249C374.269 112.152 374.178 117.154 373.196 122.057C372.677 124.495 371.931 126.905 370.904 129.215C369.867 131.516 368.521 133.69 366.902 135.655C363.673 139.611 359.243 142.522 354.477 144.287C349.693 146.042 344.59 146.706 339.551 146.606C337.032 146.542 334.512 146.269 332.038 145.787C329.546 145.333 327.054 144.559 324.753 143.459C320.132 141.249 316.121 137.847 313.201 133.708C311.728 131.644 310.491 129.424 309.536 127.087C308.599 124.749 307.907 122.321 307.516 119.847C306.752 114.899 307.143 109.769 308.817 105.13Z" fill="#020403"/>
<path d="M277.828 77.0246C277.828 77.0246 262.639 83.4642 263.184 107.186C263.184 107.186 264.558 128.342 293.827 134.09C293.827 134.09 322.388 138.82 328.745 107.595C328.745 107.595 334.085 76.0695 298.957 71.8582C298.957 71.8582 284.459 71.8856 277.828 77.0246Z" fill="#E8F79F"/>
<path d="M296.492 73.0589C279.493 73.0589 265.658 84.9196 265.658 99.4816C265.658 114.053 279.493 125.904 296.492 125.904C313.501 125.904 327.335 114.053 327.335 99.4816C327.335 84.9196 313.501 73.0589 296.492 73.0589ZM296.492 128.315C278.165 128.315 263.248 115.381 263.248 99.4816C263.248 83.5825 278.165 70.6486 296.492 70.6486C314.829 70.6486 329.746 83.5825 329.746 99.4816C329.746 115.381 314.829 128.315 296.492 128.315Z" fill="#020403"/>
<path d="M317.776 99.6091C317.767 98.3085 317.603 97.017 317.267 95.7618C316.921 94.5157 316.439 93.3059 315.802 92.1872C314.538 89.9405 312.746 88.0396 310.7 86.5298C306.579 83.5373 301.531 82.0183 296.502 82.0456C293.982 82.0547 291.472 82.4549 289.079 83.2189C286.678 83.983 284.413 85.1562 282.44 86.7024C280.466 88.2578 278.783 90.186 277.574 92.3872C276.373 94.5792 275.645 97.0624 275.582 99.6091C275.518 102.138 276.073 104.712 277.246 106.995C278.392 109.296 280.102 111.297 282.13 112.889C283.14 113.68 284.231 114.371 285.378 114.954C286.533 115.527 287.724 115.99 288.952 116.363C291.399 117.1 293.964 117.409 296.502 117.355C301.568 117.245 306.598 115.708 310.718 112.698C312.755 111.188 314.556 109.278 315.811 107.031C316.448 105.903 316.93 104.694 317.276 103.448C317.603 102.201 317.767 100.901 317.776 99.6091ZM317.94 99.6091C317.949 102.229 317.321 104.839 316.175 107.213C315.038 109.596 313.374 111.743 311.345 113.489C309.335 115.235 306.952 116.6 304.415 117.455C301.868 118.337 299.176 118.728 296.502 118.692C293.818 118.619 291.162 118.119 288.67 117.209C287.424 116.754 286.214 116.19 285.068 115.535C283.913 114.881 282.822 114.135 281.803 113.298C279.756 111.624 278.01 109.587 276.755 107.249C276.136 106.076 275.636 104.839 275.281 103.557C274.927 102.274 274.736 100.946 274.699 99.6091C274.627 96.9259 275.218 94.2063 276.428 91.7869C277.628 89.3584 279.402 87.2301 281.494 85.5292C283.586 83.8102 285.996 82.5095 288.543 81.6272C291.099 80.7449 293.809 80.3355 296.502 80.3355C299.194 80.3719 301.895 80.7812 304.433 81.6908C306.98 82.5731 309.344 83.9465 311.364 85.7019C313.392 87.4574 315.047 89.6041 316.194 91.9871C317.33 94.3702 317.958 96.9805 317.94 99.6091Z" fill="#020403"/>
<path d="M264.449 93.215C262.093 102.811 264.503 113.116 270.343 120.665C271.807 122.557 273.481 124.267 275.318 125.759C277.164 127.251 279.193 128.506 281.348 129.47C283.504 130.443 285.75 131.153 288.106 131.562C290.462 131.99 292.854 132.226 295.246 132.281C300.031 132.417 304.851 131.798 309.344 130.225C311.591 129.452 313.738 128.424 315.721 127.132C317.703 125.832 319.523 124.295 321.105 122.521C324.27 118.965 326.435 114.553 327.681 109.869C328.955 105.185 329.373 100.264 329.4 95.3432C329.901 100.237 329.81 105.239 328.827 110.142C328.309 112.589 327.563 114.99 326.535 117.3C325.498 119.601 324.152 121.775 322.533 123.74C319.304 127.705 314.875 130.607 310.109 132.372C305.324 134.127 300.222 134.791 295.183 134.691C292.663 134.627 290.153 134.354 287.67 133.881C285.177 133.418 282.694 132.644 280.384 131.553C275.764 129.334 271.752 125.932 268.833 121.793C267.359 119.738 266.122 117.509 265.176 115.172C264.23 112.834 263.539 110.406 263.148 107.932C262.384 102.984 262.775 97.8629 264.449 93.215Z" fill="#020403"/>
<path d="M204.718 275.754C204.718 275.754 189.528 282.185 190.074 305.906C190.074 305.906 191.447 327.063 220.717 332.82C220.717 332.82 249.277 337.541 255.644 306.325C255.644 306.325 260.974 274.79 225.856 270.579C225.856 270.579 211.349 270.615 204.718 275.754Z" fill="#E8F79F"/>
<path d="M223.391 271.789C206.382 271.789 192.548 283.64 192.548 298.211C192.548 312.773 206.382 324.625 223.391 324.625C240.391 324.625 254.225 312.773 254.225 298.211C254.225 283.64 240.391 271.789 223.391 271.789ZM223.391 327.044C205.054 327.044 190.138 314.11 190.138 298.211C190.138 282.312 205.054 269.378 223.391 269.378C241.719 269.378 256.636 282.312 256.636 298.211C256.636 314.11 241.719 327.044 223.391 327.044Z" fill="#020403"/>
<path d="M244.666 298.33C244.657 297.029 244.493 295.737 244.157 294.482C243.811 293.236 243.329 292.026 242.692 290.917C241.437 288.661 239.636 286.76 237.599 285.25C233.478 282.267 228.421 280.748 223.391 280.775C220.872 280.775 218.361 281.175 215.969 281.939C213.577 282.713 211.303 283.886 209.329 285.432C207.356 286.978 205.673 288.907 204.472 291.108C203.263 293.309 202.535 295.792 202.471 298.33C202.417 300.858 202.972 303.432 204.136 305.724C205.291 308.017 207.001 310.027 209.02 311.618C210.03 312.41 211.13 313.092 212.276 313.674C213.423 314.247 214.623 314.72 215.842 315.084C218.298 315.821 220.854 316.13 223.391 316.075C228.458 315.966 233.497 314.438 237.608 311.427C239.645 309.908 241.446 308.007 242.701 305.752C243.347 304.633 243.82 303.423 244.166 302.177C244.502 300.922 244.657 299.621 244.666 298.33ZM244.83 298.33C244.839 300.949 244.211 303.569 243.074 305.943C241.928 308.317 240.273 310.472 238.244 312.21C236.225 313.965 233.851 315.32 231.304 316.184C228.767 317.058 226.065 317.458 223.391 317.412C220.717 317.34 218.061 316.848 215.56 315.939C214.314 315.475 213.104 314.92 211.958 314.256C210.812 313.61 209.712 312.855 208.693 312.019C206.646 310.354 204.9 308.308 203.654 305.97C203.026 304.806 202.535 303.569 202.171 302.286C201.826 301.004 201.626 299.667 201.589 298.33C201.516 295.656 202.117 292.936 203.317 290.517C204.518 288.088 206.292 285.96 208.384 284.25C210.475 282.54 212.886 281.23 215.442 280.357C217.989 279.474 220.699 279.065 223.391 279.056C226.084 279.092 228.785 279.511 231.323 280.411C233.869 281.294 236.243 282.667 238.254 284.432C240.282 286.178 241.937 288.334 243.083 290.708C244.22 293.091 244.848 295.71 244.83 298.33Z" fill="#020403"/>
<path d="M191.347 291.945C188.982 301.532 191.393 311.837 197.241 319.396C198.696 321.278 200.379 322.988 202.216 324.489C204.063 325.972 206.091 327.227 208.238 328.2C210.393 329.173 212.64 329.874 214.996 330.283C217.352 330.72 219.744 330.956 222.136 331.011C226.92 331.147 231.75 330.519 236.234 328.955C238.481 328.173 240.636 327.145 242.619 325.853C244.602 324.562 246.421 323.016 248.004 321.251C251.16 317.695 253.334 313.274 254.571 308.59C255.844 303.906 256.263 298.985 256.29 294.064C256.79 298.958 256.708 303.96 255.717 308.863C255.207 311.31 254.452 313.72 253.425 316.021C252.388 318.322 251.042 320.505 249.423 322.47C246.194 326.426 241.764 329.337 237.007 331.092C232.223 332.857 227.12 333.512 222.081 333.421C219.553 333.348 217.042 333.075 214.559 332.602C212.067 332.148 209.584 331.374 207.274 330.274C202.662 328.064 198.642 324.662 195.722 320.523C194.249 318.459 193.021 316.23 192.066 313.902C191.129 311.564 190.438 309.127 190.047 306.653C189.273 301.705 189.674 296.584 191.347 291.945Z" fill="#020403"/>
<path d="M228.512 107.432C228.512 107.432 213.322 113.862 213.877 137.583C213.877 137.583 215.241 158.74 244.511 164.497C244.511 164.497 273.071 169.218 279.438 138.002C279.438 138.002 284.777 106.467 249.65 102.256C249.65 102.256 235.143 102.293 228.512 107.432Z" fill="#E8F79F"/>
<path d="M247.185 103.465C230.176 103.465 216.351 115.317 216.351 129.879C216.351 144.45 230.176 156.302 247.185 156.302C264.185 156.302 278.019 144.45 278.019 129.879C278.019 115.317 264.185 103.465 247.185 103.465ZM247.185 158.712C228.848 158.712 213.932 145.778 213.932 129.879C213.932 113.98 228.848 101.046 247.185 101.046C265.522 101.046 280.43 113.98 280.43 129.879C280.43 145.778 265.522 158.712 247.185 158.712Z" fill="#020403"/>
<path d="M268.469 130.007C268.451 128.706 268.287 127.414 267.95 126.159C267.614 124.913 267.132 123.703 266.486 122.584C265.231 120.338 263.43 118.437 261.392 116.927C257.272 113.944 252.224 112.425 247.185 112.452C244.666 112.452 242.155 112.852 239.763 113.616C237.371 114.389 235.106 115.554 233.123 117.109C231.149 118.655 229.467 120.583 228.266 122.785C227.057 124.986 226.338 127.46 226.274 130.007C226.211 132.535 226.765 135.109 227.93 137.401C229.085 139.693 230.795 141.703 232.814 143.286C233.833 144.087 234.924 144.769 236.07 145.351C237.216 145.924 238.417 146.397 239.645 146.761C242.092 147.497 244.647 147.807 247.185 147.752C252.251 147.643 257.29 146.106 261.411 143.095C263.448 141.585 265.24 139.684 266.504 137.428C267.141 136.31 267.623 135.1 267.959 133.854C268.296 132.599 268.451 131.298 268.469 130.007ZM268.623 130.007C268.642 132.626 268.005 135.236 266.868 137.619C265.722 139.993 264.067 142.149 262.038 143.886C260.019 145.642 257.645 146.997 255.098 147.861C252.561 148.734 249.859 149.125 247.185 149.089C244.511 149.016 241.855 148.525 239.354 147.607C238.108 147.152 236.898 146.597 235.752 145.933C234.606 145.287 233.505 144.532 232.487 143.695C230.449 142.031 228.703 139.984 227.448 137.647C226.829 136.483 226.329 135.246 225.965 133.963C225.619 132.672 225.419 131.344 225.392 130.007C225.319 127.323 225.91 124.613 227.12 122.193C228.321 119.756 230.085 117.636 232.177 115.926C234.269 114.216 236.68 112.907 239.236 112.024C241.791 111.151 244.493 110.742 247.185 110.733C249.877 110.769 252.579 111.188 255.116 112.088C257.663 112.97 260.037 114.344 262.056 116.099C264.076 117.855 265.731 120.001 266.877 122.384C268.023 124.767 268.642 127.378 268.623 130.007Z" fill="#020403"/>
<path d="M215.141 123.622C212.785 133.208 215.187 143.514 221.035 151.072C222.5 152.955 224.173 154.665 226.01 156.157C227.857 157.648 229.885 158.903 232.041 159.877C234.196 160.85 236.443 161.55 238.79 161.96C241.146 162.387 243.538 162.624 245.939 162.687C250.723 162.824 255.544 162.196 260.028 160.632C262.275 159.849 264.43 158.822 266.413 157.53C268.396 156.239 270.215 154.692 271.798 152.919C274.954 149.371 277.128 144.951 278.365 140.267C279.647 135.582 280.056 130.662 280.093 125.741C280.584 130.634 280.502 135.637 279.511 140.539C279.001 142.986 278.246 145.397 277.219 147.698C276.182 149.999 274.836 152.182 273.217 154.146C269.988 158.103 265.567 161.014 260.801 162.769C256.017 164.525 250.914 165.189 245.875 165.098C243.356 165.025 240.836 164.752 238.353 164.279C235.87 163.824 233.378 163.051 231.077 161.951C226.456 159.731 222.445 156.338 219.516 152.191C218.043 150.135 216.815 147.907 215.86 145.578C214.923 143.241 214.232 140.803 213.84 138.329C213.067 133.381 213.468 128.26 215.141 123.622Z" fill="#020403"/>
<path d="M207.874 362.609L225.828 251.47C225.828 251.47 256.672 138.82 282.23 111.397C282.23 111.397 313.446 63.0995 360.898 46.0452C360.898 46.0452 303.077 -23.7907 218.652 12.2643C218.652 12.2643 149.944 34.4483 142.549 131.498C142.549 131.498 134.541 214.096 166.889 279.911L205.718 362.609H207.874Z" fill="#E3F7F7"/>
<path d="M293.545 215.132C293.545 215.132 278.356 221.563 278.911 245.293C278.911 245.293 280.275 266.45 309.545 272.198C309.545 272.198 338.105 276.928 344.472 245.703C344.472 245.703 349.802 214.168 314.684 209.966C314.684 209.966 300.176 209.993 293.545 215.132Z" fill="#E8F79F"/>
<path d="M312.219 211.167C295.21 211.167 281.375 223.018 281.375 237.59C281.375 252.161 295.21 264.012 312.219 264.012C329.218 264.012 343.053 252.161 343.053 237.59C343.053 223.018 329.218 211.167 312.219 211.167ZM312.219 266.423C293.882 266.423 278.965 253.489 278.965 237.59C278.965 221.69 293.882 208.756 312.219 208.756C330.546 208.756 345.463 221.69 345.463 237.59C345.463 253.489 330.546 266.423 312.219 266.423Z" fill="#020403"/>
<path d="M333.503 237.708C333.484 236.416 333.321 235.115 332.984 233.869C332.639 232.623 332.166 231.413 331.52 230.295C330.265 228.048 328.464 226.138 326.426 224.637C322.306 221.645 317.258 220.126 312.219 220.153C309.699 220.162 307.189 220.562 304.797 221.326C302.405 222.09 300.131 223.264 298.157 224.81C296.183 226.365 294.501 228.284 293.3 230.495C292.09 232.687 291.372 235.17 291.299 237.708C291.244 240.245 291.799 242.819 292.964 245.102C294.119 247.394 295.829 249.404 297.848 250.996C298.857 251.788 299.958 252.479 301.104 253.061C302.25 253.634 303.451 254.098 304.67 254.471C307.125 255.198 309.681 255.517 312.219 255.453C317.285 255.353 322.324 253.816 326.435 250.805C328.482 249.286 330.274 247.385 331.538 245.13C332.175 244.011 332.648 242.801 332.993 241.555C333.33 240.3 333.484 239.008 333.503 237.708ZM333.657 237.708C333.666 240.336 333.039 242.947 331.902 245.321C330.756 247.704 329.1 249.85 327.072 251.596C325.053 253.343 322.679 254.707 320.132 255.562C317.594 256.445 314.893 256.836 312.219 256.799C309.545 256.726 306.889 256.226 304.388 255.317C303.141 254.862 301.932 254.298 300.786 253.643C299.64 252.988 298.539 252.242 297.52 251.406C295.474 249.732 293.737 247.685 292.481 245.357C291.854 244.184 291.363 242.947 290.999 241.664C290.653 240.382 290.453 239.054 290.417 237.708C290.353 235.033 290.944 232.314 292.154 229.894C293.346 227.466 295.119 225.337 297.211 223.628C299.303 221.918 301.713 220.608 304.269 219.735C306.825 218.852 309.527 218.443 312.219 218.434C314.911 218.47 317.613 218.889 320.15 219.798C322.697 220.681 325.071 222.054 327.09 223.809C329.109 225.556 330.765 227.711 331.911 230.094C333.048 232.468 333.675 235.088 333.657 237.708Z" fill="#020403"/>
<path d="M280.175 231.322C277.81 240.918 280.22 251.224 286.069 258.773C287.524 260.656 289.207 262.375 291.044 263.866C292.89 265.358 294.919 266.613 297.065 267.577C299.221 268.551 301.467 269.26 303.823 269.66C306.179 270.097 308.571 270.333 310.963 270.388C315.757 270.524 320.577 269.897 325.061 268.332C327.308 267.559 329.464 266.531 331.446 265.24C333.429 263.939 335.248 262.393 336.831 260.628C339.987 257.072 342.161 252.652 343.398 247.977C344.681 243.292 345.09 238.362 345.117 233.451C345.618 238.344 345.536 243.347 344.544 248.249C344.035 250.687 343.28 253.097 342.252 255.408C341.215 257.709 339.869 259.883 338.25 261.847C335.021 265.804 330.592 268.714 325.835 270.479C321.05 272.234 315.948 272.898 310.909 272.798C308.389 272.735 305.87 272.453 303.387 271.98C300.894 271.525 298.411 270.752 296.101 269.651C291.49 267.441 287.469 264.039 284.55 259.901C283.076 257.836 281.848 255.617 280.893 253.279C279.956 250.942 279.265 248.513 278.874 246.039C278.101 241.091 278.501 235.961 280.175 231.322Z" fill="#020403"/>
<path d="M283.203 170.7C283.203 170.7 268.014 177.131 268.56 200.861C268.56 200.861 269.933 222.018 299.203 227.766C299.203 227.766 327.763 232.496 334.13 201.271C334.13 201.271 339.46 169.736 304.333 165.525C304.333 165.525 289.834 165.561 283.203 170.7Z" fill="#E8F79F"/>
<path d="M301.868 166.734C284.869 166.734 271.034 178.586 271.034 193.157C271.034 207.719 284.869 219.58 301.868 219.58C318.877 219.58 332.711 207.719 332.711 193.157C332.711 178.586 318.877 166.734 301.868 166.734ZM301.868 221.99C283.541 221.99 268.624 209.056 268.624 193.157C268.624 177.258 283.541 164.324 301.868 164.324C320.205 164.324 335.122 177.258 335.122 193.157C335.122 209.056 320.205 221.99 301.868 221.99Z" fill="#020403"/>
<path d="M323.152 193.276C323.143 191.984 322.979 190.683 322.642 189.437C322.297 188.191 321.815 186.981 321.178 185.863C319.914 183.607 318.122 181.706 316.075 180.205C311.955 177.213 306.907 175.694 301.877 175.721C299.358 175.73 296.847 176.13 294.455 176.894C292.063 177.658 289.789 178.832 287.815 180.378C285.842 181.924 284.159 183.852 282.949 186.063C281.748 188.255 281.021 190.738 280.957 193.276C280.903 195.813 281.448 198.387 282.622 200.67C283.777 202.962 285.478 204.972 287.506 206.564C288.516 207.356 289.607 208.047 290.753 208.629C291.908 209.193 293.1 209.666 294.328 210.03C296.783 210.766 299.339 211.076 301.877 211.021C306.943 210.912 311.973 209.384 316.093 206.373C318.131 204.854 319.932 202.953 321.187 200.698C321.833 199.579 322.306 198.369 322.651 197.123C322.979 195.868 323.143 194.576 323.152 193.276ZM323.315 193.276C323.324 195.895 322.697 198.515 321.551 200.889C320.414 203.272 318.749 205.418 316.73 207.164C314.711 208.911 312.328 210.275 309.79 211.13C307.243 212.012 304.551 212.404 301.877 212.358C299.203 212.294 296.538 211.794 294.046 210.885C292.8 210.43 291.59 209.866 290.444 209.211C289.289 208.556 288.197 207.81 287.179 206.974C285.132 205.3 283.386 203.253 282.14 200.925C281.512 199.752 281.012 198.515 280.657 197.232C280.302 195.95 280.111 194.613 280.075 193.276C280.002 190.601 280.593 187.882 281.803 185.462C283.004 183.034 284.777 180.905 286.869 179.195C288.961 177.486 291.372 176.176 293.918 175.303C296.474 174.42 299.185 174.011 301.877 174.002C304.569 174.038 307.271 174.457 309.808 175.357C312.355 176.249 314.729 177.613 316.739 179.377C318.768 181.124 320.423 183.279 321.569 185.662C322.706 188.036 323.334 190.656 323.315 193.276Z" fill="#020403"/>
<path d="M269.824 186.891C267.468 196.486 269.879 206.792 275.718 214.341C277.182 216.224 278.856 217.943 280.702 219.435C282.549 220.926 284.568 222.182 286.724 223.146C288.879 224.119 291.126 224.828 293.482 225.229C295.837 225.665 298.23 225.902 300.622 225.956C305.406 226.093 310.227 225.465 314.72 223.901C316.967 223.127 319.122 222.1 321.105 220.799C323.079 219.507 324.898 217.961 326.481 216.197C329.646 212.64 331.811 208.22 333.057 203.545C334.33 198.851 334.748 193.931 334.776 189.01C335.276 193.912 335.194 198.915 334.203 203.818C333.693 206.255 332.938 208.665 331.911 210.976C330.874 213.268 329.528 215.451 327.909 217.416C324.68 221.372 320.25 224.283 315.493 226.047C310.709 227.803 305.597 228.467 300.567 228.366C298.039 228.294 295.528 228.021 293.045 227.548C290.553 227.093 288.07 226.32 285.759 225.219C281.148 223.009 277.128 219.608 274.208 215.469C272.735 213.404 271.498 211.185 270.552 208.847C269.606 206.51 268.914 204.081 268.532 201.598C267.759 196.65 268.159 191.529 269.824 186.891Z" fill="#020403"/>
<path d="M299.357 189.355C299.357 189.355 284.167 195.786 284.713 219.507C284.713 219.507 286.087 240.663 315.356 246.421C315.356 246.421 343.916 251.142 350.274 219.926C350.274 219.926 355.613 188.391 320.486 184.18C320.486 184.18 305.988 184.216 299.357 189.355Z" fill="#E8F79F"/>
<path d="M318.022 185.389C301.022 185.389 287.188 197.241 287.188 211.803C287.188 226.374 301.022 238.226 318.022 238.226C335.031 238.226 348.865 226.374 348.865 211.803C348.865 197.241 335.031 185.389 318.022 185.389ZM318.022 240.645C299.694 240.645 284.777 227.702 284.777 211.803C284.777 195.913 299.694 182.97 318.022 182.97C336.359 182.97 351.275 195.913 351.275 211.803C351.275 227.702 336.359 240.645 318.022 240.645Z" fill="#020403"/>
<path d="M339.305 211.931C339.296 210.63 339.132 209.338 338.796 208.083C338.45 206.837 337.968 205.627 337.331 204.509C336.067 202.262 334.275 200.361 332.229 198.851C328.108 195.868 323.06 194.349 318.03 194.376C315.511 194.376 313.001 194.776 310.609 195.54C308.216 196.314 305.942 197.478 303.969 199.033C301.995 200.579 300.312 202.508 299.103 204.709C297.902 206.91 297.174 209.393 297.111 211.931C297.056 214.459 297.602 217.033 298.775 219.325C299.93 221.618 301.631 223.628 303.659 225.21C304.669 226.011 305.761 226.693 306.907 227.275C308.062 227.848 309.253 228.321 310.481 228.685C312.937 229.421 315.493 229.731 318.03 229.676C323.097 229.567 328.127 228.039 332.247 225.019C334.284 223.509 336.085 221.608 337.341 219.353C337.986 218.234 338.459 217.024 338.805 215.778C339.132 214.523 339.296 213.222 339.305 211.931ZM339.469 211.931C339.478 214.55 338.85 217.17 337.704 219.544C336.567 221.918 334.903 224.073 332.875 225.811C330.864 227.566 328.481 228.921 325.944 229.785C323.406 230.659 320.705 231.05 318.03 231.013C315.356 230.941 312.691 230.449 310.199 229.54C308.953 229.076 307.743 228.521 306.597 227.857C305.442 227.211 304.351 226.456 303.332 225.62C301.286 223.955 299.539 221.909 298.293 219.571C297.665 218.407 297.165 217.17 296.81 215.887C296.456 214.596 296.265 213.268 296.228 211.931C296.156 209.257 296.747 206.537 297.957 204.118C299.157 201.689 300.931 199.561 303.023 197.851C305.115 196.141 307.525 194.831 310.072 193.958C312.628 193.076 315.338 192.666 318.03 192.657C320.723 192.693 323.424 193.112 325.962 194.012C328.509 194.895 330.874 196.268 332.893 198.023C334.921 199.779 336.576 201.935 337.722 204.308C338.859 206.692 339.487 209.311 339.469 211.931Z" fill="#020403"/>
<path d="M285.987 205.545C283.622 215.132 286.033 225.437 291.872 232.996C293.336 234.879 295.01 236.589 296.856 238.089C298.703 239.572 300.722 240.827 302.878 241.8C305.033 242.774 307.28 243.474 309.636 243.883C311.991 244.32 314.384 244.556 316.776 244.611C321.56 244.747 326.381 244.12 330.874 242.555C333.12 241.773 335.267 240.745 337.259 239.454C339.233 238.162 341.052 236.616 342.634 234.851C345.8 231.295 347.965 226.875 349.211 222.19C350.484 217.506 350.902 212.585 350.93 207.665C351.43 212.558 351.339 217.561 350.357 222.463C349.847 224.91 349.092 227.32 348.065 229.621C347.028 231.923 345.682 234.096 344.063 236.07C340.834 240.027 336.404 242.937 331.647 244.693C326.863 246.457 321.751 247.112 316.721 247.021C314.193 246.949 311.682 246.676 309.199 246.203C306.707 245.748 304.224 244.975 301.914 243.874C297.293 241.655 293.282 238.262 290.362 234.115C288.889 232.059 287.652 229.83 286.706 227.502C285.76 225.164 285.068 222.727 284.686 220.253C283.913 215.305 284.313 210.184 285.987 205.545Z" fill="#020403"/>
<path d="M422.767 271.115C361.844 352.657 257.618 384.883 215.633 394.952C207.647 396.871 199.115 396.08 191.62 392.733C94.7839 349.538 41.2299 281.23 22.6986 253.861C18.8684 248.213 16.1706 242.037 14.6808 235.533C7.36334 203.571 4.82296 178.968 4.21628 161.686C4.71108 163.96 5.27324 166.243 5.90447 168.535C11.3145 188.173 21.5053 206.864 35.3742 222.581C64.2255 255.289 138.311 334.63 202.981 365.018L203.39 365.209C204.582 365.773 205.718 366.292 206.846 366.783C207.019 366.892 207.21 366.983 207.419 367.038L207.565 367.101L207.683 367.092C207.774 367.101 207.856 367.11 207.938 367.11C208.083 367.11 208.22 367.092 208.365 367.065C208.493 367.037 208.602 367.001 208.711 366.956C208.838 366.938 208.975 366.919 209.138 366.901C221.663 365.064 333.821 345.654 415.863 231.067C429.143 212.531 437.984 193.985 442.268 175.766C441.849 194.494 440.531 214.013 439.485 227.202C438.238 242.974 432.454 258.154 422.767 271.115ZM25.2563 77.9429C39.2917 58.6239 56.0931 48.3094 57.2391 47.6182C110.546 21.7957 146.57 34.8933 167.762 51.0926C159.986 61.98 153.919 74.2773 149.917 87.6569C139.457 122.602 137.059 160.358 142.795 199.86C150.008 249.613 170.236 303.641 202.926 360.534C139.359 329.864 66.8131 252.142 38.3903 219.916C24.9242 204.654 15.031 186.517 9.78192 167.462C0.740891 134.645 5.9472 104.52 25.2563 77.9429ZM239.299 7.4975C248.823 5.16901 258.4 4.02286 267.86 4.02286C299.158 4.02286 329.191 16.5203 351.767 39.7414C354.341 42.3882 356.26 44.6075 357.497 46.1083C346.055 50.4651 335.14 56.45 324.798 64.0176C323.743 64.7816 323.779 65.2727 323.616 65.2545L322.488 65.7365C308.99 76.0055 296.493 89.0213 285.087 104.702C267.487 128.896 252.288 159.74 239.9 196.359C217.961 261.265 210.421 328.108 207.583 353.267C207.328 355.495 207.092 357.587 206.883 359.352C148.307 257.745 130.441 166.743 153.773 88.8122C165.98 48.0275 197.96 17.63 239.299 7.4975ZM325.762 68.247C333.493 69.4931 353.085 73.6953 373.478 86.2199C397.445 100.937 427.478 130.57 434.518 188.109C429.716 201.461 422.412 215.014 412.598 228.73C334.785 337.395 229.776 359.406 210.53 362.608C210.539 362.499 210.557 362.399 210.576 362.29C210.839 360.298 211.167 357.396 211.576 353.722C214.405 328.672 221.909 262.138 243.711 197.65C264.203 137.037 291.717 93.7056 325.762 68.247ZM433.209 111.033C442.504 132.999 443.859 155.847 437.311 179.35C433.536 156.711 425.923 136.791 414.608 120.037C404.421 104.939 391.241 92.3776 375.433 82.6908C357.188 71.5305 339.906 66.8462 330.346 64.9543C340.015 58.2873 350.193 53.021 360.871 49.1553C364.246 50.0649 367.684 51.1654 371.104 52.4388C399.227 62.8624 421.866 84.2188 433.209 111.033ZM445.278 138.019L444.569 138.101C443.405 128.342 440.849 118.773 436.92 109.468C425.141 81.6357 401.665 59.4697 372.505 48.6642C368.994 47.3635 365.455 46.2357 361.981 45.2897C361.053 44.0709 358.606 41.0056 354.65 36.9399C324.243 5.6601 280.766 -6.80084 238.344 3.59543C210.521 10.4081 186.809 26.107 170.155 47.8636C156.793 37.6402 141.776 31.4917 125.5 29.5543C104.038 27.0166 80.4547 31.8827 55.4063 44.0345L55.2681 44.1073C54.5314 44.5348 37.0605 54.9037 22.0937 75.4507C13.2873 87.5388 7.22145 100.636 4.06528 114.389C2.86739 119.61 2.0925 124.922 1.73595 130.315L1.53947 130.279C1.46671 130.634 -0.247798 139.329 0.0305275 156.829C0.285204 172.874 2.35354 199.706 10.7597 236.425C12.3614 243.428 15.2574 250.05 19.3677 256.117C27.6011 268.277 45.654 292.645 74.0696 319.277C108.406 351.466 147.407 377.416 189.974 396.407C195.313 398.781 201.116 400 206.928 400C210.166 400 213.413 399.618 216.569 398.863C235.006 394.443 271.889 384.074 311.837 364.3C360.626 340.142 399.036 309.599 425.996 273.526C436.137 259.955 442.186 244.047 443.496 227.52C445.315 204.445 447.98 162.132 445.278 138.019Z" fill="#020403"/>
<path d="M351.375 51.375C349.938 49.7924 348.356 48.2278 346.782 46.7179C345.19 45.199 343.562 43.7256 341.898 42.2885C338.56 39.4142 335.103 36.6855 331.529 34.1115C327.945 31.5465 324.252 29.1361 320.45 26.8986C319.495 26.3529 318.558 25.7798 317.585 25.2614L314.675 23.6879C312.71 22.6965 310.745 21.6869 308.735 20.7864C304.724 18.9582 300.622 17.3028 296.411 15.9657L294.846 15.4474L293.254 14.9926C292.19 14.7015 291.135 14.3649 290.062 14.1011L286.842 13.328L286.032 13.137L285.223 12.9733L283.595 12.664C281.43 12.2001 279.238 11.9545 277.046 11.618C275.955 11.4997 274.854 11.4088 273.753 11.2996L272.098 11.1451L270.443 11.0815L267.123 10.945L263.803 10.9813C263.248 10.9904 262.693 10.9905 262.138 11.0086L260.483 11.1177L257.172 11.336L260.483 11.0451L262.138 10.8903C262.693 10.863 263.248 10.854 263.794 10.8358L267.123 10.7177L270.452 10.7722L272.116 10.8086L273.781 10.9267C274.881 11.0086 275.991 11.0724 277.101 11.1724C279.302 11.4544 281.521 11.6544 283.704 12.0728L285.35 12.3456L286.169 12.4913L286.987 12.664L290.244 13.3644C291.326 13.61 292.399 13.9192 293.473 14.1921L295.092 14.6195L296.683 15.1017C300.958 16.3569 305.133 17.9304 309.217 19.6859C311.273 20.5409 313.283 21.514 315.293 22.4782L318.267 23.9972C319.259 24.4975 320.223 25.0614 321.205 25.589C325.098 27.7628 328.891 30.1093 332.566 32.6288C336.249 35.1483 339.815 37.8406 343.253 40.6784C344.981 42.0973 346.673 43.5527 348.319 45.0626C349.975 46.5725 351.585 48.0914 353.167 49.7559L351.375 51.375Z" fill="#020403"/>
<path d="M178.85 60.4251C177.813 61.9077 176.894 63.463 176.012 65.0365L175.348 66.219L174.721 67.4104C174.284 68.2018 173.893 69.0113 173.493 69.8208C171.901 73.0497 170.446 76.3514 169.109 79.6895C166.462 86.3839 164.288 93.2603 162.487 100.218C160.722 107.186 159.285 114.244 158.248 121.356C157.685 124.904 157.275 128.478 156.866 132.044L156.375 137.419L156.256 138.765L156.175 140.112L156.011 142.804L155.838 145.487C155.774 146.388 155.765 147.288 155.729 148.188L155.529 153.582L155.492 158.976L155.474 161.677L155.529 164.37L155.629 169.772C155.683 171.573 155.793 173.365 155.874 175.166C156.011 178.768 156.302 182.352 156.557 185.954C157.694 200.315 159.713 214.623 162.269 228.857C158.73 214.832 156.184 200.543 154.683 186.126C153.2 171.71 152.682 157.148 153.61 142.649L153.782 139.93L153.873 138.574L154.001 137.219L154.519 131.798C154.965 128.196 155.365 124.576 155.993 121.002C157.175 113.835 158.676 106.713 160.677 99.7272C162.651 92.7418 165.097 85.8745 168.026 79.2347C169.527 75.933 171.119 72.6677 172.901 69.5115C174.693 66.3553 176.603 63.263 178.85 60.4251Z" fill="#020403"/>
</g>
<defs>
<clipPath id="clip0_53_3463">
<rect width="446.429" height="400" fill="white"/>
</clipPath>
</defs>
</svg>
