<svg width="407" height="232" viewBox="0 0 407 232" fill="none" xmlns="http://www.w3.org/2000/svg">
<g clip-path="url(#clip0_103_823)">
<path d="M-19.7941 170.92L98.7584 125.744L105.199 122.549L172.162 113.957L178.547 113.165L191.657 111.62L195.36 110.8L245.293 88.2492L256.571 83.4143C256.571 83.4143 277.408 79.6697 282.327 96.6949C282.327 96.6949 292.253 114.79 270.692 124.418L294.222 118.066C294.222 118.066 304.367 103.557 313.937 106.477C313.937 106.477 320.232 90.7334 332.132 92.5863C332.132 92.5863 340.237 71.016 357.806 80.4582C357.806 80.4582 367.376 61.9433 383.91 82.0234L384.927 88.1015L373.255 132.419L371.385 135.785L351.269 160.71L346.28 164.417L247.93 202.11L244.17 202.615L124.372 206.626L117.434 208.121L112.324 211.018L24.8134 267.903C24.8134 267.903 -21.8108 236.927 -20.0922 169.138" fill="#E3F7F7"/>
<path d="M25.7916 269.407L23.8314 266.387L113.141 208.342C116.475 206.172 120.338 204.963 124.313 204.832L244.106 200.812C246.052 200.753 247.971 200.365 249.792 199.67L342.11 164.407C346.09 162.883 349.592 160.322 352.241 156.998L369.298 135.57C370.804 133.677 371.865 131.525 372.456 129.185L382.481 89.2729C383.161 85.868 382.417 82.4532 380.391 79.6348C378.364 76.8164 375.336 75.0241 371.88 74.6103C366.758 73.9888 361.739 76.6603 359.41 81.2665L349.111 101.582L348.992 101.726L329.8 125.848C327.039 129.306 323.14 131.714 318.817 132.618L227.508 151.733L272.266 121.167C281.377 115.188 284.506 103.961 279.569 95.0374C274.482 85.8437 263.015 82.0772 253.476 86.4685L198.008 111.968L197.863 112.001C191.162 113.829 184.245 114.843 177.298 115.004L108.636 125.321C104.082 126.007 99.5985 127.186 95.3014 128.831L-19.152 172.605L-20.4358 169.242L94.0166 125.468C98.5564 123.736 103.295 122.485 108.102 121.766L176.989 111.412L177.104 111.412C183.746 111.264 190.364 110.309 196.776 108.577L251.975 83.1996C263.217 78.0369 276.721 82.4641 282.711 93.2906C288.576 103.881 284.939 117.148 274.263 124.153L244.455 144.518L318.076 129.098C321.588 128.367 324.753 126.416 326.983 123.611L346.065 99.6308L356.199 79.6384C359.221 73.6952 365.692 70.237 372.313 71.037C376.715 71.5786 380.726 73.9409 383.311 77.5339C385.898 81.1362 386.879 85.6846 385.994 90.03L385.968 90.1012L375.941 130.061C375.226 132.909 373.943 135.508 372.115 137.808L355.048 159.237C351.997 163.068 347.968 166.012 343.396 167.76L251.078 203.022C248.882 203.867 246.574 204.329 244.222 204.408L124.432 208.418C121.113 208.535 117.886 209.552 115.1 211.363L25.7916 269.407Z" fill="#020403"/>
<path d="M312.614 133.57L309.925 131.187L327.947 110.848L330.374 92.2306C332.14 83.5119 339.439 77.0246 348.11 76.4512C352.865 76.1326 356.128 77.5612 359.354 81.3904L356.613 83.7092C354.116 80.7597 351.951 79.7959 348.348 80.0365C341.309 80.4989 335.372 85.785 333.908 92.8795L331.374 112.401L312.614 133.57Z" fill="#020403"/>
<path d="M268.29 128.262L267.193 124.84L293.069 116.551C298.929 107.786 304.913 105.296 308.929 104.777C313.558 104.165 316.734 105.932 316.861 106.006L315.086 109.136L315.977 107.566L315.097 109.144C314.707 108.923 305.445 104.082 295.719 119.045L295.37 119.581L268.29 128.262Z" fill="#020403"/>
<path d="M301.021 124.378C300.687 124.033 300.69 123.479 301.033 123.136L312.728 111.677C313.569 103.59 316.24 97.7729 320.68 94.3779C325.846 90.4225 331.448 91.3453 331.684 91.3916L331.065 94.9294L331.379 93.1597L331.074 94.9279C330.898 94.9001 326.707 94.2564 322.815 97.2736C319.115 100.134 316.91 105.311 316.243 112.673L316.191 113.33L302.199 124.458C301.844 124.736 301.343 124.706 301.021 124.378Z" fill="#020403"/>
<path d="M234.526 102.633C235.999 101.461 237.536 100.383 239.118 99.3457C240.691 98.3192 242.303 97.3436 243.963 96.4361C245.613 95.5209 247.303 94.6753 249.033 93.8992C250.762 93.1139 252.534 92.4166 254.342 91.8184C256.162 91.2372 258.024 90.7348 259.937 90.4242C261.847 90.095 263.812 89.9762 265.803 90.1295C267.776 90.2953 269.798 90.8059 271.59 91.8225C273.399 92.8268 274.894 94.3509 275.938 96.0841L275.863 95.9821C276.478 96.8046 276.946 97.6039 277.403 98.4528C277.841 99.3048 278.217 100.186 278.53 101.088C279.149 102.902 279.526 104.813 279.439 106.745C279.399 107.706 279.273 108.662 279.026 109.581C278.761 110.503 278.404 111.393 277.961 112.22C277.045 113.871 275.793 115.283 274.363 116.428C275.573 115.052 276.587 113.528 277.257 111.89C277.905 110.236 278.193 108.48 278.104 106.749C278.065 105.888 277.92 105.025 277.722 104.18C277.514 103.337 277.243 102.515 276.908 101.712C276.572 100.9 276.176 100.127 275.734 99.3712C275.305 98.6321 274.796 97.8683 274.293 97.2561L274.259 97.2237L274.218 97.1541C273.272 95.7193 272.016 94.5368 270.537 93.735C269.05 92.9441 267.354 92.5028 265.605 92.3663C263.863 92.2189 262.059 92.3299 260.281 92.5894C258.493 92.8505 256.711 93.2631 254.945 93.7685C253.179 94.2739 251.438 94.8705 249.706 95.5229C247.974 96.1752 246.264 96.9002 244.567 97.6515C241.168 99.1742 237.821 100.831 234.526 102.633Z" fill="#020403"/>
<path d="M261.985 124.939C260.856 125.948 259.678 126.889 258.486 127.804C257.896 128.266 257.283 128.711 256.691 129.163C256.088 129.608 255.464 130.037 254.861 130.481L254.57 130.682L254.248 130.526C253.854 130.335 253.597 130.168 253.295 129.961C253.014 129.76 252.74 129.548 252.477 129.344C251.955 128.907 251.433 128.469 250.961 127.986C250.009 127.029 249.116 126.024 248.317 124.956C247.502 123.9 246.763 122.793 246.077 121.658C245.733 121.086 245.408 120.511 245.092 119.934C244.792 119.335 244.493 118.746 244.22 118.143C244.649 118.653 245.067 119.156 245.479 119.678C245.889 120.192 246.316 120.692 246.717 121.207C247.144 121.708 247.555 122.221 247.973 122.724C248.398 123.215 248.807 123.719 249.24 124.2C250.101 125.182 250.976 126.132 251.898 127.027C252.364 127.474 252.828 127.912 253.306 128.318C253.551 128.525 253.803 128.721 254.052 128.899C254.292 129.078 254.574 129.279 254.774 129.389L254.161 129.434C254.801 129.041 255.429 128.631 256.07 128.247C256.721 127.861 257.351 127.46 258.005 127.093C259.31 126.34 260.627 125.605 261.985 124.939Z" fill="#020403"/>
<path d="M325.194 129.176C325.465 129.369 325.642 129.511 325.841 129.678C326.039 129.836 326.213 130.016 326.401 130.176C326.756 130.527 327.109 130.868 327.418 131.236C328.073 131.956 328.651 132.728 329.192 133.515C330.268 135.1 331.133 136.787 331.87 138.514L332.384 139.82C332.544 140.261 332.685 140.705 332.835 141.147C333.145 142.03 333.345 142.941 333.59 143.835C333.818 144.741 333.981 145.659 334.171 146.562L334.573 149.308L333.895 146.627C333.615 145.748 333.372 144.864 333.055 144.001C332.721 143.141 332.442 142.272 332.047 141.451C331.853 141.035 331.678 140.616 331.486 140.209L330.854 138.999C329.978 137.409 328.999 135.894 327.855 134.53C327.275 133.855 326.679 133.201 326.027 132.614C325.71 132.314 325.369 132.046 325.029 131.779C324.865 131.654 324.69 131.521 324.518 131.407C324.357 131.3 324.155 131.172 324.039 131.105L325.194 129.176Z" fill="#020403"/>
<path d="M348.06 99.5836C349.084 100.175 350.061 100.766 351.042 101.384C352.031 101.991 352.996 102.631 353.945 103.283C354.904 103.943 355.839 104.626 356.732 105.344C357.636 106.071 358.516 106.829 359.248 107.728C358.386 106.966 357.41 106.375 356.42 105.816C355.429 105.257 354.417 104.739 353.384 104.264C352.358 103.777 351.317 103.312 350.271 102.877C349.225 102.441 348.16 102.009 347.113 101.621L348.06 99.5836Z" fill="#020403"/>
<path d="M233.995 155.722C238.928 154.191 243.916 152.869 248.917 151.632C253.906 150.377 258.933 149.231 263.96 148.151C268.998 147.07 274.046 146.053 279.112 145.148C284.187 144.232 289.264 143.392 294.397 142.771C289.464 144.303 284.477 145.624 279.485 146.86C274.486 148.116 269.469 149.261 264.432 150.342C259.393 151.415 254.345 152.431 249.279 153.336C244.214 154.25 239.127 155.092 233.995 155.722Z" fill="#020403"/>
<path d="M236.481 149.42L212.818 162.29C212.357 162.539 211.957 161.871 212.397 161.588L234.879 146.75C235.068 146.623 235.336 146.683 235.455 146.883L236.633 148.851C236.753 149.05 236.682 149.31 236.481 149.42Z" fill="#020403"/>
<path d="M200.322 132.157C201.547 133.612 202.628 135.11 203.701 136.609L206.851 141.081C207.904 142.546 208.959 144 210.111 145.353C210.684 146.039 211.286 146.683 211.945 147.269C212.608 147.864 213.324 148.383 214.215 148.749C213.255 148.881 212.247 148.602 211.351 148.198C210.45 147.796 209.629 147.237 208.88 146.618C207.379 145.39 206.123 143.922 205.021 142.379C203.925 140.836 202.981 139.201 202.18 137.494C201.389 135.794 200.713 134.028 200.322 132.157Z" fill="#020403"/>
<path d="M206.348 133.381C207.051 134.112 207.645 134.891 208.222 135.681C208.791 136.463 209.33 137.27 209.845 138.081C210.365 138.9 210.863 139.713 211.355 140.537C211.855 141.369 212.324 142.178 212.926 142.983C211.964 142.62 211.189 141.9 210.509 141.175C209.834 140.439 209.238 139.642 208.708 138.805C208.182 137.977 207.711 137.102 207.307 136.206C206.91 135.3 206.555 134.377 206.348 133.381Z" fill="#020403"/>
</g>
<path d="M189.146 25.2801L191.348 46.3868C191.348 46.3868 200.726 60.9601 255.588 54.9201C255.588 54.9201 303.966 50.1468 310.418 33.2268L308.096 10.9468C308.096 10.9468 296.763 -3.90654 244.573 3.14679C244.573 3.14679 189.654 10.1601 189.146 25.2801Z" fill="#E8F79F"/>
<path d="M202.582 21.8404C203.265 21.1471 204.111 20.5737 204.978 20.0404C206.725 19.0004 208.634 18.1737 210.561 17.427C214.438 15.947 218.466 14.8404 222.519 13.8537C226.579 12.8937 230.685 12.1071 234.811 11.4537C238.938 10.8004 243.083 10.2537 247.241 9.80038C251.395 9.34705 255.565 9.01373 259.738 8.78707C263.911 8.5604 268.09 8.40038 272.274 8.40038C276.454 8.41372 280.643 8.62706 284.783 9.21373C286.853 9.50706 288.909 9.94704 290.879 10.627C291.859 10.9737 292.826 11.4004 293.683 11.9737C294.534 12.5471 295.293 13.3604 295.439 14.3737C295.526 15.4004 294.921 16.3471 294.222 17.0804C293.495 17.8271 292.649 18.4537 291.759 18.9871C289.969 20.0671 288.05 20.9204 286.087 21.6404C282.155 23.0671 278.099 24.1337 274.013 25.027C265.829 26.7604 257.554 28.0137 249.245 29.0137C245.09 29.5071 240.922 29.9337 236.741 30.2004C234.651 30.3337 232.558 30.427 230.463 30.4937C228.369 30.547 226.273 30.5471 224.178 30.5071C219.993 30.3871 215.801 30.0671 211.689 29.3204C209.638 28.9471 207.594 28.4671 205.675 27.7204C204.722 27.3471 203.779 26.907 202.975 26.3337C202.165 25.7737 201.533 25.0004 201.439 24.1737C201.402 23.3471 201.89 22.5204 202.582 21.8404ZM201.781 26.5871C202.002 26.7604 202.227 26.9204 202.454 27.0937C203.382 27.707 204.387 28.1204 205.394 28.4804C207.419 29.1737 209.498 29.6004 211.579 29.9471C215.749 30.6271 219.953 30.9471 224.158 31.1071C228.363 31.2804 232.575 31.3204 236.786 31.2404C240.998 31.1471 245.206 30.9204 249.407 30.5604C257.797 29.7737 266.159 28.427 274.294 26.1604C278.359 25.0404 282.386 23.747 286.27 22.0937C288.198 21.2404 290.121 20.3604 291.896 19.2137C292.778 18.6271 293.642 18.0004 294.378 17.227C295.087 16.467 295.727 15.4804 295.626 14.3604C295.481 13.2537 294.677 12.3871 293.811 11.7871C292.938 11.1737 291.957 10.7604 290.975 10.3737C289.003 9.60039 286.937 9.13372 284.874 8.70705C280.733 7.88039 276.525 7.45372 272.315 7.17372C263.886 6.61372 255.426 7.00039 247.033 7.81373C238.641 8.6804 230.295 10.0671 222.098 12.1471C218.001 13.1871 213.943 14.4271 210.009 16.0404C208.046 16.8671 206.105 17.7604 204.295 18.9604C203.394 19.5604 202.507 20.2004 201.745 21.0404C201.561 21.2537 201.379 21.4804 201.205 21.7071C201.055 21.9604 200.875 22.187 200.759 22.467C200.487 23.0137 200.37 23.6537 200.419 24.2804C200.523 24.9204 200.787 25.507 201.174 25.9604C201.351 26.2004 201.579 26.3737 201.781 26.5871Z" fill="#020403"/>
<path d="M305.893 38.2671C305.84 38.0671 305.788 37.8538 305.741 37.6404C305.616 37.0538 305.504 36.4538 305.4 35.8538C305.192 34.6404 305.007 33.4138 304.832 32.1871C304.483 29.7471 304.169 27.2804 303.877 24.8271C303.857 27.3071 303.86 29.7871 303.897 32.2671C303.919 33.5071 303.948 34.7471 304.003 36.0004C304.031 36.6271 304.065 37.2538 304.119 37.8804C304.147 38.2004 304.179 38.5204 304.227 38.8538C304.252 39.0271 304.28 39.1871 304.324 39.3871C304.331 39.4004 304.337 39.4271 304.343 39.4538C296.068 45.2004 277.551 51.2271 252.713 53.8138C252.676 53.8138 252.641 53.8137 252.604 53.8271C252.557 53.6271 252.508 53.4404 252.467 53.2538C252.34 52.6671 252.229 52.0538 252.125 51.4538C251.917 50.2404 251.732 49.0271 251.557 47.8004C251.208 45.3471 250.893 42.8937 250.603 40.4271C250.583 42.9071 250.585 45.3871 250.623 47.8671C250.644 49.1204 250.672 50.3604 250.728 51.6004C250.756 52.2271 250.791 52.8537 250.844 53.4937C250.859 53.6537 250.881 53.8271 250.899 53.9871C233.599 55.6538 219.073 55.0404 208.923 53.1337C208.893 53.0137 208.86 52.8937 208.832 52.7604C208.707 52.1737 208.596 51.5737 208.492 50.9604C208.283 49.7604 208.099 48.5338 207.923 47.3071C207.575 44.8671 207.26 42.4004 206.968 39.9471C206.948 42.4271 206.951 44.9071 206.989 47.3871C207.009 48.6271 207.039 49.8671 207.093 51.1204C207.119 51.6671 207.153 52.2271 207.197 52.7871C199.539 51.1604 194.701 48.7471 193.503 46.0404C193.435 45.6538 193.301 44.6138 193.227 44.0404C192.845 40.9471 192.236 35.3738 191.776 31.0538C200.419 37.3338 222.604 39.1338 244.697 37.4804L246.917 50.6404L246.377 37.3471C247.907 37.2271 249.433 37.0804 250.952 36.9337C269.664 34.9737 286.763 30.8271 297.865 25.5337C302.281 23.4271 305.536 21.2138 307.589 18.9471L309.021 34.0538C308.717 35.3871 307.649 36.8137 305.893 38.2671ZM247.544 4.24042C281.685 0.68042 306.291 5.9871 307.024 12.9871C307.32 15.8404 303.492 19.3871 296.52 22.7071C285.727 27.8538 269 31.9071 250.628 33.8271C216.481 37.3871 191.872 32.0671 191.143 25.0804C190.412 18.0804 213.396 7.80042 247.544 4.24042ZM310.131 12.6804V12.6671C308.919 1.04041 276.812 -1.94625 247.22 1.13375C217.623 4.22708 186.823 13.7737 188.035 25.4004C188.049 25.5337 189.423 38.6937 190.112 44.2937C190.085 44.6671 190.084 45.0404 190.12 45.3871C190.175 45.9071 190.311 46.4271 190.501 46.9337C190.527 47.0004 190.54 47.0671 190.567 47.1337C194.787 57.4004 225.188 59.8271 253.037 56.9204C280.884 54.0138 310.127 45.3604 312.137 34.4538C312.252 33.8538 312.277 33.2404 312.216 32.6538C312.167 32.1738 312.051 31.7204 311.896 31.2804L310.132 12.6804H310.131Z" fill="#020403"/>
<defs>
<clipPath id="clip0_103_823">
<rect width="417.14" height="147.144" fill="white" transform="translate(-29.2832 129.433) rotate(-9.5)"/>
</clipPath>
</defs>
</svg>
