<svg width="437" height="346" viewBox="0 0 437 346" fill="none" xmlns="http://www.w3.org/2000/svg">
<path d="M183.079 236.464C194.142 273.545 173.777 312.792 137.594 324.128C101.41 335.465 63.1097 314.597 52.0471 277.517C40.9845 240.437 61.3499 201.189 97.5332 189.853C133.716 178.516 172.016 199.384 183.079 236.464Z" fill="#E8F79F"/>
<path d="M176.08 242.841C185.895 275.739 167.828 310.56 135.727 320.618C103.626 330.675 69.6476 312.16 59.8327 279.261C50.0178 246.363 68.0838 211.542 100.185 201.485C132.286 191.428 166.265 209.943 176.08 242.841Z" fill="#E8F79F"/>
<path d="M405.603 190.491L351.286 211.457C351.286 211.457 318.262 243.809 254.813 239.708L187.561 253.311C187.561 253.311 133.213 286.178 106.204 262.093C106.204 262.093 85.8232 244.538 111.746 222.526C111.746 222.526 140.489 202.948 156.314 195.898C156.314 195.898 104.44 163.224 58.3338 219.432L62.5869 152.809C62.5869 152.809 69.9843 137.921 71.3608 136.077C72.7387 134.233 120.673 82.5395 120.673 82.5395L134.17 74.3546L148.775 72.0418L227.122 67.5266L239.547 68.1444L258.669 81.9034L301.6 110.443L311.941 114.008L379.315 81.826C379.315 81.826 421.633 134.397 405.603 190.491Z" fill="#E3F7F7"/>
<path d="M112.563 186.888L120.478 158.68L173.788 123.812C173.788 123.812 188.801 124.672 207.395 140.852L215.708 173.331C215.708 173.331 156.317 198.774 155.28 197.811C154.244 196.849 122.568 182.871 112.563 186.888Z" fill="#299092"/>
<path d="M137.994 321.505C102.801 332.531 65.4176 312.164 54.6574 276.097C43.8992 240.038 63.7756 201.724 98.9686 190.697C115.582 185.492 134.993 187.932 151.545 197.167C147.834 198.79 143.562 200.768 139.094 203.042C134.978 201.195 130.598 199.891 126.114 199.196C124.65 198.961 123.174 198.799 121.692 198.686C120.212 198.595 118.724 198.554 117.236 198.576C114.261 198.626 111.284 198.919 108.352 199.486C105.423 200.06 102.523 200.828 99.7151 201.88C98.3088 202.399 96.9265 202.988 95.5641 203.617C94.2037 204.254 92.8638 204.939 91.5585 205.692C88.9386 207.176 86.4504 208.907 84.1244 210.838C82.9561 211.797 81.8482 212.831 80.7718 213.894C79.6976 214.964 78.6626 216.068 77.6829 217.226C73.7609 221.849 70.6472 227.14 68.3986 232.753C67.2781 235.562 66.3547 238.442 65.6618 241.382C64.9382 244.309 64.4841 247.299 64.1918 250.293C63.0605 262.29 65.5008 274.612 71.2434 285.267C72.6765 287.931 74.3377 290.462 76.176 292.867C78.0227 295.262 80.0716 297.499 82.2848 299.56C84.5036 301.612 86.8923 303.47 89.407 305.14C91.9334 306.791 94.5761 308.257 97.3277 309.478C102.819 311.956 108.721 313.486 114.711 314.059C120.707 314.608 126.798 314.127 132.633 312.635C138.479 311.178 144.076 308.667 149.108 305.343C154.159 302.036 158.659 297.887 162.42 293.143C166.165 288.388 169.159 283.009 171.073 277.252C172.804 272.082 173.659 266.617 173.508 261.21C176.994 259.697 180.584 258.018 184.271 256.191C185.94 293.07 161.68 314.085 137.994 321.505ZM129.312 208.378C119.358 214.212 111.663 220.126 106.433 225.948C99.676 233.472 96.973 240.921 98.4013 248.097C98.5503 249.408 100.199 261.143 111.929 267.791C118.868 271.727 127.919 273.027 138.834 271.66C148.684 270.423 160.129 266.994 172.982 261.437C172.627 266.691 171.432 271.833 169.487 276.641C167.294 282.056 164.187 287.049 160.415 291.407C152.884 300.133 142.763 306.449 131.786 309.022C120.822 311.653 109.08 310.783 98.6237 306.349C93.3972 304.147 88.504 301.1 84.1742 297.345C79.8257 293.612 76.0197 289.178 72.9755 284.217C71.4486 281.738 70.1315 279.123 69.0037 276.41C67.9073 273.694 66.9855 270.893 66.3353 268.014C66.0044 266.581 65.7374 265.127 65.5158 263.667C65.2991 262.206 65.1632 260.734 65.0698 259.257C64.8769 256.314 64.9538 253.348 65.261 250.403C65.5793 247.471 66.1587 244.566 66.954 241.734C67.7521 238.901 68.8017 236.145 70.0429 233.501C72.5534 228.22 75.857 223.377 79.7714 219.162C81.7045 217.035 83.8239 215.091 86.039 213.289C87.1554 212.401 88.2977 211.544 89.4653 210.725C90.6378 209.913 91.8398 209.146 93.0637 208.419C94.2883 207.692 95.5467 207.025 96.8276 206.405C98.105 205.779 99.4084 205.206 100.736 204.697C103.383 203.657 106.106 202.804 108.883 202.183C110.27 201.866 111.673 201.629 113.082 201.422C114.488 201.208 115.905 201.053 117.329 200.965C118.751 200.871 120.178 200.838 121.607 200.866C123.035 200.879 124.464 200.938 125.892 201.076C128.741 201.346 131.587 201.812 134.386 202.512C135.625 202.818 136.854 203.174 138.076 203.564C135.191 205.053 132.237 206.665 129.312 208.378ZM349.407 210.197L349.157 210.299L348.944 210.467C328.494 227.011 304.63 233.504 288.211 236.034C270.355 238.788 257.183 237.593 257.052 237.579L256.809 237.554L185.926 251.428L185.716 251.541C174.091 257.477 164.108 261.565 155.532 264.251C133.571 271.132 120.866 268.807 113.655 264.746C103.052 258.774 101.857 248.099 101.812 247.653L101.784 247.466C98.946 233.529 116.095 220.189 130.983 211.459C134.883 209.168 138.839 207.07 142.61 205.202C142.623 205.206 142.637 205.209 142.651 205.213L142.673 205.167C154.861 199.117 165.089 195.452 165.222 195.402L165.293 195.38C165.465 195.311 182.782 188.278 199.978 181.22C229.595 169.054 233.574 167.277 234.655 166.634C234.918 166.473 235.016 166.131 234.882 165.853C234.746 165.568 234.428 165.48 234.128 165.566C232.371 166.054 228.848 167.251 224.162 168.938L217.482 149.884L222.36 169.589C220.686 170.199 218.888 170.856 216.989 171.56L207.759 140.624C207.561 139.961 207.135 139.384 206.562 139.01L195.811 131.953C195.516 131.756 195.125 131.848 194.937 132.149C194.772 132.419 194.815 132.764 195.044 132.981L203.886 141.252C204.31 141.65 204.621 142.154 204.789 142.718L213.717 172.772C206.19 175.583 197.411 178.935 188.569 182.368L204.457 165.444C204.634 165.255 204.628 164.953 204.443 164.769C204.269 164.597 203.998 164.596 203.816 164.755L181.051 185.308C175.137 187.637 169.35 189.942 164.059 192.092C163.677 192.227 160.416 193.412 155.55 195.444C152.645 193.685 149.647 192.136 146.58 190.794L161.999 164.083C162.48 163.246 163.044 162.46 163.683 161.745L172.34 152.026C172.545 151.798 172.527 151.437 172.305 151.233C172.105 151.046 171.803 151.031 171.593 151.206L161.846 160.994C160.702 161.134 159.493 161.208 158.309 161.228C157.011 161.245 155.71 161.2 154.412 161.076C153.118 160.935 151.831 160.714 150.562 160.386C149.301 160.024 148.07 159.551 146.905 158.902C147.975 159.698 149.159 160.349 150.396 160.883C151.644 161.397 152.933 161.797 154.244 162.12C155.557 162.426 156.888 162.649 158.231 162.813C158.872 162.886 159.518 162.949 160.164 162.988C160.043 163.166 159.921 163.337 159.808 163.521L157.914 166.51C157.705 166.544 157.497 166.578 157.283 166.599C156.766 166.667 156.24 166.691 155.715 166.731C154.662 166.772 153.6 166.769 152.542 166.695C150.424 166.547 148.303 166.197 146.25 165.568C144.201 164.938 142.175 164.153 140.292 163.065C139.317 162.575 138.431 161.931 137.515 161.337C137.046 161.054 136.637 160.683 136.202 160.351L134.908 159.329L136.12 160.455C136.529 160.818 136.914 161.228 137.361 161.549C138.233 162.22 139.083 162.945 140.028 163.515C141.855 164.776 143.861 165.755 145.926 166.567C147.996 167.393 150.17 167.937 152.379 168.268C153.485 168.436 154.603 168.53 155.727 168.576C156.018 168.579 156.311 168.588 156.603 168.591L143.387 189.477C134.276 185.972 124.68 184.281 115.336 184.516C115.527 183.894 115.751 183.137 116.009 182.261C116.703 179.921 117.644 176.661 118.806 172.567C120.291 167.349 121.766 162.08 122.418 159.738C122.528 159.345 122.774 159.01 123.109 158.788L175.571 124.357C175.89 124.148 175.984 123.713 175.779 123.387C175.579 123.067 175.168 122.97 174.849 123.163L120.198 156.54C120.033 156.638 119.894 156.776 119.774 156.922C119.549 156.884 119.324 156.845 119.099 156.806C118.143 156.614 117.189 156.406 116.242 156.148C114.35 155.641 112.476 155.018 110.656 154.246C108.836 153.482 107.044 152.624 105.333 151.599C103.599 150.62 101.974 149.452 100.371 148.237C101.861 149.581 103.395 150.903 105.06 152.051C106.697 153.232 108.44 154.27 110.227 155.208C112.017 156.161 113.88 156.966 115.789 157.664C116.742 158.013 117.713 158.317 118.692 158.603C118.838 158.644 118.983 158.684 119.128 158.724C116.548 167.96 112.724 181.472 111.667 184.706C106.979 185.082 102.377 185.946 97.9637 187.329C86.0521 191.061 75.8144 197.772 67.7753 206.409L67.7969 205.169L67.9694 198.81L68.4028 186.064C68.7143 177.562 69.0551 169.067 69.4119 160.567C68.4836 169.02 67.5727 177.475 66.6891 185.938L65.3961 198.633L64.794 204.994L64.5244 208.192C64.4825 208.728 64.4434 209.263 64.4106 209.812C64.4011 209.986 64.3922 210.161 64.384 210.335C63.422 211.534 62.4985 212.76 61.6164 214.019C61.1903 190.758 63.1843 171.125 65.0087 158.404C66.5623 147.57 71.267 137.637 78.6134 129.678L118.497 86.4528C124.844 79.5717 133.416 75.4267 142.633 74.7786L222.078 69.2172C230.761 68.6114 239.246 70.7989 246.601 75.5331L301.46 111.564C306.047 114.575 311.734 114.963 316.668 112.59L379.553 82.3844L378.092 79.1902L315.209 109.403C311.351 111.251 306.902 110.952 303.314 108.596L248.444 72.5604C240.455 67.4161 231.257 65.046 221.845 65.7084L142.4 71.2698C132.317 71.971 122.943 76.5076 115.998 84.0287L76.1137 127.254C68.2818 135.747 63.2659 146.339 61.6085 157.892C59.6319 171.66 57.4599 193.449 58.3094 219.167C48.4675 236.024 45.3381 256.91 51.3697 277.127C62.6835 315.05 101.994 336.467 138.999 324.873C153.949 320.19 166.429 311.504 175.087 299.748C184.331 287.199 188.656 271.642 187.636 254.685L256.981 241.106C258.94 241.272 271.517 242.162 288.623 239.534C295.042 238.553 302.564 236.976 310.588 234.462C323.575 230.394 337.867 223.864 350.861 213.402L407.613 191.688L406.412 188.389L349.407 210.197Z" fill="#020403"/>
<path d="M130.711 217.453C130.889 217.358 130.972 217.145 130.908 216.946C130.833 216.712 130.573 216.591 130.349 216.692C127.665 217.923 112.841 225.268 108.429 237.317C106.235 243.311 107.01 249.459 110.723 255.576C110.848 255.786 113.881 260.814 121.532 263.621C126.941 265.61 135.585 266.725 148.144 262.791C151.676 261.684 155.519 260.175 159.686 258.175L160.374 257.851L160.272 257.079C160.134 256.038 156.79 231.584 146.141 217.355C145.992 217.16 145.711 217.123 145.519 217.277C145.33 217.43 145.297 217.705 145.443 217.902C154.706 230.325 157.453 252.305 158.116 256.599C140.273 264.991 128.847 264.014 122.378 261.686C115.349 259.16 112.515 254.53 112.482 254.471C109.242 249.134 108.458 243.816 110.152 238.666C113.962 227.062 128.411 218.704 130.711 217.453Z" fill="#020403"/>
<path d="M183.547 246.556L183.505 246.577L173.653 251.014L163.81 255.471L163.888 255.665L173.909 251.643L183.859 247.621L198.102 245.055C202.864 244.187 207.632 243.357 212.4 242.526C217.166 241.688 221.898 240.658 226.621 239.584C231.34 238.496 236.048 237.341 240.716 235.98L240.677 235.774C235.85 236.287 231.059 237 226.281 237.779C221.507 238.572 216.74 239.41 212.009 240.44C207.28 241.477 202.551 242.514 197.815 243.514L183.611 246.544L183.547 246.556Z" fill="#020403"/>
<path d="M197.214 225.177C197.742 227.821 198.144 230.489 198.424 233.171L198.596 233.164C198.589 230.451 198.365 227.743 198.064 225.044C197.742 222.336 197.279 219.648 196.653 216.996C196.345 215.665 196.01 214.334 195.632 213.016C195.24 211.703 194.762 210.409 194.169 209.167C192.976 206.7 191.46 204.335 189.442 202.494L189.308 202.606C189.926 203.825 190.517 205.013 191.071 206.22C191.2 206.523 191.332 206.825 191.471 207.125C191.61 207.425 191.728 207.739 191.856 208.042C192.124 208.645 192.358 209.266 192.597 209.878C193.524 212.35 194.566 214.794 195.326 217.365C195.708 218.642 196.045 219.941 196.356 221.24C196.675 222.545 196.961 223.86 197.214 225.177Z" fill="#020403"/>
<path d="M202.114 223.614C202.658 226.237 203.148 228.885 203.649 231.561C203.863 228.84 203.725 226.105 203.443 223.393C203.147 220.684 202.653 217.983 201.956 215.337C201.256 212.693 200.339 210.101 199.14 207.636C198.534 206.406 197.852 205.215 197.098 204.085C196.318 202.964 195.479 201.885 194.515 200.946C195.178 202.127 195.808 203.303 196.368 204.517C196.938 205.719 197.428 206.963 197.904 208.195C198.837 210.68 199.613 213.223 200.299 215.802C200.979 218.374 201.574 220.982 202.114 223.614Z" fill="#020403"/>
<path d="M190.67 222.351C190.495 221.321 190.255 220.312 189.958 219.32C189.661 218.329 189.309 217.354 188.893 216.4C188.471 215.455 187.997 214.511 187.361 213.626C187.316 214.725 187.437 215.779 187.604 216.804C187.78 217.833 188.019 218.843 188.315 219.835C188.609 220.828 188.962 221.802 189.378 222.756C189.801 223.708 190.273 224.645 190.912 225.529C190.959 224.43 190.84 223.383 190.67 222.351Z" fill="#020403"/>
</svg>
