<svg width="491" height="209" viewBox="0 0 491 209" fill="none" xmlns="http://www.w3.org/2000/svg">
<g clip-path="url(#clip0_42_589)">
<path d="M-97.4407 60.2047L78.826 24.7914L88.5753 21.8314L184.179 25.4848L193.289 25.8714L211.974 26.7781L217.341 26.4981L292.407 6.65807L309.301 2.53809C309.301 2.53809 339.301 2.17807 342.194 27.1247C342.194 27.1247 351.834 54.7381 319.447 63.1514L353.821 59.7781C353.821 59.7781 371.394 41.8714 384.087 48.1914C384.087 48.1914 396.567 27.6581 412.767 33.0314C412.767 33.0314 429.141 4.77809 451.487 22.0848C451.487 22.0848 469.194 -1.55525 487.607 30.3781V39.1114L460.927 98.3247L457.527 102.591L423.581 132.725L415.741 136.738L269.461 166.418L264.087 166.245L95.7086 143.831L85.662 144.298L77.842 147.151L-57.7767 206.191C-57.7767 206.191 -115.698 151.991 -97.4407 57.6447" fill="#E3F7F7"/>
<path d="M-56.7613 208.524L-58.7947 203.844L79.6093 143.604C84.776 141.351 90.4587 140.564 96.0454 141.311L264.42 163.711C267.153 164.084 269.927 163.991 272.633 163.444L409.913 135.751C415.833 134.551 421.327 131.791 425.807 127.764L454.66 101.804C457.207 99.5111 459.193 96.7511 460.567 93.6178L483.913 40.1778C485.66 35.5778 485.42 30.6311 483.247 26.2178C481.073 21.8044 477.26 18.5911 472.527 17.2044C465.513 15.1378 457.873 17.6977 453.54 23.5911L434.393 49.5778L434.193 49.7511L401.727 78.9778C397.06 83.1644 391.047 85.6178 384.793 85.8711L252.7 91.2311L322.407 58.9778C336.54 52.7511 343.54 37.7911 338.727 24.1644C333.767 10.1244 318.62 2.17776 304.26 6.08444L220.768 28.7511L220.559 28.7644C210.765 29.7511 200.86 29.5511 191.112 28.1511L92.7307 26.5111C86.2053 26.4044 79.6627 27.0044 73.2721 28.2977L-96.9373 62.7111L-97.9453 57.7111L72.2627 23.2977C79.0134 21.9377 85.9293 21.2978 92.8159 21.4178L191.52 23.0577L191.681 23.0844C201 24.4311 210.473 24.6444 219.84 23.7244L302.927 1.16441C319.847 -3.42226 337.687 5.92441 343.527 22.4577C349.247 38.6311 341.06 56.3244 324.5 63.6178L278.073 85.1111L384.58 80.7778C389.66 80.5778 394.54 78.5911 398.313 75.1911L430.593 46.1378L449.433 20.5644C455.047 12.9644 464.9 9.64442 473.967 12.3111C479.993 14.0978 485.047 18.3378 487.82 23.9644C490.593 29.6044 490.9 36.1911 488.647 42.0577L488.593 42.1511L465.233 95.6577C463.567 99.4711 461.167 102.804 458.073 105.591L429.207 131.551C424.047 136.191 417.727 139.364 410.927 140.738L273.647 168.431C270.38 169.098 267.047 169.204 263.74 168.764L95.3721 146.351C90.7067 145.738 85.9587 146.404 81.6413 148.284L-56.7613 208.524Z" fill="#020403"/>
<path d="M375.9 85.7515L372.7 81.7914L402.647 57.5781L410.393 32.1248C414.9 20.3514 426.62 12.9915 438.873 14.2181C445.593 14.8848 449.82 17.6448 453.434 23.7515L449.06 26.3515C446.26 21.6448 443.46 19.7915 438.367 19.2848C428.42 18.2848 418.887 24.2848 415.18 33.8581L407.074 60.5515L375.9 85.7515Z" fill="#020403"/>
<path d="M315.193 67.9648L314.46 62.9248L352.567 57.3915C362.807 46.5115 371.753 44.4315 377.487 44.6449C384.1 44.8715 388.127 48.0849 388.287 48.2182L385.073 52.1782L386.687 50.1915L385.087 52.1915C384.593 51.7915 372.78 42.8582 355.687 61.4982L355.073 62.1648L315.193 67.9648Z" fill="#020403"/>
<path d="M361.847 70.1911C361.46 69.6311 361.593 68.8578 362.153 68.4578L381.18 55.1778C384.247 44.0711 389.34 36.5644 396.34 32.8578C404.487 28.5378 412.1 31.1378 412.42 31.2578L410.727 36.0578L411.58 33.6578L410.74 36.0578C410.5 35.9778 404.793 34.0978 398.647 37.4045C392.807 40.5378 388.513 47.2578 385.86 57.3911L385.633 58.2978L363.473 70.5778C362.913 70.8845 362.22 70.7244 361.847 70.1911Z" fill="#020403"/>
<path d="M273.993 24.2447C276.326 22.9514 278.727 21.8047 281.18 20.7247C283.62 19.658 286.1 18.6714 288.633 17.7914C291.153 16.898 293.713 16.1114 296.313 15.4314C298.913 14.738 301.553 14.1781 304.22 13.7647C306.9 13.378 309.62 13.1114 312.367 13.1247C315.113 13.1114 317.887 13.4047 320.633 14.0847C323.353 14.7781 326.06 15.9647 328.326 17.8047C330.62 19.6314 332.353 22.1114 333.407 24.7781L333.326 24.6181C333.993 25.9114 334.46 27.138 334.9 28.4314C335.313 29.7247 335.633 31.0447 335.86 32.3781C336.3 35.0581 336.38 37.818 335.807 40.498C335.527 41.8314 335.127 43.138 334.567 44.3647C333.98 45.5914 333.273 46.7514 332.46 47.8047C330.793 49.8981 328.713 51.5781 326.447 52.8447C328.46 51.2047 330.233 49.3114 331.553 47.1781C332.847 45.0181 333.66 42.6314 333.94 40.1914C334.087 38.978 334.087 37.7381 334.007 36.5114C333.913 35.2847 333.727 34.0714 333.447 32.8714C333.167 31.6581 332.793 30.4847 332.353 29.3247C331.927 28.1914 331.393 27.0047 330.833 26.0314L330.793 25.9781L330.753 25.8714C329.767 23.6447 328.287 21.698 326.407 20.2314C324.513 18.778 322.247 17.7647 319.833 17.1647C317.433 16.5514 314.887 16.2847 312.34 16.2314C309.78 16.178 307.193 16.3381 304.607 16.6314C302.02 16.9247 299.447 17.3514 296.873 17.858C294.3 18.3647 291.74 18.9781 289.193 19.6314C284.086 20.9647 279.02 22.4981 273.993 24.2447Z" fill="#020403"/>
<path d="M307.153 61.8449C305.34 62.9915 303.473 64.0315 301.593 65.0315C300.66 65.5382 299.7 66.0182 298.766 66.5115C297.82 66.9915 296.846 67.4448 295.9 67.9248L295.446 68.1382L295.033 67.8449C294.526 67.4849 294.206 67.1915 293.833 66.8315C293.486 66.4848 293.153 66.1249 292.833 65.7782C292.206 65.0449 291.58 64.3115 291.033 63.5248C289.926 61.9648 288.913 60.3515 288.046 58.6715C287.153 57.0049 286.38 55.2849 285.686 53.5382C285.34 52.6582 285.02 51.7782 284.713 50.8982C284.433 49.9915 284.153 49.0982 283.913 48.1915C284.393 49.0048 284.86 49.8048 285.313 50.6315C285.766 51.4448 286.246 52.2448 286.686 53.0582C287.166 53.8582 287.62 54.6715 288.086 55.4715C288.566 56.2582 289.02 57.0582 289.513 57.8315C290.486 59.4048 291.486 60.9382 292.566 62.4049C293.113 63.1382 293.66 63.8582 294.233 64.5382C294.526 64.8849 294.833 65.2182 295.14 65.5248C295.433 65.8315 295.78 66.1782 296.033 66.3782L295.166 66.2982C296.153 65.8982 297.126 65.4715 298.113 65.0849C299.113 64.6982 300.086 64.2848 301.086 63.9248C303.086 63.1782 305.1 62.4582 307.153 61.8449Z" fill="#020403"/>
<path d="M394.514 82.5514C394.847 82.8848 395.061 83.1248 395.301 83.4048C395.541 83.6714 395.741 83.9647 395.967 84.2314C396.381 84.8047 396.794 85.3648 397.141 85.9514C397.887 87.1114 398.514 88.3248 399.087 89.5514C400.221 92.0181 401.034 94.5781 401.661 97.1647L402.074 99.1114C402.194 99.7648 402.287 100.418 402.394 101.071C402.621 102.378 402.687 103.698 402.821 105.005C402.927 106.325 402.941 107.645 402.994 108.951L402.914 112.885L402.594 108.978C402.407 107.685 402.274 106.391 402.034 105.111C401.767 103.831 401.581 102.551 401.221 101.311C401.047 100.685 400.901 100.058 400.727 99.4448L400.127 97.6048C399.274 95.1781 398.261 92.8314 396.981 90.6581C396.327 89.5781 395.647 88.5248 394.874 87.5514C394.501 87.0581 394.087 86.6048 393.674 86.1514C393.474 85.9381 393.261 85.7114 393.047 85.5114C392.847 85.3248 392.594 85.0981 392.447 84.9781L394.514 82.5514Z" fill="#020403"/>
<path d="M433.394 46.5381C434.687 47.6048 435.914 48.6581 437.14 49.7514C438.38 50.8314 439.58 51.9514 440.754 53.0848C441.94 54.2314 443.087 55.4048 444.167 56.6181C445.261 57.8448 446.314 59.1114 447.127 60.5381C446.1 59.2714 444.874 58.2181 443.62 57.2048C442.367 56.1914 441.074 55.2314 439.74 54.3247C438.42 53.4047 437.074 52.5114 435.714 51.6581C434.354 50.8047 432.967 49.9514 431.594 49.1647L433.394 46.5381Z" fill="#020403"/>
<path d="M260.834 98.3244C268.087 97.3377 275.367 96.6577 282.647 96.0977C289.914 95.511 297.207 95.0844 304.487 94.7511C311.781 94.4177 319.074 94.1777 326.367 94.0977C333.674 94.0044 340.967 94.0177 348.287 94.3511C341.034 95.3377 333.754 96.0177 326.487 96.5777C319.207 97.1644 311.927 97.591 304.634 97.9244C297.341 98.2444 290.047 98.4844 282.754 98.5644C275.461 98.6577 268.154 98.6444 260.834 98.3244Z" fill="#020403"/>
<path d="M265.781 90.098L229.698 102.551C228.995 102.791 228.593 101.765 229.273 101.471L264.168 85.9913C264.461 85.858 264.821 86.0047 264.941 86.3114L266.127 89.338C266.247 89.6447 266.087 89.9914 265.781 90.098Z" fill="#020403"/>
<path d="M219.281 57.5112C220.653 59.8312 221.815 62.1778 222.964 64.5245L226.32 71.5112C227.449 73.8045 228.584 76.0845 229.877 78.2445C230.519 79.3378 231.209 80.3778 231.993 81.3512C232.78 82.3378 233.66 83.2312 234.82 83.9512C233.447 83.9112 232.103 83.2845 230.945 82.5112C229.78 81.7378 228.764 80.7645 227.861 79.7245C226.051 77.6578 224.639 75.3112 223.459 72.8978C222.288 70.4845 221.351 67.9778 220.631 65.4045C219.923 62.8445 219.391 60.2178 219.281 57.5112Z" fill="#020403"/>
<path d="M227.419 60.6313C228.23 61.818 228.878 63.0447 229.5 64.2847C230.112 65.5113 230.676 66.7647 231.207 68.018C231.742 69.2847 232.248 70.538 232.743 71.8047C233.247 73.0847 233.714 74.3246 234.367 75.5913C233.107 74.858 232.192 73.6713 231.411 72.498C230.64 71.3113 229.994 70.058 229.448 68.7646C228.907 67.4846 228.454 66.1513 228.098 64.8047C227.755 63.4447 227.475 62.0713 227.419 60.6313Z" fill="#020403"/>
</g>
<defs>
<clipPath id="clip0_42_589">
<rect width="591.142" height="208.524" fill="white" transform="translate(-101)"/>
</clipPath>
</defs>
</svg>
