<svg width="473" height="125" viewBox="0 0 473 125" fill="none" xmlns="http://www.w3.org/2000/svg">
<mask id="path-1-outside-1_207_739" maskUnits="userSpaceOnUse" x="0.377197" y="0" width="473" height="125" fill="black">
<rect fill="white" x="0.377197" width="473" height="125"/>
<path d="M16.9772 61.97V46.11H36.7372C39.2505 46.11 41.5472 45.59 43.6272 44.55C45.7072 43.51 47.3539 41.9933 48.5672 40C49.7805 38.0067 50.3872 35.58 50.3872 32.72C50.3872 29.9467 49.7805 27.5633 48.5672 25.57C47.3539 23.5767 45.7072 22.06 43.6272 21.02C41.5472 19.98 39.2505 19.46 36.7372 19.46H16.9772V3.6H39.7272C45.5339 3.6 50.7772 4.77 55.4572 7.11C60.1372 9.45 63.8205 12.83 66.5072 17.25C69.2805 21.5833 70.6672 26.74 70.6672 32.72C70.6672 38.7 69.2805 43.9 66.5072 48.32C63.8205 52.6533 60.1372 56.0333 55.4572 58.46C50.7772 60.8 45.5339 61.97 39.7272 61.97H16.9772ZM1.3772 95.38V3.6H21.7872V95.38H1.3772Z"/>
<path d="M109.722 96.81C102.875 96.81 96.7654 95.4233 91.392 92.65C86.1054 89.79 81.9454 85.8467 78.912 80.82C75.8787 75.7933 74.362 70.1167 74.362 63.79C74.362 57.4633 75.8354 51.83 78.782 46.89C81.8154 41.8633 85.8887 37.92 91.002 35.06C96.1154 32.2 101.879 30.77 108.292 30.77C114.532 30.77 120.035 32.1133 124.802 34.8C129.569 37.4867 133.295 41.2133 135.982 45.98C138.755 50.7467 140.142 56.2067 140.142 62.36C140.142 63.4867 140.055 64.7 139.882 66C139.795 67.2133 139.579 68.6433 139.232 70.29L84.762 70.42V56.77L130.782 56.64L122.202 62.36C122.115 58.72 121.552 55.73 120.512 53.39C119.472 50.9633 117.912 49.1433 115.832 47.93C113.839 46.63 111.369 45.98 108.422 45.98C105.302 45.98 102.572 46.7167 100.232 48.19C97.9787 49.5767 96.202 51.57 94.902 54.17C93.6887 56.77 93.082 59.9333 93.082 63.66C93.082 67.3867 93.732 70.5933 95.032 73.28C96.4187 75.88 98.3254 77.9167 100.752 79.39C103.265 80.7767 106.212 81.47 109.592 81.47C112.712 81.47 115.529 80.95 118.042 79.91C120.555 78.7833 122.765 77.1367 124.672 74.97L135.592 85.89C132.472 89.53 128.702 92.26 124.282 94.08C119.862 95.9 115.009 96.81 109.722 96.81Z"/>
<path d="M191.473 95.38V59.37C191.473 56.0767 190.433 53.4333 188.353 51.44C186.359 49.36 183.803 48.32 180.683 48.32C178.516 48.32 176.609 48.7967 174.963 49.75C173.316 50.6167 172.016 51.9167 171.063 53.65C170.109 55.2967 169.633 57.2033 169.633 59.37L161.963 55.6C161.963 50.66 163.046 46.3267 165.213 42.6C167.379 38.8733 170.369 36.0133 174.183 34.02C178.083 31.94 182.459 30.9 187.313 30.9C191.993 30.9 196.109 32.0267 199.663 34.28C203.303 36.4467 206.163 39.35 208.243 42.99C210.323 46.63 211.363 50.6167 211.363 54.95V95.38H191.473ZM149.743 95.38V32.2H169.633V95.38H149.743Z"/>
<path d="M251.047 96.68C245.067 96.68 239.737 95.25 235.057 92.39C230.464 89.53 226.824 85.63 224.137 80.69C221.537 75.75 220.237 70.1167 220.237 63.79C220.237 57.4633 221.537 51.83 224.137 46.89C226.824 41.95 230.464 38.05 235.057 35.19C239.737 32.33 245.067 30.9 251.047 30.9C255.381 30.9 259.281 31.7233 262.747 33.37C266.301 35.0167 269.204 37.3133 271.457 40.26C273.797 43.12 275.097 46.4133 275.357 50.14V76.79C275.097 80.5167 273.841 83.8967 271.587 86.93C269.334 89.8767 266.431 92.26 262.877 94.08C259.324 95.8133 255.381 96.68 251.047 96.68ZM254.557 78.74C257.417 78.74 259.887 78.1333 261.967 76.92C264.047 75.62 265.694 73.8433 266.907 71.59C268.121 69.3367 268.727 66.7367 268.727 63.79C268.727 60.8433 268.121 58.2867 266.907 56.12C265.781 53.8667 264.134 52.09 261.967 50.79C259.887 49.49 257.461 48.84 254.687 48.84C251.914 48.84 249.444 49.49 247.277 50.79C245.197 52.09 243.507 53.8667 242.207 56.12C240.994 58.3733 240.387 60.93 240.387 63.79C240.387 66.65 240.994 69.2067 242.207 71.46C243.421 73.7133 245.111 75.49 247.277 76.79C249.444 78.09 251.871 78.74 254.557 78.74ZM287.447 95.38H267.947V78.35L270.937 63.01L267.557 47.67V1H287.447V95.38Z"/>
<path d="M301.452 95.38V32.2H321.342V95.38H301.452ZM311.462 23.49C308.342 23.49 305.742 22.45 303.662 20.37C301.668 18.2033 300.672 15.6033 300.672 12.57C300.672 9.45 301.668 6.85 303.662 4.77C305.742 2.69 308.342 1.65 311.462 1.65C314.582 1.65 317.138 2.69 319.132 4.77C321.125 6.85 322.122 9.45 322.122 12.57C322.122 15.6033 321.125 18.2033 319.132 20.37C317.138 22.45 314.582 23.49 311.462 23.49Z"/>
<path d="M377.078 95.38V59.37C377.078 56.0767 376.038 53.4333 373.958 51.44C371.965 49.36 369.408 48.32 366.288 48.32C364.122 48.32 362.215 48.7967 360.568 49.75C358.922 50.6167 357.622 51.9167 356.668 53.65C355.715 55.2967 355.238 57.2033 355.238 59.37L347.568 55.6C347.568 50.66 348.652 46.3267 350.818 42.6C352.985 38.8733 355.975 36.0133 359.788 34.02C363.688 31.94 368.065 30.9 372.918 30.9C377.598 30.9 381.715 32.0267 385.268 34.28C388.908 36.4467 391.768 39.35 393.848 42.99C395.928 46.63 396.968 50.6167 396.968 54.95V95.38H377.078ZM335.348 95.38V32.2H355.238V95.38H335.348Z"/>
<path d="M436.523 123.72C429.589 123.72 423.479 122.507 418.193 120.08C412.993 117.74 408.876 114.403 405.843 110.07L418.063 97.85C420.316 100.537 422.829 102.573 425.603 103.96C428.463 105.347 431.886 106.04 435.873 106.04C440.813 106.04 444.669 104.827 447.443 102.4C450.303 99.9733 451.733 96.55 451.733 92.13V76.01L455.113 62.23L452.123 48.45V32.2H471.623V91.61C471.623 98.11 470.106 103.743 467.073 108.51C464.039 113.277 459.879 117.003 454.593 119.69C449.306 122.377 443.283 123.72 436.523 123.72ZM435.613 93.43C429.806 93.43 424.649 92.0433 420.143 89.27C415.636 86.4967 412.083 82.7267 409.483 77.96C406.883 73.1933 405.583 67.9067 405.583 62.1C405.583 56.2067 406.883 50.92 409.483 46.24C412.083 41.4733 415.636 37.7467 420.143 35.06C424.649 32.2867 429.806 30.9 435.613 30.9C439.946 30.9 443.803 31.7233 447.183 33.37C450.649 34.93 453.423 37.1833 455.503 40.13C457.669 42.99 458.883 46.3267 459.143 50.14V74.19C458.883 77.9167 457.669 81.2533 455.503 84.2C453.423 87.06 450.649 89.3133 447.183 90.96C443.716 92.6067 439.859 93.43 435.613 93.43ZM439.383 75.75C442.156 75.75 444.539 75.1433 446.533 73.93C448.613 72.7167 450.173 71.1133 451.213 69.12C452.339 67.04 452.903 64.7 452.903 62.1C452.903 59.5 452.339 57.16 451.213 55.08C450.173 53 448.613 51.3533 446.533 50.14C444.539 48.9267 442.156 48.32 439.383 48.32C436.696 48.32 434.313 48.9267 432.233 50.14C430.153 51.3533 428.549 53 427.423 55.08C426.296 57.16 425.733 59.5 425.733 62.1C425.733 64.5267 426.296 66.8233 427.423 68.99C428.549 71.07 430.109 72.7167 432.103 73.93C434.183 75.1433 436.609 75.75 439.383 75.75Z"/>
</mask>
<path d="M16.9772 61.97V46.11H36.7372C39.2505 46.11 41.5472 45.59 43.6272 44.55C45.7072 43.51 47.3539 41.9933 48.5672 40C49.7805 38.0067 50.3872 35.58 50.3872 32.72C50.3872 29.9467 49.7805 27.5633 48.5672 25.57C47.3539 23.5767 45.7072 22.06 43.6272 21.02C41.5472 19.98 39.2505 19.46 36.7372 19.46H16.9772V3.6H39.7272C45.5339 3.6 50.7772 4.77 55.4572 7.11C60.1372 9.45 63.8205 12.83 66.5072 17.25C69.2805 21.5833 70.6672 26.74 70.6672 32.72C70.6672 38.7 69.2805 43.9 66.5072 48.32C63.8205 52.6533 60.1372 56.0333 55.4572 58.46C50.7772 60.8 45.5339 61.97 39.7272 61.97H16.9772ZM1.3772 95.38V3.6H21.7872V95.38H1.3772Z" fill="#E3F7F7"/>
<path d="M109.722 96.81C102.875 96.81 96.7654 95.4233 91.392 92.65C86.1054 89.79 81.9454 85.8467 78.912 80.82C75.8787 75.7933 74.362 70.1167 74.362 63.79C74.362 57.4633 75.8354 51.83 78.782 46.89C81.8154 41.8633 85.8887 37.92 91.002 35.06C96.1154 32.2 101.879 30.77 108.292 30.77C114.532 30.77 120.035 32.1133 124.802 34.8C129.569 37.4867 133.295 41.2133 135.982 45.98C138.755 50.7467 140.142 56.2067 140.142 62.36C140.142 63.4867 140.055 64.7 139.882 66C139.795 67.2133 139.579 68.6433 139.232 70.29L84.762 70.42V56.77L130.782 56.64L122.202 62.36C122.115 58.72 121.552 55.73 120.512 53.39C119.472 50.9633 117.912 49.1433 115.832 47.93C113.839 46.63 111.369 45.98 108.422 45.98C105.302 45.98 102.572 46.7167 100.232 48.19C97.9787 49.5767 96.202 51.57 94.902 54.17C93.6887 56.77 93.082 59.9333 93.082 63.66C93.082 67.3867 93.732 70.5933 95.032 73.28C96.4187 75.88 98.3254 77.9167 100.752 79.39C103.265 80.7767 106.212 81.47 109.592 81.47C112.712 81.47 115.529 80.95 118.042 79.91C120.555 78.7833 122.765 77.1367 124.672 74.97L135.592 85.89C132.472 89.53 128.702 92.26 124.282 94.08C119.862 95.9 115.009 96.81 109.722 96.81Z" fill="#E3F7F7"/>
<path d="M191.473 95.38V59.37C191.473 56.0767 190.433 53.4333 188.353 51.44C186.359 49.36 183.803 48.32 180.683 48.32C178.516 48.32 176.609 48.7967 174.963 49.75C173.316 50.6167 172.016 51.9167 171.063 53.65C170.109 55.2967 169.633 57.2033 169.633 59.37L161.963 55.6C161.963 50.66 163.046 46.3267 165.213 42.6C167.379 38.8733 170.369 36.0133 174.183 34.02C178.083 31.94 182.459 30.9 187.313 30.9C191.993 30.9 196.109 32.0267 199.663 34.28C203.303 36.4467 206.163 39.35 208.243 42.99C210.323 46.63 211.363 50.6167 211.363 54.95V95.38H191.473ZM149.743 95.38V32.2H169.633V95.38H149.743Z" fill="#E3F7F7"/>
<path d="M251.047 96.68C245.067 96.68 239.737 95.25 235.057 92.39C230.464 89.53 226.824 85.63 224.137 80.69C221.537 75.75 220.237 70.1167 220.237 63.79C220.237 57.4633 221.537 51.83 224.137 46.89C226.824 41.95 230.464 38.05 235.057 35.19C239.737 32.33 245.067 30.9 251.047 30.9C255.381 30.9 259.281 31.7233 262.747 33.37C266.301 35.0167 269.204 37.3133 271.457 40.26C273.797 43.12 275.097 46.4133 275.357 50.14V76.79C275.097 80.5167 273.841 83.8967 271.587 86.93C269.334 89.8767 266.431 92.26 262.877 94.08C259.324 95.8133 255.381 96.68 251.047 96.68ZM254.557 78.74C257.417 78.74 259.887 78.1333 261.967 76.92C264.047 75.62 265.694 73.8433 266.907 71.59C268.121 69.3367 268.727 66.7367 268.727 63.79C268.727 60.8433 268.121 58.2867 266.907 56.12C265.781 53.8667 264.134 52.09 261.967 50.79C259.887 49.49 257.461 48.84 254.687 48.84C251.914 48.84 249.444 49.49 247.277 50.79C245.197 52.09 243.507 53.8667 242.207 56.12C240.994 58.3733 240.387 60.93 240.387 63.79C240.387 66.65 240.994 69.2067 242.207 71.46C243.421 73.7133 245.111 75.49 247.277 76.79C249.444 78.09 251.871 78.74 254.557 78.74ZM287.447 95.38H267.947V78.35L270.937 63.01L267.557 47.67V1H287.447V95.38Z" fill="#E3F7F7"/>
<path d="M301.452 95.38V32.2H321.342V95.38H301.452ZM311.462 23.49C308.342 23.49 305.742 22.45 303.662 20.37C301.668 18.2033 300.672 15.6033 300.672 12.57C300.672 9.45 301.668 6.85 303.662 4.77C305.742 2.69 308.342 1.65 311.462 1.65C314.582 1.65 317.138 2.69 319.132 4.77C321.125 6.85 322.122 9.45 322.122 12.57C322.122 15.6033 321.125 18.2033 319.132 20.37C317.138 22.45 314.582 23.49 311.462 23.49Z" fill="#E3F7F7"/>
<path d="M377.078 95.38V59.37C377.078 56.0767 376.038 53.4333 373.958 51.44C371.965 49.36 369.408 48.32 366.288 48.32C364.122 48.32 362.215 48.7967 360.568 49.75C358.922 50.6167 357.622 51.9167 356.668 53.65C355.715 55.2967 355.238 57.2033 355.238 59.37L347.568 55.6C347.568 50.66 348.652 46.3267 350.818 42.6C352.985 38.8733 355.975 36.0133 359.788 34.02C363.688 31.94 368.065 30.9 372.918 30.9C377.598 30.9 381.715 32.0267 385.268 34.28C388.908 36.4467 391.768 39.35 393.848 42.99C395.928 46.63 396.968 50.6167 396.968 54.95V95.38H377.078ZM335.348 95.38V32.2H355.238V95.38H335.348Z" fill="#E3F7F7"/>
<path d="M436.523 123.72C429.589 123.72 423.479 122.507 418.193 120.08C412.993 117.74 408.876 114.403 405.843 110.07L418.063 97.85C420.316 100.537 422.829 102.573 425.603 103.96C428.463 105.347 431.886 106.04 435.873 106.04C440.813 106.04 444.669 104.827 447.443 102.4C450.303 99.9733 451.733 96.55 451.733 92.13V76.01L455.113 62.23L452.123 48.45V32.2H471.623V91.61C471.623 98.11 470.106 103.743 467.073 108.51C464.039 113.277 459.879 117.003 454.593 119.69C449.306 122.377 443.283 123.72 436.523 123.72ZM435.613 93.43C429.806 93.43 424.649 92.0433 420.143 89.27C415.636 86.4967 412.083 82.7267 409.483 77.96C406.883 73.1933 405.583 67.9067 405.583 62.1C405.583 56.2067 406.883 50.92 409.483 46.24C412.083 41.4733 415.636 37.7467 420.143 35.06C424.649 32.2867 429.806 30.9 435.613 30.9C439.946 30.9 443.803 31.7233 447.183 33.37C450.649 34.93 453.423 37.1833 455.503 40.13C457.669 42.99 458.883 46.3267 459.143 50.14V74.19C458.883 77.9167 457.669 81.2533 455.503 84.2C453.423 87.06 450.649 89.3133 447.183 90.96C443.716 92.6067 439.859 93.43 435.613 93.43ZM439.383 75.75C442.156 75.75 444.539 75.1433 446.533 73.93C448.613 72.7167 450.173 71.1133 451.213 69.12C452.339 67.04 452.903 64.7 452.903 62.1C452.903 59.5 452.339 57.16 451.213 55.08C450.173 53 448.613 51.3533 446.533 50.14C444.539 48.9267 442.156 48.32 439.383 48.32C436.696 48.32 434.313 48.9267 432.233 50.14C430.153 51.3533 428.549 53 427.423 55.08C426.296 57.16 425.733 59.5 425.733 62.1C425.733 64.5267 426.296 66.8233 427.423 68.99C428.549 71.07 430.109 72.7167 432.103 73.93C434.183 75.1433 436.609 75.75 439.383 75.75Z" fill="#E3F7F7"/>
<path d="M16.9772 61.97V46.11H36.7372C39.2505 46.11 41.5472 45.59 43.6272 44.55C45.7072 43.51 47.3539 41.9933 48.5672 40C49.7805 38.0067 50.3872 35.58 50.3872 32.72C50.3872 29.9467 49.7805 27.5633 48.5672 25.57C47.3539 23.5767 45.7072 22.06 43.6272 21.02C41.5472 19.98 39.2505 19.46 36.7372 19.46H16.9772V3.6H39.7272C45.5339 3.6 50.7772 4.77 55.4572 7.11C60.1372 9.45 63.8205 12.83 66.5072 17.25C69.2805 21.5833 70.6672 26.74 70.6672 32.72C70.6672 38.7 69.2805 43.9 66.5072 48.32C63.8205 52.6533 60.1372 56.0333 55.4572 58.46C50.7772 60.8 45.5339 61.97 39.7272 61.97H16.9772ZM1.3772 95.38V3.6H21.7872V95.38H1.3772Z" stroke="black" stroke-width="2" mask="url(#path-1-outside-1_207_739)"/>
<path d="M109.722 96.81C102.875 96.81 96.7654 95.4233 91.392 92.65C86.1054 89.79 81.9454 85.8467 78.912 80.82C75.8787 75.7933 74.362 70.1167 74.362 63.79C74.362 57.4633 75.8354 51.83 78.782 46.89C81.8154 41.8633 85.8887 37.92 91.002 35.06C96.1154 32.2 101.879 30.77 108.292 30.77C114.532 30.77 120.035 32.1133 124.802 34.8C129.569 37.4867 133.295 41.2133 135.982 45.98C138.755 50.7467 140.142 56.2067 140.142 62.36C140.142 63.4867 140.055 64.7 139.882 66C139.795 67.2133 139.579 68.6433 139.232 70.29L84.762 70.42V56.77L130.782 56.64L122.202 62.36C122.115 58.72 121.552 55.73 120.512 53.39C119.472 50.9633 117.912 49.1433 115.832 47.93C113.839 46.63 111.369 45.98 108.422 45.98C105.302 45.98 102.572 46.7167 100.232 48.19C97.9787 49.5767 96.202 51.57 94.902 54.17C93.6887 56.77 93.082 59.9333 93.082 63.66C93.082 67.3867 93.732 70.5933 95.032 73.28C96.4187 75.88 98.3254 77.9167 100.752 79.39C103.265 80.7767 106.212 81.47 109.592 81.47C112.712 81.47 115.529 80.95 118.042 79.91C120.555 78.7833 122.765 77.1367 124.672 74.97L135.592 85.89C132.472 89.53 128.702 92.26 124.282 94.08C119.862 95.9 115.009 96.81 109.722 96.81Z" stroke="black" stroke-width="2" mask="url(#path-1-outside-1_207_739)"/>
<path d="M191.473 95.38V59.37C191.473 56.0767 190.433 53.4333 188.353 51.44C186.359 49.36 183.803 48.32 180.683 48.32C178.516 48.32 176.609 48.7967 174.963 49.75C173.316 50.6167 172.016 51.9167 171.063 53.65C170.109 55.2967 169.633 57.2033 169.633 59.37L161.963 55.6C161.963 50.66 163.046 46.3267 165.213 42.6C167.379 38.8733 170.369 36.0133 174.183 34.02C178.083 31.94 182.459 30.9 187.313 30.9C191.993 30.9 196.109 32.0267 199.663 34.28C203.303 36.4467 206.163 39.35 208.243 42.99C210.323 46.63 211.363 50.6167 211.363 54.95V95.38H191.473ZM149.743 95.38V32.2H169.633V95.38H149.743Z" stroke="black" stroke-width="2" mask="url(#path-1-outside-1_207_739)"/>
<path d="M251.047 96.68C245.067 96.68 239.737 95.25 235.057 92.39C230.464 89.53 226.824 85.63 224.137 80.69C221.537 75.75 220.237 70.1167 220.237 63.79C220.237 57.4633 221.537 51.83 224.137 46.89C226.824 41.95 230.464 38.05 235.057 35.19C239.737 32.33 245.067 30.9 251.047 30.9C255.381 30.9 259.281 31.7233 262.747 33.37C266.301 35.0167 269.204 37.3133 271.457 40.26C273.797 43.12 275.097 46.4133 275.357 50.14V76.79C275.097 80.5167 273.841 83.8967 271.587 86.93C269.334 89.8767 266.431 92.26 262.877 94.08C259.324 95.8133 255.381 96.68 251.047 96.68ZM254.557 78.74C257.417 78.74 259.887 78.1333 261.967 76.92C264.047 75.62 265.694 73.8433 266.907 71.59C268.121 69.3367 268.727 66.7367 268.727 63.79C268.727 60.8433 268.121 58.2867 266.907 56.12C265.781 53.8667 264.134 52.09 261.967 50.79C259.887 49.49 257.461 48.84 254.687 48.84C251.914 48.84 249.444 49.49 247.277 50.79C245.197 52.09 243.507 53.8667 242.207 56.12C240.994 58.3733 240.387 60.93 240.387 63.79C240.387 66.65 240.994 69.2067 242.207 71.46C243.421 73.7133 245.111 75.49 247.277 76.79C249.444 78.09 251.871 78.74 254.557 78.74ZM287.447 95.38H267.947V78.35L270.937 63.01L267.557 47.67V1H287.447V95.38Z" stroke="black" stroke-width="2" mask="url(#path-1-outside-1_207_739)"/>
<path d="M301.452 95.38V32.2H321.342V95.38H301.452ZM311.462 23.49C308.342 23.49 305.742 22.45 303.662 20.37C301.668 18.2033 300.672 15.6033 300.672 12.57C300.672 9.45 301.668 6.85 303.662 4.77C305.742 2.69 308.342 1.65 311.462 1.65C314.582 1.65 317.138 2.69 319.132 4.77C321.125 6.85 322.122 9.45 322.122 12.57C322.122 15.6033 321.125 18.2033 319.132 20.37C317.138 22.45 314.582 23.49 311.462 23.49Z" stroke="black" stroke-width="2" mask="url(#path-1-outside-1_207_739)"/>
<path d="M377.078 95.38V59.37C377.078 56.0767 376.038 53.4333 373.958 51.44C371.965 49.36 369.408 48.32 366.288 48.32C364.122 48.32 362.215 48.7967 360.568 49.75C358.922 50.6167 357.622 51.9167 356.668 53.65C355.715 55.2967 355.238 57.2033 355.238 59.37L347.568 55.6C347.568 50.66 348.652 46.3267 350.818 42.6C352.985 38.8733 355.975 36.0133 359.788 34.02C363.688 31.94 368.065 30.9 372.918 30.9C377.598 30.9 381.715 32.0267 385.268 34.28C388.908 36.4467 391.768 39.35 393.848 42.99C395.928 46.63 396.968 50.6167 396.968 54.95V95.38H377.078ZM335.348 95.38V32.2H355.238V95.38H335.348Z" stroke="black" stroke-width="2" mask="url(#path-1-outside-1_207_739)"/>
<path d="M436.523 123.72C429.589 123.72 423.479 122.507 418.193 120.08C412.993 117.74 408.876 114.403 405.843 110.07L418.063 97.85C420.316 100.537 422.829 102.573 425.603 103.96C428.463 105.347 431.886 106.04 435.873 106.04C440.813 106.04 444.669 104.827 447.443 102.4C450.303 99.9733 451.733 96.55 451.733 92.13V76.01L455.113 62.23L452.123 48.45V32.2H471.623V91.61C471.623 98.11 470.106 103.743 467.073 108.51C464.039 113.277 459.879 117.003 454.593 119.69C449.306 122.377 443.283 123.72 436.523 123.72ZM435.613 93.43C429.806 93.43 424.649 92.0433 420.143 89.27C415.636 86.4967 412.083 82.7267 409.483 77.96C406.883 73.1933 405.583 67.9067 405.583 62.1C405.583 56.2067 406.883 50.92 409.483 46.24C412.083 41.4733 415.636 37.7467 420.143 35.06C424.649 32.2867 429.806 30.9 435.613 30.9C439.946 30.9 443.803 31.7233 447.183 33.37C450.649 34.93 453.423 37.1833 455.503 40.13C457.669 42.99 458.883 46.3267 459.143 50.14V74.19C458.883 77.9167 457.669 81.2533 455.503 84.2C453.423 87.06 450.649 89.3133 447.183 90.96C443.716 92.6067 439.859 93.43 435.613 93.43ZM439.383 75.75C442.156 75.75 444.539 75.1433 446.533 73.93C448.613 72.7167 450.173 71.1133 451.213 69.12C452.339 67.04 452.903 64.7 452.903 62.1C452.903 59.5 452.339 57.16 451.213 55.08C450.173 53 448.613 51.3533 446.533 50.14C444.539 48.9267 442.156 48.32 439.383 48.32C436.696 48.32 434.313 48.9267 432.233 50.14C430.153 51.3533 428.549 53 427.423 55.08C426.296 57.16 425.733 59.5 425.733 62.1C425.733 64.5267 426.296 66.8233 427.423 68.99C428.549 71.07 430.109 72.7167 432.103 73.93C434.183 75.1433 436.609 75.75 439.383 75.75Z" stroke="black" stroke-width="2" mask="url(#path-1-outside-1_207_739)"/>
</svg>
