<svg width="531" height="97" viewBox="0 0 531 97" fill="none" xmlns="http://www.w3.org/2000/svg">
<mask id="path-1-outside-1_207_740" maskUnits="userSpaceOnUse" x="0.739868" y="0" width="530" height="97" fill="black">
<rect fill="white" x="0.739868" width="530" height="97"/>
<path d="M38.0999 60.02L2.73987 2.43H26.3999L53.5699 48.97H38.3599L65.5299 2.43H88.6699L53.0499 60.02H38.0999ZM35.6299 94.21V50.66H56.0399V94.21H35.6299Z"/>
<path d="M109.203 95.64C102.703 95.64 96.8094 94.21 91.5228 91.35C86.3228 88.4033 82.2061 84.4167 79.1728 79.39C76.1394 74.3633 74.6228 68.73 74.6228 62.49C74.6228 56.25 76.1394 50.66 79.1728 45.72C82.2061 40.78 86.3228 36.88 91.5228 34.02C96.7228 31.0733 102.616 29.6 109.203 29.6C115.789 29.6 121.683 31.03 126.883 33.89C132.083 36.75 136.199 40.6933 139.233 45.72C142.266 50.66 143.783 56.25 143.783 62.49C143.783 68.73 142.266 74.3633 139.233 79.39C136.199 84.4167 132.083 88.4033 126.883 91.35C121.683 94.21 115.789 95.64 109.203 95.64ZM109.203 77.57C112.063 77.57 114.576 76.9633 116.743 75.75C118.909 74.45 120.556 72.6733 121.683 70.42C122.896 68.08 123.503 65.4367 123.503 62.49C123.503 59.5433 122.896 56.9867 121.683 54.82C120.469 52.5667 118.779 50.8333 116.613 49.62C114.533 48.32 112.063 47.67 109.203 47.67C106.429 47.67 103.959 48.32 101.793 49.62C99.6261 50.8333 97.9361 52.5667 96.7228 54.82C95.5094 57.0733 94.9028 59.6733 94.9028 62.62C94.9028 65.48 95.5094 68.08 96.7228 70.42C97.9361 72.6733 99.6261 74.45 101.793 75.75C103.959 76.9633 106.429 77.57 109.203 77.57Z"/>
<path d="M181.765 95.64C175.958 95.64 170.802 94.47 166.295 92.13C161.875 89.7033 158.408 86.41 155.895 82.25C153.382 78.0033 152.125 73.15 152.125 67.69V31.03H172.015V67.43C172.015 69.5967 172.362 71.46 173.055 73.02C173.835 74.58 174.962 75.7933 176.435 76.66C177.908 77.5267 179.685 77.96 181.765 77.96C184.712 77.96 187.052 77.05 188.785 75.23C190.518 73.3233 191.385 70.7233 191.385 67.43V31.03H211.275V67.56C211.275 73.1067 210.018 78.0033 207.505 82.25C204.992 86.41 201.525 89.7033 197.105 92.13C192.685 94.47 187.572 95.64 181.765 95.64Z"/>
<path d="M293.889 95.64C287.042 95.64 280.672 94.47 274.779 92.13C268.972 89.7033 263.859 86.3233 259.439 81.99C255.106 77.6567 251.726 72.63 249.299 66.91C246.872 61.1033 245.659 54.8633 245.659 48.19C245.659 41.5167 246.872 35.32 249.299 29.6C251.726 23.7933 255.106 18.7667 259.439 14.52C263.772 10.2733 268.842 6.98 274.649 4.64C280.542 2.21333 286.912 1 293.759 1C301.039 1 307.496 2.17 313.129 4.50999C318.849 6.84999 323.832 10.0567 328.079 14.13L314.429 27.91C312.002 25.31 309.056 23.2733 305.589 21.8C302.209 20.3267 298.266 19.59 293.759 19.59C289.772 19.59 286.089 20.2833 282.709 21.67C279.416 22.97 276.556 24.8767 274.129 27.39C271.789 29.9033 269.926 32.9367 268.539 36.49C267.239 40.0433 266.589 43.9433 266.589 48.19C266.589 52.5233 267.239 56.4667 268.539 60.02C269.926 63.5733 271.789 66.6067 274.129 69.12C276.556 71.6333 279.416 73.5833 282.709 74.97C286.089 76.3567 289.772 77.05 293.759 77.05C298.439 77.05 302.512 76.3133 305.979 74.84C309.446 73.3667 312.436 71.33 314.949 68.73L328.729 82.51C324.309 86.5833 319.239 89.79 313.519 92.13C307.886 94.47 301.342 95.64 293.889 95.64Z"/>
<path d="M363.015 95.51C357.208 95.51 352.008 94.08 347.415 91.22C342.908 88.36 339.311 84.46 336.625 79.52C334.025 74.58 332.725 68.9467 332.725 62.62C332.725 56.2933 334.025 50.66 336.625 45.72C339.311 40.78 342.908 36.88 347.415 34.02C352.008 31.16 357.208 29.73 363.015 29.73C367.261 29.73 371.075 30.5533 374.455 32.2C377.921 33.8467 380.738 36.1433 382.905 39.09C385.071 41.95 386.285 45.2433 386.545 48.97V76.27C386.285 79.9967 385.071 83.3333 382.905 86.28C380.825 89.14 378.051 91.3933 374.585 93.04C371.118 94.6867 367.261 95.51 363.015 95.51ZM367.045 77.57C371.291 77.57 374.715 76.1833 377.315 73.41C379.915 70.55 381.215 66.9533 381.215 62.62C381.215 59.6733 380.608 57.0733 379.395 54.82C378.268 52.5667 376.621 50.8333 374.455 49.62C372.375 48.32 369.948 47.67 367.175 47.67C364.401 47.67 361.931 48.32 359.765 49.62C357.685 50.8333 355.995 52.5667 354.695 54.82C353.481 57.0733 352.875 59.6733 352.875 62.62C352.875 65.48 353.481 68.0367 354.695 70.29C355.908 72.5433 357.598 74.32 359.765 75.62C361.931 76.92 364.358 77.57 367.045 77.57ZM380.435 94.21V77.18L383.425 61.84L380.435 46.5V31.03H399.935V94.21H380.435Z"/>
<path d="M413.939 94.21V31.03H433.829V94.21H413.939ZM433.829 59.5L425.509 53C427.156 45.6333 429.929 39.9133 433.829 35.84C437.729 31.7667 443.146 29.73 450.079 29.73C453.112 29.73 455.756 30.2067 458.009 31.16C460.349 32.0267 462.386 33.4133 464.119 35.32L452.289 50.27C451.422 49.3167 450.339 48.58 449.039 48.06C447.739 47.54 446.266 47.28 444.619 47.28C441.326 47.28 438.682 48.32 436.689 50.4C434.782 52.3933 433.829 55.4267 433.829 59.5Z"/>
<path d="M498.84 95.64C491.994 95.64 485.884 94.2533 480.51 91.48C475.224 88.62 471.064 84.6767 468.03 79.65C464.997 74.6233 463.48 68.9467 463.48 62.62C463.48 56.2933 464.954 50.66 467.9 45.72C470.934 40.6933 475.007 36.75 480.12 33.89C485.234 31.03 490.997 29.6 497.41 29.6C503.65 29.6 509.154 30.9433 513.92 33.63C518.687 36.3167 522.413 40.0433 525.1 44.81C527.873 49.5767 529.26 55.0367 529.26 61.19C529.26 62.3167 529.174 63.53 529 64.83C528.914 66.0433 528.697 67.4733 528.35 69.12L473.88 69.25V55.6L519.9 55.47L511.32 61.19C511.234 57.55 510.67 54.56 509.63 52.22C508.59 49.7933 507.03 47.9733 504.95 46.76C502.957 45.46 500.487 44.81 497.54 44.81C494.42 44.81 491.69 45.5467 489.35 47.02C487.097 48.4067 485.32 50.4 484.02 53C482.807 55.6 482.2 58.7633 482.2 62.49C482.2 66.2167 482.85 69.4233 484.15 72.11C485.537 74.71 487.444 76.7467 489.87 78.22C492.384 79.6067 495.33 80.3 498.71 80.3C501.83 80.3 504.647 79.78 507.16 78.74C509.674 77.6133 511.884 75.9667 513.79 73.8L524.71 84.72C521.59 88.36 517.82 91.09 513.4 92.91C508.98 94.73 504.127 95.64 498.84 95.64Z"/>
</mask>
<path d="M38.0999 60.02L2.73987 2.43H26.3999L53.5699 48.97H38.3599L65.5299 2.43H88.6699L53.0499 60.02H38.0999ZM35.6299 94.21V50.66H56.0399V94.21H35.6299Z" fill="#E3F7F7"/>
<path d="M109.203 95.64C102.703 95.64 96.8094 94.21 91.5228 91.35C86.3228 88.4033 82.2061 84.4167 79.1728 79.39C76.1394 74.3633 74.6228 68.73 74.6228 62.49C74.6228 56.25 76.1394 50.66 79.1728 45.72C82.2061 40.78 86.3228 36.88 91.5228 34.02C96.7228 31.0733 102.616 29.6 109.203 29.6C115.789 29.6 121.683 31.03 126.883 33.89C132.083 36.75 136.199 40.6933 139.233 45.72C142.266 50.66 143.783 56.25 143.783 62.49C143.783 68.73 142.266 74.3633 139.233 79.39C136.199 84.4167 132.083 88.4033 126.883 91.35C121.683 94.21 115.789 95.64 109.203 95.64ZM109.203 77.57C112.063 77.57 114.576 76.9633 116.743 75.75C118.909 74.45 120.556 72.6733 121.683 70.42C122.896 68.08 123.503 65.4367 123.503 62.49C123.503 59.5433 122.896 56.9867 121.683 54.82C120.469 52.5667 118.779 50.8333 116.613 49.62C114.533 48.32 112.063 47.67 109.203 47.67C106.429 47.67 103.959 48.32 101.793 49.62C99.6261 50.8333 97.9361 52.5667 96.7228 54.82C95.5094 57.0733 94.9028 59.6733 94.9028 62.62C94.9028 65.48 95.5094 68.08 96.7228 70.42C97.9361 72.6733 99.6261 74.45 101.793 75.75C103.959 76.9633 106.429 77.57 109.203 77.57Z" fill="#E3F7F7"/>
<path d="M181.765 95.64C175.958 95.64 170.802 94.47 166.295 92.13C161.875 89.7033 158.408 86.41 155.895 82.25C153.382 78.0033 152.125 73.15 152.125 67.69V31.03H172.015V67.43C172.015 69.5967 172.362 71.46 173.055 73.02C173.835 74.58 174.962 75.7933 176.435 76.66C177.908 77.5267 179.685 77.96 181.765 77.96C184.712 77.96 187.052 77.05 188.785 75.23C190.518 73.3233 191.385 70.7233 191.385 67.43V31.03H211.275V67.56C211.275 73.1067 210.018 78.0033 207.505 82.25C204.992 86.41 201.525 89.7033 197.105 92.13C192.685 94.47 187.572 95.64 181.765 95.64Z" fill="#E3F7F7"/>
<path d="M293.889 95.64C287.042 95.64 280.672 94.47 274.779 92.13C268.972 89.7033 263.859 86.3233 259.439 81.99C255.106 77.6567 251.726 72.63 249.299 66.91C246.872 61.1033 245.659 54.8633 245.659 48.19C245.659 41.5167 246.872 35.32 249.299 29.6C251.726 23.7933 255.106 18.7667 259.439 14.52C263.772 10.2733 268.842 6.98 274.649 4.64C280.542 2.21333 286.912 1 293.759 1C301.039 1 307.496 2.17 313.129 4.50999C318.849 6.84999 323.832 10.0567 328.079 14.13L314.429 27.91C312.002 25.31 309.056 23.2733 305.589 21.8C302.209 20.3267 298.266 19.59 293.759 19.59C289.772 19.59 286.089 20.2833 282.709 21.67C279.416 22.97 276.556 24.8767 274.129 27.39C271.789 29.9033 269.926 32.9367 268.539 36.49C267.239 40.0433 266.589 43.9433 266.589 48.19C266.589 52.5233 267.239 56.4667 268.539 60.02C269.926 63.5733 271.789 66.6067 274.129 69.12C276.556 71.6333 279.416 73.5833 282.709 74.97C286.089 76.3567 289.772 77.05 293.759 77.05C298.439 77.05 302.512 76.3133 305.979 74.84C309.446 73.3667 312.436 71.33 314.949 68.73L328.729 82.51C324.309 86.5833 319.239 89.79 313.519 92.13C307.886 94.47 301.342 95.64 293.889 95.64Z" fill="#E3F7F7"/>
<path d="M363.015 95.51C357.208 95.51 352.008 94.08 347.415 91.22C342.908 88.36 339.311 84.46 336.625 79.52C334.025 74.58 332.725 68.9467 332.725 62.62C332.725 56.2933 334.025 50.66 336.625 45.72C339.311 40.78 342.908 36.88 347.415 34.02C352.008 31.16 357.208 29.73 363.015 29.73C367.261 29.73 371.075 30.5533 374.455 32.2C377.921 33.8467 380.738 36.1433 382.905 39.09C385.071 41.95 386.285 45.2433 386.545 48.97V76.27C386.285 79.9967 385.071 83.3333 382.905 86.28C380.825 89.14 378.051 91.3933 374.585 93.04C371.118 94.6867 367.261 95.51 363.015 95.51ZM367.045 77.57C371.291 77.57 374.715 76.1833 377.315 73.41C379.915 70.55 381.215 66.9533 381.215 62.62C381.215 59.6733 380.608 57.0733 379.395 54.82C378.268 52.5667 376.621 50.8333 374.455 49.62C372.375 48.32 369.948 47.67 367.175 47.67C364.401 47.67 361.931 48.32 359.765 49.62C357.685 50.8333 355.995 52.5667 354.695 54.82C353.481 57.0733 352.875 59.6733 352.875 62.62C352.875 65.48 353.481 68.0367 354.695 70.29C355.908 72.5433 357.598 74.32 359.765 75.62C361.931 76.92 364.358 77.57 367.045 77.57ZM380.435 94.21V77.18L383.425 61.84L380.435 46.5V31.03H399.935V94.21H380.435Z" fill="#E3F7F7"/>
<path d="M413.939 94.21V31.03H433.829V94.21H413.939ZM433.829 59.5L425.509 53C427.156 45.6333 429.929 39.9133 433.829 35.84C437.729 31.7667 443.146 29.73 450.079 29.73C453.112 29.73 455.756 30.2067 458.009 31.16C460.349 32.0267 462.386 33.4133 464.119 35.32L452.289 50.27C451.422 49.3167 450.339 48.58 449.039 48.06C447.739 47.54 446.266 47.28 444.619 47.28C441.326 47.28 438.682 48.32 436.689 50.4C434.782 52.3933 433.829 55.4267 433.829 59.5Z" fill="#E3F7F7"/>
<path d="M498.84 95.64C491.994 95.64 485.884 94.2533 480.51 91.48C475.224 88.62 471.064 84.6767 468.03 79.65C464.997 74.6233 463.48 68.9467 463.48 62.62C463.48 56.2933 464.954 50.66 467.9 45.72C470.934 40.6933 475.007 36.75 480.12 33.89C485.234 31.03 490.997 29.6 497.41 29.6C503.65 29.6 509.154 30.9433 513.92 33.63C518.687 36.3167 522.413 40.0433 525.1 44.81C527.873 49.5767 529.26 55.0367 529.26 61.19C529.26 62.3167 529.174 63.53 529 64.83C528.914 66.0433 528.697 67.4733 528.35 69.12L473.88 69.25V55.6L519.9 55.47L511.32 61.19C511.234 57.55 510.67 54.56 509.63 52.22C508.59 49.7933 507.03 47.9733 504.95 46.76C502.957 45.46 500.487 44.81 497.54 44.81C494.42 44.81 491.69 45.5467 489.35 47.02C487.097 48.4067 485.32 50.4 484.02 53C482.807 55.6 482.2 58.7633 482.2 62.49C482.2 66.2167 482.85 69.4233 484.15 72.11C485.537 74.71 487.444 76.7467 489.87 78.22C492.384 79.6067 495.33 80.3 498.71 80.3C501.83 80.3 504.647 79.78 507.16 78.74C509.674 77.6133 511.884 75.9667 513.79 73.8L524.71 84.72C521.59 88.36 517.82 91.09 513.4 92.91C508.98 94.73 504.127 95.64 498.84 95.64Z" fill="#E3F7F7"/>
<path d="M38.0999 60.02L2.73987 2.43H26.3999L53.5699 48.97H38.3599L65.5299 2.43H88.6699L53.0499 60.02H38.0999ZM35.6299 94.21V50.66H56.0399V94.21H35.6299Z" stroke="black" stroke-width="2" mask="url(#path-1-outside-1_207_740)"/>
<path d="M109.203 95.64C102.703 95.64 96.8094 94.21 91.5228 91.35C86.3228 88.4033 82.2061 84.4167 79.1728 79.39C76.1394 74.3633 74.6228 68.73 74.6228 62.49C74.6228 56.25 76.1394 50.66 79.1728 45.72C82.2061 40.78 86.3228 36.88 91.5228 34.02C96.7228 31.0733 102.616 29.6 109.203 29.6C115.789 29.6 121.683 31.03 126.883 33.89C132.083 36.75 136.199 40.6933 139.233 45.72C142.266 50.66 143.783 56.25 143.783 62.49C143.783 68.73 142.266 74.3633 139.233 79.39C136.199 84.4167 132.083 88.4033 126.883 91.35C121.683 94.21 115.789 95.64 109.203 95.64ZM109.203 77.57C112.063 77.57 114.576 76.9633 116.743 75.75C118.909 74.45 120.556 72.6733 121.683 70.42C122.896 68.08 123.503 65.4367 123.503 62.49C123.503 59.5433 122.896 56.9867 121.683 54.82C120.469 52.5667 118.779 50.8333 116.613 49.62C114.533 48.32 112.063 47.67 109.203 47.67C106.429 47.67 103.959 48.32 101.793 49.62C99.6261 50.8333 97.9361 52.5667 96.7228 54.82C95.5094 57.0733 94.9028 59.6733 94.9028 62.62C94.9028 65.48 95.5094 68.08 96.7228 70.42C97.9361 72.6733 99.6261 74.45 101.793 75.75C103.959 76.9633 106.429 77.57 109.203 77.57Z" stroke="black" stroke-width="2" mask="url(#path-1-outside-1_207_740)"/>
<path d="M181.765 95.64C175.958 95.64 170.802 94.47 166.295 92.13C161.875 89.7033 158.408 86.41 155.895 82.25C153.382 78.0033 152.125 73.15 152.125 67.69V31.03H172.015V67.43C172.015 69.5967 172.362 71.46 173.055 73.02C173.835 74.58 174.962 75.7933 176.435 76.66C177.908 77.5267 179.685 77.96 181.765 77.96C184.712 77.96 187.052 77.05 188.785 75.23C190.518 73.3233 191.385 70.7233 191.385 67.43V31.03H211.275V67.56C211.275 73.1067 210.018 78.0033 207.505 82.25C204.992 86.41 201.525 89.7033 197.105 92.13C192.685 94.47 187.572 95.64 181.765 95.64Z" stroke="black" stroke-width="2" mask="url(#path-1-outside-1_207_740)"/>
<path d="M293.889 95.64C287.042 95.64 280.672 94.47 274.779 92.13C268.972 89.7033 263.859 86.3233 259.439 81.99C255.106 77.6567 251.726 72.63 249.299 66.91C246.872 61.1033 245.659 54.8633 245.659 48.19C245.659 41.5167 246.872 35.32 249.299 29.6C251.726 23.7933 255.106 18.7667 259.439 14.52C263.772 10.2733 268.842 6.98 274.649 4.64C280.542 2.21333 286.912 1 293.759 1C301.039 1 307.496 2.17 313.129 4.50999C318.849 6.84999 323.832 10.0567 328.079 14.13L314.429 27.91C312.002 25.31 309.056 23.2733 305.589 21.8C302.209 20.3267 298.266 19.59 293.759 19.59C289.772 19.59 286.089 20.2833 282.709 21.67C279.416 22.97 276.556 24.8767 274.129 27.39C271.789 29.9033 269.926 32.9367 268.539 36.49C267.239 40.0433 266.589 43.9433 266.589 48.19C266.589 52.5233 267.239 56.4667 268.539 60.02C269.926 63.5733 271.789 66.6067 274.129 69.12C276.556 71.6333 279.416 73.5833 282.709 74.97C286.089 76.3567 289.772 77.05 293.759 77.05C298.439 77.05 302.512 76.3133 305.979 74.84C309.446 73.3667 312.436 71.33 314.949 68.73L328.729 82.51C324.309 86.5833 319.239 89.79 313.519 92.13C307.886 94.47 301.342 95.64 293.889 95.64Z" stroke="black" stroke-width="2" mask="url(#path-1-outside-1_207_740)"/>
<path d="M363.015 95.51C357.208 95.51 352.008 94.08 347.415 91.22C342.908 88.36 339.311 84.46 336.625 79.52C334.025 74.58 332.725 68.9467 332.725 62.62C332.725 56.2933 334.025 50.66 336.625 45.72C339.311 40.78 342.908 36.88 347.415 34.02C352.008 31.16 357.208 29.73 363.015 29.73C367.261 29.73 371.075 30.5533 374.455 32.2C377.921 33.8467 380.738 36.1433 382.905 39.09C385.071 41.95 386.285 45.2433 386.545 48.97V76.27C386.285 79.9967 385.071 83.3333 382.905 86.28C380.825 89.14 378.051 91.3933 374.585 93.04C371.118 94.6867 367.261 95.51 363.015 95.51ZM367.045 77.57C371.291 77.57 374.715 76.1833 377.315 73.41C379.915 70.55 381.215 66.9533 381.215 62.62C381.215 59.6733 380.608 57.0733 379.395 54.82C378.268 52.5667 376.621 50.8333 374.455 49.62C372.375 48.32 369.948 47.67 367.175 47.67C364.401 47.67 361.931 48.32 359.765 49.62C357.685 50.8333 355.995 52.5667 354.695 54.82C353.481 57.0733 352.875 59.6733 352.875 62.62C352.875 65.48 353.481 68.0367 354.695 70.29C355.908 72.5433 357.598 74.32 359.765 75.62C361.931 76.92 364.358 77.57 367.045 77.57ZM380.435 94.21V77.18L383.425 61.84L380.435 46.5V31.03H399.935V94.21H380.435Z" stroke="black" stroke-width="2" mask="url(#path-1-outside-1_207_740)"/>
<path d="M413.939 94.21V31.03H433.829V94.21H413.939ZM433.829 59.5L425.509 53C427.156 45.6333 429.929 39.9133 433.829 35.84C437.729 31.7667 443.146 29.73 450.079 29.73C453.112 29.73 455.756 30.2067 458.009 31.16C460.349 32.0267 462.386 33.4133 464.119 35.32L452.289 50.27C451.422 49.3167 450.339 48.58 449.039 48.06C447.739 47.54 446.266 47.28 444.619 47.28C441.326 47.28 438.682 48.32 436.689 50.4C434.782 52.3933 433.829 55.4267 433.829 59.5Z" stroke="black" stroke-width="2" mask="url(#path-1-outside-1_207_740)"/>
<path d="M498.84 95.64C491.994 95.64 485.884 94.2533 480.51 91.48C475.224 88.62 471.064 84.6767 468.03 79.65C464.997 74.6233 463.48 68.9467 463.48 62.62C463.48 56.2933 464.954 50.66 467.9 45.72C470.934 40.6933 475.007 36.75 480.12 33.89C485.234 31.03 490.997 29.6 497.41 29.6C503.65 29.6 509.154 30.9433 513.92 33.63C518.687 36.3167 522.413 40.0433 525.1 44.81C527.873 49.5767 529.26 55.0367 529.26 61.19C529.26 62.3167 529.174 63.53 529 64.83C528.914 66.0433 528.697 67.4733 528.35 69.12L473.88 69.25V55.6L519.9 55.47L511.32 61.19C511.234 57.55 510.67 54.56 509.63 52.22C508.59 49.7933 507.03 47.9733 504.95 46.76C502.957 45.46 500.487 44.81 497.54 44.81C494.42 44.81 491.69 45.5467 489.35 47.02C487.097 48.4067 485.32 50.4 484.02 53C482.807 55.6 482.2 58.7633 482.2 62.49C482.2 66.2167 482.85 69.4233 484.15 72.11C485.537 74.71 487.444 76.7467 489.87 78.22C492.384 79.6067 495.33 80.3 498.71 80.3C501.83 80.3 504.647 79.78 507.16 78.74C509.674 77.6133 511.884 75.9667 513.79 73.8L524.71 84.72C521.59 88.36 517.82 91.09 513.4 92.91C508.98 94.73 504.127 95.64 498.84 95.64Z" stroke="black" stroke-width="2" mask="url(#path-1-outside-1_207_740)"/>
</svg>
